%TF.GenerationSoftware,KiCad,Pcbnew,9.0.1-9.0.1-0~ubuntu24.04.1*%
%TF.CreationDate,2025-05-12T00:52:14+10:00*%
%TF.ProjectId,Sensor_Unit,53656e73-6f72-45f5-956e-69742e6b6963,rev?*%
%TF.SameCoordinates,Original*%
%TF.FileFunction,Legend,Bot*%
%TF.FilePolarity,Positive*%
%FSLAX46Y46*%
G04 Gerber Fmt 4.6, Leading zero omitted, Abs format (unit mm)*
G04 Created by KiCad (PCBNEW 9.0.1-9.0.1-0~ubuntu24.04.1) date 2025-05-12 00:52:14*
%MOMM*%
%LPD*%
G01*
G04 APERTURE LIST*
%ADD10C,0.150000*%
%ADD11C,0.508000*%
%ADD12C,0.120000*%
G04 APERTURE END LIST*
D10*
X54567857Y-86679580D02*
X54615476Y-86727200D01*
X54615476Y-86727200D02*
X54758333Y-86774819D01*
X54758333Y-86774819D02*
X54853571Y-86774819D01*
X54853571Y-86774819D02*
X54996428Y-86727200D01*
X54996428Y-86727200D02*
X55091666Y-86631961D01*
X55091666Y-86631961D02*
X55139285Y-86536723D01*
X55139285Y-86536723D02*
X55186904Y-86346247D01*
X55186904Y-86346247D02*
X55186904Y-86203390D01*
X55186904Y-86203390D02*
X55139285Y-86012914D01*
X55139285Y-86012914D02*
X55091666Y-85917676D01*
X55091666Y-85917676D02*
X54996428Y-85822438D01*
X54996428Y-85822438D02*
X54853571Y-85774819D01*
X54853571Y-85774819D02*
X54758333Y-85774819D01*
X54758333Y-85774819D02*
X54615476Y-85822438D01*
X54615476Y-85822438D02*
X54567857Y-85870057D01*
X54186904Y-85870057D02*
X54139285Y-85822438D01*
X54139285Y-85822438D02*
X54044047Y-85774819D01*
X54044047Y-85774819D02*
X53805952Y-85774819D01*
X53805952Y-85774819D02*
X53710714Y-85822438D01*
X53710714Y-85822438D02*
X53663095Y-85870057D01*
X53663095Y-85870057D02*
X53615476Y-85965295D01*
X53615476Y-85965295D02*
X53615476Y-86060533D01*
X53615476Y-86060533D02*
X53663095Y-86203390D01*
X53663095Y-86203390D02*
X54234523Y-86774819D01*
X54234523Y-86774819D02*
X53615476Y-86774819D01*
X53044047Y-86203390D02*
X53139285Y-86155771D01*
X53139285Y-86155771D02*
X53186904Y-86108152D01*
X53186904Y-86108152D02*
X53234523Y-86012914D01*
X53234523Y-86012914D02*
X53234523Y-85965295D01*
X53234523Y-85965295D02*
X53186904Y-85870057D01*
X53186904Y-85870057D02*
X53139285Y-85822438D01*
X53139285Y-85822438D02*
X53044047Y-85774819D01*
X53044047Y-85774819D02*
X52853571Y-85774819D01*
X52853571Y-85774819D02*
X52758333Y-85822438D01*
X52758333Y-85822438D02*
X52710714Y-85870057D01*
X52710714Y-85870057D02*
X52663095Y-85965295D01*
X52663095Y-85965295D02*
X52663095Y-86012914D01*
X52663095Y-86012914D02*
X52710714Y-86108152D01*
X52710714Y-86108152D02*
X52758333Y-86155771D01*
X52758333Y-86155771D02*
X52853571Y-86203390D01*
X52853571Y-86203390D02*
X53044047Y-86203390D01*
X53044047Y-86203390D02*
X53139285Y-86251009D01*
X53139285Y-86251009D02*
X53186904Y-86298628D01*
X53186904Y-86298628D02*
X53234523Y-86393866D01*
X53234523Y-86393866D02*
X53234523Y-86584342D01*
X53234523Y-86584342D02*
X53186904Y-86679580D01*
X53186904Y-86679580D02*
X53139285Y-86727200D01*
X53139285Y-86727200D02*
X53044047Y-86774819D01*
X53044047Y-86774819D02*
X52853571Y-86774819D01*
X52853571Y-86774819D02*
X52758333Y-86727200D01*
X52758333Y-86727200D02*
X52710714Y-86679580D01*
X52710714Y-86679580D02*
X52663095Y-86584342D01*
X52663095Y-86584342D02*
X52663095Y-86393866D01*
X52663095Y-86393866D02*
X52710714Y-86298628D01*
X52710714Y-86298628D02*
X52758333Y-86251009D01*
X52758333Y-86251009D02*
X52853571Y-86203390D01*
X126071428Y-83481009D02*
X126404761Y-83481009D01*
X126404761Y-84004819D02*
X126404761Y-83004819D01*
X126404761Y-83004819D02*
X125928571Y-83004819D01*
X125547618Y-84004819D02*
X125547618Y-83004819D01*
X125071428Y-84004819D02*
X125071428Y-83004819D01*
X125071428Y-83004819D02*
X124833333Y-83004819D01*
X124833333Y-83004819D02*
X124690476Y-83052438D01*
X124690476Y-83052438D02*
X124595238Y-83147676D01*
X124595238Y-83147676D02*
X124547619Y-83242914D01*
X124547619Y-83242914D02*
X124500000Y-83433390D01*
X124500000Y-83433390D02*
X124500000Y-83576247D01*
X124500000Y-83576247D02*
X124547619Y-83766723D01*
X124547619Y-83766723D02*
X124595238Y-83861961D01*
X124595238Y-83861961D02*
X124690476Y-83957200D01*
X124690476Y-83957200D02*
X124833333Y-84004819D01*
X124833333Y-84004819D02*
X125071428Y-84004819D01*
X123642857Y-83338152D02*
X123642857Y-84004819D01*
X123880952Y-82957200D02*
X124119047Y-83671485D01*
X124119047Y-83671485D02*
X123500000Y-83671485D01*
X34071428Y-83481009D02*
X34404761Y-83481009D01*
X34404761Y-84004819D02*
X34404761Y-83004819D01*
X34404761Y-83004819D02*
X33928571Y-83004819D01*
X33547618Y-84004819D02*
X33547618Y-83004819D01*
X33071428Y-84004819D02*
X33071428Y-83004819D01*
X33071428Y-83004819D02*
X32833333Y-83004819D01*
X32833333Y-83004819D02*
X32690476Y-83052438D01*
X32690476Y-83052438D02*
X32595238Y-83147676D01*
X32595238Y-83147676D02*
X32547619Y-83242914D01*
X32547619Y-83242914D02*
X32500000Y-83433390D01*
X32500000Y-83433390D02*
X32500000Y-83576247D01*
X32500000Y-83576247D02*
X32547619Y-83766723D01*
X32547619Y-83766723D02*
X32595238Y-83861961D01*
X32595238Y-83861961D02*
X32690476Y-83957200D01*
X32690476Y-83957200D02*
X32833333Y-84004819D01*
X32833333Y-84004819D02*
X33071428Y-84004819D01*
X32166666Y-83004819D02*
X31547619Y-83004819D01*
X31547619Y-83004819D02*
X31880952Y-83385771D01*
X31880952Y-83385771D02*
X31738095Y-83385771D01*
X31738095Y-83385771D02*
X31642857Y-83433390D01*
X31642857Y-83433390D02*
X31595238Y-83481009D01*
X31595238Y-83481009D02*
X31547619Y-83576247D01*
X31547619Y-83576247D02*
X31547619Y-83814342D01*
X31547619Y-83814342D02*
X31595238Y-83909580D01*
X31595238Y-83909580D02*
X31642857Y-83957200D01*
X31642857Y-83957200D02*
X31738095Y-84004819D01*
X31738095Y-84004819D02*
X32023809Y-84004819D01*
X32023809Y-84004819D02*
X32119047Y-83957200D01*
X32119047Y-83957200D02*
X32166666Y-83909580D01*
X36642857Y-120084819D02*
X36976190Y-119608628D01*
X37214285Y-120084819D02*
X37214285Y-119084819D01*
X37214285Y-119084819D02*
X36833333Y-119084819D01*
X36833333Y-119084819D02*
X36738095Y-119132438D01*
X36738095Y-119132438D02*
X36690476Y-119180057D01*
X36690476Y-119180057D02*
X36642857Y-119275295D01*
X36642857Y-119275295D02*
X36642857Y-119418152D01*
X36642857Y-119418152D02*
X36690476Y-119513390D01*
X36690476Y-119513390D02*
X36738095Y-119561009D01*
X36738095Y-119561009D02*
X36833333Y-119608628D01*
X36833333Y-119608628D02*
X37214285Y-119608628D01*
X36261904Y-119180057D02*
X36214285Y-119132438D01*
X36214285Y-119132438D02*
X36119047Y-119084819D01*
X36119047Y-119084819D02*
X35880952Y-119084819D01*
X35880952Y-119084819D02*
X35785714Y-119132438D01*
X35785714Y-119132438D02*
X35738095Y-119180057D01*
X35738095Y-119180057D02*
X35690476Y-119275295D01*
X35690476Y-119275295D02*
X35690476Y-119370533D01*
X35690476Y-119370533D02*
X35738095Y-119513390D01*
X35738095Y-119513390D02*
X36309523Y-120084819D01*
X36309523Y-120084819D02*
X35690476Y-120084819D01*
X34738095Y-120084819D02*
X35309523Y-120084819D01*
X35023809Y-120084819D02*
X35023809Y-119084819D01*
X35023809Y-119084819D02*
X35119047Y-119227676D01*
X35119047Y-119227676D02*
X35214285Y-119322914D01*
X35214285Y-119322914D02*
X35309523Y-119370533D01*
X36642857Y-132234819D02*
X36976190Y-131758628D01*
X37214285Y-132234819D02*
X37214285Y-131234819D01*
X37214285Y-131234819D02*
X36833333Y-131234819D01*
X36833333Y-131234819D02*
X36738095Y-131282438D01*
X36738095Y-131282438D02*
X36690476Y-131330057D01*
X36690476Y-131330057D02*
X36642857Y-131425295D01*
X36642857Y-131425295D02*
X36642857Y-131568152D01*
X36642857Y-131568152D02*
X36690476Y-131663390D01*
X36690476Y-131663390D02*
X36738095Y-131711009D01*
X36738095Y-131711009D02*
X36833333Y-131758628D01*
X36833333Y-131758628D02*
X37214285Y-131758628D01*
X36261904Y-131330057D02*
X36214285Y-131282438D01*
X36214285Y-131282438D02*
X36119047Y-131234819D01*
X36119047Y-131234819D02*
X35880952Y-131234819D01*
X35880952Y-131234819D02*
X35785714Y-131282438D01*
X35785714Y-131282438D02*
X35738095Y-131330057D01*
X35738095Y-131330057D02*
X35690476Y-131425295D01*
X35690476Y-131425295D02*
X35690476Y-131520533D01*
X35690476Y-131520533D02*
X35738095Y-131663390D01*
X35738095Y-131663390D02*
X36309523Y-132234819D01*
X36309523Y-132234819D02*
X35690476Y-132234819D01*
X34833333Y-131568152D02*
X34833333Y-132234819D01*
X35071428Y-131187200D02*
X35309523Y-131901485D01*
X35309523Y-131901485D02*
X34690476Y-131901485D01*
X36642857Y-128184819D02*
X36976190Y-127708628D01*
X37214285Y-128184819D02*
X37214285Y-127184819D01*
X37214285Y-127184819D02*
X36833333Y-127184819D01*
X36833333Y-127184819D02*
X36738095Y-127232438D01*
X36738095Y-127232438D02*
X36690476Y-127280057D01*
X36690476Y-127280057D02*
X36642857Y-127375295D01*
X36642857Y-127375295D02*
X36642857Y-127518152D01*
X36642857Y-127518152D02*
X36690476Y-127613390D01*
X36690476Y-127613390D02*
X36738095Y-127661009D01*
X36738095Y-127661009D02*
X36833333Y-127708628D01*
X36833333Y-127708628D02*
X37214285Y-127708628D01*
X36261904Y-127280057D02*
X36214285Y-127232438D01*
X36214285Y-127232438D02*
X36119047Y-127184819D01*
X36119047Y-127184819D02*
X35880952Y-127184819D01*
X35880952Y-127184819D02*
X35785714Y-127232438D01*
X35785714Y-127232438D02*
X35738095Y-127280057D01*
X35738095Y-127280057D02*
X35690476Y-127375295D01*
X35690476Y-127375295D02*
X35690476Y-127470533D01*
X35690476Y-127470533D02*
X35738095Y-127613390D01*
X35738095Y-127613390D02*
X36309523Y-128184819D01*
X36309523Y-128184819D02*
X35690476Y-128184819D01*
X35357142Y-127184819D02*
X34738095Y-127184819D01*
X34738095Y-127184819D02*
X35071428Y-127565771D01*
X35071428Y-127565771D02*
X34928571Y-127565771D01*
X34928571Y-127565771D02*
X34833333Y-127613390D01*
X34833333Y-127613390D02*
X34785714Y-127661009D01*
X34785714Y-127661009D02*
X34738095Y-127756247D01*
X34738095Y-127756247D02*
X34738095Y-127994342D01*
X34738095Y-127994342D02*
X34785714Y-128089580D01*
X34785714Y-128089580D02*
X34833333Y-128137200D01*
X34833333Y-128137200D02*
X34928571Y-128184819D01*
X34928571Y-128184819D02*
X35214285Y-128184819D01*
X35214285Y-128184819D02*
X35309523Y-128137200D01*
X35309523Y-128137200D02*
X35357142Y-128089580D01*
X36642857Y-124134819D02*
X36976190Y-123658628D01*
X37214285Y-124134819D02*
X37214285Y-123134819D01*
X37214285Y-123134819D02*
X36833333Y-123134819D01*
X36833333Y-123134819D02*
X36738095Y-123182438D01*
X36738095Y-123182438D02*
X36690476Y-123230057D01*
X36690476Y-123230057D02*
X36642857Y-123325295D01*
X36642857Y-123325295D02*
X36642857Y-123468152D01*
X36642857Y-123468152D02*
X36690476Y-123563390D01*
X36690476Y-123563390D02*
X36738095Y-123611009D01*
X36738095Y-123611009D02*
X36833333Y-123658628D01*
X36833333Y-123658628D02*
X37214285Y-123658628D01*
X36261904Y-123230057D02*
X36214285Y-123182438D01*
X36214285Y-123182438D02*
X36119047Y-123134819D01*
X36119047Y-123134819D02*
X35880952Y-123134819D01*
X35880952Y-123134819D02*
X35785714Y-123182438D01*
X35785714Y-123182438D02*
X35738095Y-123230057D01*
X35738095Y-123230057D02*
X35690476Y-123325295D01*
X35690476Y-123325295D02*
X35690476Y-123420533D01*
X35690476Y-123420533D02*
X35738095Y-123563390D01*
X35738095Y-123563390D02*
X36309523Y-124134819D01*
X36309523Y-124134819D02*
X35690476Y-124134819D01*
X35309523Y-123230057D02*
X35261904Y-123182438D01*
X35261904Y-123182438D02*
X35166666Y-123134819D01*
X35166666Y-123134819D02*
X34928571Y-123134819D01*
X34928571Y-123134819D02*
X34833333Y-123182438D01*
X34833333Y-123182438D02*
X34785714Y-123230057D01*
X34785714Y-123230057D02*
X34738095Y-123325295D01*
X34738095Y-123325295D02*
X34738095Y-123420533D01*
X34738095Y-123420533D02*
X34785714Y-123563390D01*
X34785714Y-123563390D02*
X35357142Y-124134819D01*
X35357142Y-124134819D02*
X34738095Y-124134819D01*
D11*
%TO.C,J1*%
X164985600Y-155180700D02*
G75*
G02*
X164223600Y-155180700I-381000J0D01*
G01*
X164223600Y-155180700D02*
G75*
G02*
X164985600Y-155180700I381000J0D01*
G01*
D12*
%TO.C,C28*%
X54186252Y-87265000D02*
X53663748Y-87265000D01*
X54186252Y-88735000D02*
X53663748Y-88735000D01*
%TO.C,R21*%
X31960000Y-122000000D02*
X32730000Y-122000000D01*
X32730000Y-120630000D02*
X39270000Y-120630000D01*
X32730000Y-123370000D02*
X32730000Y-120630000D01*
X39270000Y-120630000D02*
X39270000Y-123370000D01*
X39270000Y-123370000D02*
X32730000Y-123370000D01*
X40040000Y-122000000D02*
X39270000Y-122000000D01*
%TO.C,R24*%
X31960000Y-134150000D02*
X32730000Y-134150000D01*
X32730000Y-132780000D02*
X39270000Y-132780000D01*
X32730000Y-135520000D02*
X32730000Y-132780000D01*
X39270000Y-132780000D02*
X39270000Y-135520000D01*
X39270000Y-135520000D02*
X32730000Y-135520000D01*
X40040000Y-134150000D02*
X39270000Y-134150000D01*
%TO.C,R23*%
X31960000Y-130100000D02*
X32730000Y-130100000D01*
X32730000Y-128730000D02*
X39270000Y-128730000D01*
X32730000Y-131470000D02*
X32730000Y-128730000D01*
X39270000Y-128730000D02*
X39270000Y-131470000D01*
X39270000Y-131470000D02*
X32730000Y-131470000D01*
X40040000Y-130100000D02*
X39270000Y-130100000D01*
%TO.C,R22*%
X31960000Y-126050000D02*
X32730000Y-126050000D01*
X32730000Y-124680000D02*
X39270000Y-124680000D01*
X32730000Y-127420000D02*
X32730000Y-124680000D01*
X39270000Y-124680000D02*
X39270000Y-127420000D01*
X39270000Y-127420000D02*
X32730000Y-127420000D01*
X40040000Y-126050000D02*
X39270000Y-126050000D01*
%TD*%
M02*
