%TF.GenerationSoftware,KiCad,Pcbnew,9.0.0*%
%TF.CreationDate,2025-05-12T01:47:31+10:00*%
%TF.ProjectId,Control_Unit,436f6e74-726f-46c5-9f55-6e69742e6b69,rev?*%
%TF.SameCoordinates,Original*%
%TF.FileFunction,Copper,L1,Top*%
%TF.FilePolarity,Positive*%
%FSLAX46Y46*%
G04 Gerber Fmt 4.6, Leading zero omitted, Abs format (unit mm)*
G04 Created by KiCad (PCBNEW 9.0.0) date 2025-05-12 01:47:31*
%MOMM*%
%LPD*%
G01*
G04 APERTURE LIST*
G04 Aperture macros list*
%AMRoundRect*
0 Rectangle with rounded corners*
0 $1 Rounding radius*
0 $2 $3 $4 $5 $6 $7 $8 $9 X,Y pos of 4 corners*
0 Add a 4 corners polygon primitive as box body*
4,1,4,$2,$3,$4,$5,$6,$7,$8,$9,$2,$3,0*
0 Add four circle primitives for the rounded corners*
1,1,$1+$1,$2,$3*
1,1,$1+$1,$4,$5*
1,1,$1+$1,$6,$7*
1,1,$1+$1,$8,$9*
0 Add four rect primitives between the rounded corners*
20,1,$1+$1,$2,$3,$4,$5,0*
20,1,$1+$1,$4,$5,$6,$7,0*
20,1,$1+$1,$6,$7,$8,$9,0*
20,1,$1+$1,$8,$9,$2,$3,0*%
G04 Aperture macros list end*
%TA.AperFunction,SMDPad,CuDef*%
%ADD10RoundRect,0.250000X0.337500X0.475000X-0.337500X0.475000X-0.337500X-0.475000X0.337500X-0.475000X0*%
%TD*%
%TA.AperFunction,ComponentPad*%
%ADD11C,0.810000*%
%TD*%
%TA.AperFunction,SMDPad,CuDef*%
%ADD12RoundRect,0.100000X-0.217500X-0.100000X0.217500X-0.100000X0.217500X0.100000X-0.217500X0.100000X0*%
%TD*%
%TA.AperFunction,ComponentPad*%
%ADD13C,1.600000*%
%TD*%
%TA.AperFunction,ComponentPad*%
%ADD14O,1.600000X1.600000*%
%TD*%
%TA.AperFunction,ComponentPad*%
%ADD15R,1.200000X3.000000*%
%TD*%
%TA.AperFunction,ComponentPad*%
%ADD16R,1.800000X1.800000*%
%TD*%
%TA.AperFunction,ComponentPad*%
%ADD17C,1.800000*%
%TD*%
%TA.AperFunction,ComponentPad*%
%ADD18R,1.700000X1.700000*%
%TD*%
%TA.AperFunction,ComponentPad*%
%ADD19O,1.700000X1.700000*%
%TD*%
%TA.AperFunction,ComponentPad*%
%ADD20C,3.000000*%
%TD*%
%TA.AperFunction,ComponentPad*%
%ADD21C,1.168400*%
%TD*%
%TA.AperFunction,SMDPad,CuDef*%
%ADD22C,3.000000*%
%TD*%
%TA.AperFunction,SMDPad,CuDef*%
%ADD23RoundRect,0.100000X0.100000X-0.217500X0.100000X0.217500X-0.100000X0.217500X-0.100000X-0.217500X0*%
%TD*%
%TA.AperFunction,ComponentPad*%
%ADD24R,1.050000X1.500000*%
%TD*%
%TA.AperFunction,ComponentPad*%
%ADD25O,1.050000X1.500000*%
%TD*%
%TA.AperFunction,SMDPad,CuDef*%
%ADD26RoundRect,0.250000X0.475000X-0.337500X0.475000X0.337500X-0.475000X0.337500X-0.475000X-0.337500X0*%
%TD*%
%TA.AperFunction,SMDPad,CuDef*%
%ADD27O,2.748280X1.998980*%
%TD*%
%TA.AperFunction,SMDPad,CuDef*%
%ADD28O,1.016000X2.032000*%
%TD*%
%TA.AperFunction,SMDPad,CuDef*%
%ADD29C,1.143000*%
%TD*%
%TA.AperFunction,ComponentPad*%
%ADD30R,1.905000X2.000000*%
%TD*%
%TA.AperFunction,ComponentPad*%
%ADD31O,1.905000X2.000000*%
%TD*%
%TA.AperFunction,SMDPad,CuDef*%
%ADD32RoundRect,0.075000X-0.700000X-0.075000X0.700000X-0.075000X0.700000X0.075000X-0.700000X0.075000X0*%
%TD*%
%TA.AperFunction,SMDPad,CuDef*%
%ADD33RoundRect,0.075000X-0.075000X-0.700000X0.075000X-0.700000X0.075000X0.700000X-0.075000X0.700000X0*%
%TD*%
%TA.AperFunction,SMDPad,CuDef*%
%ADD34RoundRect,0.250000X-0.475000X0.337500X-0.475000X-0.337500X0.475000X-0.337500X0.475000X0.337500X0*%
%TD*%
%TA.AperFunction,SMDPad,CuDef*%
%ADD35R,1.600000X0.700000*%
%TD*%
%TA.AperFunction,ComponentPad*%
%ADD36C,1.500000*%
%TD*%
%TA.AperFunction,SMDPad,CuDef*%
%ADD37R,1.500000X1.200000*%
%TD*%
%TA.AperFunction,SMDPad,CuDef*%
%ADD38R,2.200000X1.200000*%
%TD*%
%TA.AperFunction,SMDPad,CuDef*%
%ADD39R,1.500000X1.600000*%
%TD*%
%TA.AperFunction,SMDPad,CuDef*%
%ADD40R,2.000000X1.900000*%
%TD*%
%TA.AperFunction,ComponentPad*%
%ADD41R,1.498600X1.498600*%
%TD*%
%TA.AperFunction,ComponentPad*%
%ADD42C,1.498600*%
%TD*%
%TA.AperFunction,ComponentPad*%
%ADD43C,1.308000*%
%TD*%
%TA.AperFunction,ComponentPad*%
%ADD44R,1.308000X1.308000*%
%TD*%
%TA.AperFunction,ComponentPad*%
%ADD45C,2.362200*%
%TD*%
%TA.AperFunction,ViaPad*%
%ADD46C,0.600000*%
%TD*%
%TA.AperFunction,Conductor*%
%ADD47C,0.200000*%
%TD*%
G04 APERTURE END LIST*
D10*
%TO.P,C12,1*%
%TO.N,Btn_Up*%
X140749000Y-155638500D03*
%TO.P,C12,2*%
%TO.N,GND*%
X138674000Y-155638500D03*
%TD*%
D11*
%TO.P,Y1,1*%
%TO.N,Net-(U1-PC14)*%
X111051500Y-114478500D03*
%TO.P,Y1,2*%
%TO.N,Net-(U1-PC15)*%
X111051500Y-115648500D03*
%TD*%
D10*
%TO.P,C14,1*%
%TO.N,Btn_Left*%
X191829000Y-151638500D03*
%TO.P,C14,2*%
%TO.N,GND*%
X189754000Y-151638500D03*
%TD*%
D12*
%TO.P,C8,1*%
%TO.N,GND*%
X100496500Y-113500000D03*
%TO.P,C8,2*%
%TO.N,Net-(U1-PC14)*%
X101311500Y-113500000D03*
%TD*%
D13*
%TO.P,R9,1*%
%TO.N,Net-(R9-Pad1)*%
X176749000Y-156500000D03*
D14*
%TO.P,R9,2*%
%TO.N,+3V3*%
X186909000Y-156500000D03*
%TD*%
D15*
%TO.P,U4,1,VSS*%
%TO.N,GND*%
X137130000Y-95400000D03*
%TO.P,U4,2,VDD*%
%TO.N,+5V*%
X134590000Y-95400000D03*
%TO.P,U4,3,V0*%
%TO.N,Net-(U4-V0)*%
X132050000Y-95400000D03*
%TO.P,U4,4,RS*%
%TO.N,LCD_RS*%
X129510000Y-95400000D03*
%TO.P,U4,5,R/W*%
%TO.N,LCD_R{slash}W*%
X126970000Y-95400000D03*
%TO.P,U4,6,E*%
%TO.N,LCD_E*%
X124430000Y-95400000D03*
%TO.P,U4,7,DB0*%
%TO.N,unconnected-(U4-DB0-Pad7)*%
X121890000Y-95400000D03*
%TO.P,U4,8,DB1*%
%TO.N,unconnected-(U4-DB1-Pad8)*%
X119350000Y-95400000D03*
%TO.P,U4,9,DB2*%
%TO.N,unconnected-(U4-DB2-Pad9)*%
X116810000Y-95400000D03*
%TO.P,U4,10,DB3*%
%TO.N,unconnected-(U4-DB3-Pad10)*%
X114270000Y-95400000D03*
%TO.P,U4,11,DB4*%
%TO.N,unconnected-(U4-DB4-Pad11)*%
X111730000Y-95400000D03*
%TO.P,U4,12,DB5*%
%TO.N,unconnected-(U4-DB5-Pad12)*%
X109190000Y-95400000D03*
%TO.P,U4,13,DB6*%
%TO.N,unconnected-(U4-DB6-Pad13)*%
X106650000Y-95400000D03*
%TO.P,U4,14,DB7*%
%TO.N,unconnected-(U4-DB7-Pad14)*%
X104110000Y-95400000D03*
%TO.P,U4,15,PSB*%
%TO.N,GND*%
X101570000Y-95400000D03*
%TO.P,U4,16,NC*%
%TO.N,unconnected-(U4-NC-Pad16)*%
X99030000Y-95400000D03*
%TO.P,U4,17,/RST*%
%TO.N,LCD_RST*%
X96490000Y-95400000D03*
%TO.P,U4,18,Vout*%
%TO.N,unconnected-(U4-Vout-Pad18)*%
X93950000Y-95400000D03*
%TO.P,U4,19,LEDA*%
%TO.N,+5V*%
X91410000Y-95400000D03*
%TO.P,U4,20,LEDK*%
%TO.N,GND*%
X88870000Y-95400000D03*
%TD*%
D16*
%TO.P,U9,1,K*%
%TO.N,+3V3*%
X184829000Y-128138500D03*
D17*
%TO.P,U9,2,A*%
%TO.N,/Optical Link/FD_AN*%
X184829000Y-133238500D03*
D16*
%TO.P,U9,3,K*%
%TO.N,/Optical Link/LED_CA*%
X180829000Y-130638500D03*
D17*
%TO.P,U9,4,A*%
%TO.N,/Optical Link/LED_AN*%
X188829000Y-130638500D03*
%TD*%
D13*
%TO.P,R20,1*%
%TO.N,Net-(Q1-E)*%
X152669000Y-112138500D03*
D14*
%TO.P,R20,2*%
%TO.N,Net-(Q3-B)*%
X162829000Y-112138500D03*
%TD*%
D18*
%TO.P,J2,1,Pin_1*%
%TO.N,GND*%
X169829000Y-132718500D03*
D19*
%TO.P,J2,2,Pin_2*%
%TO.N,/Optical Link/LED_CA*%
X169829000Y-130178500D03*
%TO.P,J2,3,Pin_3*%
%TO.N,Net-(J2-Pin_3)*%
X169829000Y-127638500D03*
%TD*%
D10*
%TO.P,C13,1*%
%TO.N,Btn_Down*%
X140749000Y-147638500D03*
%TO.P,C13,2*%
%TO.N,GND*%
X138674000Y-147638500D03*
%TD*%
D16*
%TO.P,LED1,1,K*%
%TO.N,GND*%
X202000000Y-151540000D03*
D17*
%TO.P,LED1,2,A*%
%TO.N,Net-(LED1-A)*%
X202000000Y-149000000D03*
%TD*%
D20*
%TO.P,TP2,1,1*%
%TO.N,+3V3*%
X202000000Y-129000000D03*
%TD*%
D13*
%TO.P,R18,1*%
%TO.N,/Optical Link/FD_AN*%
X148329000Y-120138500D03*
D14*
%TO.P,R18,2*%
%TO.N,Net-(Q1-B)*%
X148329000Y-109978500D03*
%TD*%
D13*
%TO.P,R5,1*%
%TO.N,/Joy and Sd and LCD/Button_Down*%
X154080000Y-147000000D03*
D14*
%TO.P,R5,2*%
%TO.N,Btn_Down*%
X143920000Y-147000000D03*
%TD*%
D13*
%TO.P,R21,1*%
%TO.N,RX_OPTICAL*%
X168329000Y-120298500D03*
D14*
%TO.P,R21,2*%
%TO.N,+3V3*%
X168329000Y-110138500D03*
%TD*%
D13*
%TO.P,R14,1*%
%TO.N,TX_OPTICAL*%
X158329000Y-135718500D03*
D14*
%TO.P,R14,2*%
%TO.N,Net-(J2-Pin_3)*%
X158329000Y-125558500D03*
%TD*%
D13*
%TO.P,R6,1*%
%TO.N,/Joy and Sd and LCD/Button_Left*%
X176749000Y-151638500D03*
D14*
%TO.P,R6,2*%
%TO.N,Btn_Left*%
X186909000Y-151638500D03*
%TD*%
D13*
%TO.P,R15,1*%
%TO.N,TX_OPTICAL*%
X153329000Y-135718500D03*
D14*
%TO.P,R15,2*%
%TO.N,Net-(Q2-G)*%
X153329000Y-125558500D03*
%TD*%
D20*
%TO.P,TP1,1,1*%
%TO.N,+5V*%
X126829000Y-158138500D03*
%TD*%
D21*
%TO.P,J1,1,VTG*%
%TO.N,+3V3*%
X80329000Y-108868500D03*
%TO.P,J1,2,GND*%
%TO.N,GND*%
X80329000Y-110138500D03*
%TO.P,J1,3,GND*%
X79059000Y-108868500D03*
%TO.P,J1,4,KEY*%
%TO.N,unconnected-(J1-KEY-Pad4)*%
X79059000Y-110138500D03*
%TO.P,J1,5,GND*%
%TO.N,GND*%
X77789000Y-108868500D03*
%TO.P,J1,6,RST*%
%TO.N,JLink_SWDIO*%
X77789000Y-110138500D03*
%TO.P,J1,7,NC*%
%TO.N,JLink_CLK*%
X76519000Y-108868500D03*
%TO.P,J1,8,SWO*%
%TO.N,JLink_SW0*%
X76519000Y-110138500D03*
%TO.P,J1,9,CLK*%
%TO.N,unconnected-(J1-CLK-Pad9)*%
X75249000Y-108868500D03*
%TO.P,J1,10,SWDIO*%
%TO.N,JLink_RST*%
X75249000Y-110138500D03*
%TD*%
D22*
%TO.P,FID2,*%
%TO.N,*%
X204000000Y-158500000D03*
%TD*%
D23*
%TO.P,C7,1*%
%TO.N,+3V3*%
X134500000Y-106971000D03*
%TO.P,C7,2*%
%TO.N,GND*%
X134500000Y-106156000D03*
%TD*%
D24*
%TO.P,Q3,1,E*%
%TO.N,GND*%
X163369000Y-118638500D03*
D25*
%TO.P,Q3,2,B*%
%TO.N,Net-(Q3-B)*%
X162099000Y-118638500D03*
%TO.P,Q3,3,C*%
%TO.N,RX_OPTICAL*%
X160829000Y-118638500D03*
%TD*%
D26*
%TO.P,C4,1*%
%TO.N,+3V3*%
X120500000Y-107638500D03*
%TO.P,C4,2*%
%TO.N,GND*%
X120500000Y-105563500D03*
%TD*%
D12*
%TO.P,C9,1*%
%TO.N,GND*%
X100496500Y-116500000D03*
%TO.P,C9,2*%
%TO.N,Net-(U1-PC15)*%
X101311500Y-116500000D03*
%TD*%
D18*
%TO.P,J5,1,Pin_1*%
%TO.N,+5V*%
X164329000Y-125598500D03*
D19*
%TO.P,J5,2,Pin_2*%
%TO.N,+3V3*%
X164329000Y-128138500D03*
%TO.P,J5,3,Pin_3*%
%TO.N,TX_OPTICAL*%
X164329000Y-130678500D03*
%TO.P,J5,4,Pin_4*%
%TO.N,RX_OPTICAL*%
X164329000Y-133218500D03*
%TO.P,J5,5,Pin_5*%
%TO.N,GND*%
X164329000Y-135758500D03*
%TD*%
D13*
%TO.P,R12,1*%
%TO.N,Net-(LED1-A)*%
X202000000Y-144580000D03*
D14*
%TO.P,R12,2*%
%TO.N,+3V3*%
X202000000Y-134420000D03*
%TD*%
D27*
%TO.P,U2,1,PA02_A0_D0*%
%TO.N,unconnected-(U2-PA02_A0_D0-Pad1)*%
X109785080Y-153443420D03*
%TO.P,U2,2,PA4_A1_D1*%
%TO.N,unconnected-(U2-PA4_A1_D1-Pad2)*%
X109785080Y-150903420D03*
%TO.P,U2,3,PA10_A2_D2*%
%TO.N,unconnected-(U2-PA10_A2_D2-Pad3)*%
X109785080Y-148363420D03*
%TO.P,U2,4,PA11_A3_D3*%
%TO.N,unconnected-(U2-PA11_A3_D3-Pad4)*%
X109785080Y-145823420D03*
%TO.P,U2,5,PA8_A4_D4_SDA*%
%TO.N,unconnected-(U2-PA8_A4_D4_SDA-Pad5)*%
X109785080Y-143283420D03*
%TO.P,U2,6,PA9_A5_D5_SCL*%
%TO.N,unconnected-(U2-PA9_A5_D5_SCL-Pad6)*%
X109785080Y-140743420D03*
%TO.P,U2,7,PB08_A6_D6_TX*%
%TO.N,STM_TX*%
X109785080Y-138203420D03*
%TO.P,U2,8,PB09_A7_D7_RX*%
%TO.N,STM_RX*%
X93620520Y-138203420D03*
%TO.P,U2,9,PA7_A8_D8_SCK*%
%TO.N,unconnected-(U2-PA7_A8_D8_SCK-Pad9)*%
X93620520Y-140743420D03*
%TO.P,U2,10,PA5_A9_D9_MISO*%
%TO.N,unconnected-(U2-PA5_A9_D9_MISO-Pad10)*%
X93620520Y-143283420D03*
%TO.P,U2,11,PA6_A10_D10_MOSI*%
%TO.N,unconnected-(U2-PA6_A10_D10_MOSI-Pad11)*%
X93620520Y-145823420D03*
%TO.P,U2,12,3V3*%
%TO.N,Net-(U2-3V3)*%
X93620520Y-148363420D03*
%TO.P,U2,13,GND*%
%TO.N,GND*%
X93620520Y-150903420D03*
%TO.P,U2,14,5V*%
%TO.N,Net-(SW1-Pad1)*%
X93620520Y-153443420D03*
D28*
%TO.P,U2,15,5V*%
%TO.N,unconnected-(U2-5V-Pad15)*%
X102918200Y-137125600D03*
%TO.P,U2,16,GND*%
%TO.N,unconnected-(U2-GND-Pad16)*%
X100368200Y-137125600D03*
D29*
%TO.P,U2,17,PA31_SWDIO*%
%TO.N,unconnected-(U2-PA31_SWDIO-Pad17)*%
X102919397Y-154129787D03*
%TO.P,U2,18,PA30_SWCLK*%
%TO.N,unconnected-(U2-PA30_SWCLK-Pad18)*%
X100379397Y-154129787D03*
%TO.P,U2,19,RESET*%
%TO.N,unconnected-(U2-RESET-Pad19)*%
X102919397Y-151589787D03*
%TO.P,U2,20,GND*%
%TO.N,unconnected-(U2-GND-Pad20)*%
X100379397Y-151589787D03*
%TD*%
D30*
%TO.P,Q2,1,G*%
%TO.N,Net-(Q2-G)*%
X155249000Y-102638500D03*
D31*
%TO.P,Q2,2,D*%
%TO.N,Net-(Q2-D)*%
X157789000Y-102638500D03*
%TO.P,Q2,3,S*%
%TO.N,+3V3*%
X160329000Y-102638500D03*
%TD*%
D13*
%TO.P,R16,1*%
%TO.N,Net-(Q2-G)*%
X148000000Y-125555300D03*
D14*
%TO.P,R16,2*%
%TO.N,+5V*%
X148000000Y-135715300D03*
%TD*%
D32*
%TO.P,U1,1,VBAT*%
%TO.N,Net-(U1-VBAT)*%
X113904000Y-114063500D03*
%TO.P,U1,2,PC13*%
%TO.N,unconnected-(U1-PC13-Pad2)*%
X113904000Y-114563500D03*
%TO.P,U1,3,PC14*%
%TO.N,Net-(U1-PC14)*%
X113904000Y-115063500D03*
%TO.P,U1,4,PC15*%
%TO.N,Net-(U1-PC15)*%
X113904000Y-115563500D03*
%TO.P,U1,5,PH0*%
%TO.N,unconnected-(U1-PH0-Pad5)*%
X113904000Y-116063500D03*
%TO.P,U1,6,PH1*%
%TO.N,unconnected-(U1-PH1-Pad6)*%
X113904000Y-116563500D03*
%TO.P,U1,7,NRST*%
%TO.N,JLink_RST*%
X113904000Y-117063500D03*
%TO.P,U1,8,PC0*%
%TO.N,unconnected-(U1-PC0-Pad8)*%
X113904000Y-117563500D03*
%TO.P,U1,9,PC1*%
%TO.N,unconnected-(U1-PC1-Pad9)*%
X113904000Y-118063500D03*
%TO.P,U1,10,PC2*%
%TO.N,SD_D0*%
X113904000Y-118563500D03*
%TO.P,U1,11,PC3*%
%TO.N,SD_CH0*%
X113904000Y-119063500D03*
%TO.P,U1,12,VSSA*%
%TO.N,GND*%
X113904000Y-119563500D03*
%TO.P,U1,13,VDDA*%
%TO.N,+3V3*%
X113904000Y-120063500D03*
%TO.P,U1,14,PA0*%
%TO.N,unconnected-(U1-PA0-Pad14)*%
X113904000Y-120563500D03*
%TO.P,U1,15,PA1*%
%TO.N,LCD_E*%
X113904000Y-121063500D03*
%TO.P,U1,16,PA2*%
%TO.N,TX_OPTICAL*%
X113904000Y-121563500D03*
D33*
%TO.P,U1,17,PA3*%
%TO.N,RX_OPTICAL*%
X115829000Y-123488500D03*
%TO.P,U1,18,VSS*%
%TO.N,GND*%
X116329000Y-123488500D03*
%TO.P,U1,19,VDD*%
%TO.N,+3V3*%
X116829000Y-123488500D03*
%TO.P,U1,20,PA4*%
%TO.N,LCD_RST*%
X117329000Y-123488500D03*
%TO.P,U1,21,PA5*%
%TO.N,LCD_RS*%
X117829000Y-123488500D03*
%TO.P,U1,22,PA6*%
%TO.N,unconnected-(U1-PA6-Pad22)*%
X118329000Y-123488500D03*
%TO.P,U1,23,PA7*%
%TO.N,LCD_R{slash}W*%
X118829000Y-123488500D03*
%TO.P,U1,24,PC4*%
%TO.N,unconnected-(U1-PC4-Pad24)*%
X119329000Y-123488500D03*
%TO.P,U1,25,PC5*%
%TO.N,SD_CS*%
X119829000Y-123488500D03*
%TO.P,U1,26,PB0*%
%TO.N,unconnected-(U1-PB0-Pad26)*%
X120329000Y-123488500D03*
%TO.P,U1,27,PB1*%
%TO.N,SAMPLING_LED*%
X120829000Y-123488500D03*
%TO.P,U1,28,PB2*%
%TO.N,unconnected-(U1-PB2-Pad28)*%
X121329000Y-123488500D03*
%TO.P,U1,29,PB10*%
%TO.N,SD_CLK*%
X121829000Y-123488500D03*
%TO.P,U1,30,PB11*%
%TO.N,unconnected-(U1-PB11-Pad30)*%
X122329000Y-123488500D03*
%TO.P,U1,31,VSS*%
%TO.N,GND*%
X122829000Y-123488500D03*
%TO.P,U1,32,VDD*%
%TO.N,+3V3*%
X123329000Y-123488500D03*
D32*
%TO.P,U1,33,PB12*%
%TO.N,Btn_Right*%
X125254000Y-121563500D03*
%TO.P,U1,34,PB13*%
%TO.N,Btn_Left*%
X125254000Y-121063500D03*
%TO.P,U1,35,PB14*%
%TO.N,Btn_Down*%
X125254000Y-120563500D03*
%TO.P,U1,36,PB15*%
%TO.N,Btn_Up*%
X125254000Y-120063500D03*
%TO.P,U1,37,PC6*%
%TO.N,Btn_Push*%
X125254000Y-119563500D03*
%TO.P,U1,38,PC7*%
%TO.N,unconnected-(U1-PC7-Pad38)*%
X125254000Y-119063500D03*
%TO.P,U1,39,PC8*%
%TO.N,unconnected-(U1-PC8-Pad39)*%
X125254000Y-118563500D03*
%TO.P,U1,40,PC9*%
%TO.N,unconnected-(U1-PC9-Pad40)*%
X125254000Y-118063500D03*
%TO.P,U1,41,PA8*%
%TO.N,unconnected-(U1-PA8-Pad41)*%
X125254000Y-117563500D03*
%TO.P,U1,42,PA9*%
%TO.N,STM_TX*%
X125254000Y-117063500D03*
%TO.P,U1,43,PA10*%
%TO.N,STM_RX*%
X125254000Y-116563500D03*
%TO.P,U1,44,PA11*%
%TO.N,unconnected-(U1-PA11-Pad44)*%
X125254000Y-116063500D03*
%TO.P,U1,45,PA12*%
%TO.N,unconnected-(U1-PA12-Pad45)*%
X125254000Y-115563500D03*
%TO.P,U1,46,PA13*%
%TO.N,JLink_SWDIO*%
X125254000Y-115063500D03*
%TO.P,U1,47,VSS*%
%TO.N,GND*%
X125254000Y-114563500D03*
%TO.P,U1,48,VDD*%
%TO.N,+3V3*%
X125254000Y-114063500D03*
D33*
%TO.P,U1,49,PA14*%
%TO.N,JLink_CLK*%
X123329000Y-112138500D03*
%TO.P,U1,50,PA15*%
%TO.N,unconnected-(U1-PA15-Pad50)*%
X122829000Y-112138500D03*
%TO.P,U1,51,PC10*%
%TO.N,unconnected-(U1-PC10-Pad51)*%
X122329000Y-112138500D03*
%TO.P,U1,52,PC11*%
%TO.N,unconnected-(U1-PC11-Pad52)*%
X121829000Y-112138500D03*
%TO.P,U1,53,PC12*%
%TO.N,unconnected-(U1-PC12-Pad53)*%
X121329000Y-112138500D03*
%TO.P,U1,54,PD2*%
%TO.N,unconnected-(U1-PD2-Pad54)*%
X120829000Y-112138500D03*
%TO.P,U1,55,PB3*%
%TO.N,JLink_SW0*%
X120329000Y-112138500D03*
%TO.P,U1,56,PB4*%
%TO.N,unconnected-(U1-PB4-Pad56)*%
X119829000Y-112138500D03*
%TO.P,U1,57,PB5*%
%TO.N,unconnected-(U1-PB5-Pad57)*%
X119329000Y-112138500D03*
%TO.P,U1,58,PB6*%
%TO.N,unconnected-(U1-PB6-Pad58)*%
X118829000Y-112138500D03*
%TO.P,U1,59,PB7*%
%TO.N,unconnected-(U1-PB7-Pad59)*%
X118329000Y-112138500D03*
%TO.P,U1,60,PH3*%
%TO.N,Net-(U1-PH3)*%
X117829000Y-112138500D03*
%TO.P,U1,61,PB8*%
%TO.N,unconnected-(U1-PB8-Pad61)*%
X117329000Y-112138500D03*
%TO.P,U1,62,PB9*%
%TO.N,unconnected-(U1-PB9-Pad62)*%
X116829000Y-112138500D03*
%TO.P,U1,63,VSS*%
%TO.N,GND*%
X116329000Y-112138500D03*
%TO.P,U1,64,VDD*%
%TO.N,+3V3*%
X115829000Y-112138500D03*
%TD*%
D34*
%TO.P,C17,1*%
%TO.N,Net-(C17-Pad1)*%
X72000000Y-101925000D03*
%TO.P,C17,2*%
%TO.N,JLink_RST*%
X72000000Y-104000000D03*
%TD*%
D26*
%TO.P,C2,1*%
%TO.N,+3V3*%
X113500000Y-107638500D03*
%TO.P,C2,2*%
%TO.N,GND*%
X113500000Y-105563500D03*
%TD*%
D35*
%TO.P,U3,1,DAT2/X*%
%TO.N,unconnected-(U3-DAT2{slash}X-Pad1)*%
X84829000Y-123838500D03*
%TO.P,U3,2,DAT3/CS*%
%TO.N,SD_CS*%
X84829000Y-122738500D03*
%TO.P,U3,3,CH0/D1*%
%TO.N,SD_CH0*%
X84829000Y-121638500D03*
%TO.P,U3,4,VDD*%
%TO.N,+3V3*%
X84829000Y-120538500D03*
%TO.P,U3,5,CLK*%
%TO.N,SD_CLK*%
X84829000Y-119438500D03*
%TO.P,U3,6,VSS*%
%TO.N,GND*%
X84829000Y-118338500D03*
%TO.P,U3,7,DAT0/D0*%
%TO.N,SD_D0*%
X84829000Y-117238500D03*
%TO.P,U3,8,DAT1/X*%
%TO.N,unconnected-(U3-DAT1{slash}X-Pad8)*%
X84829000Y-116138500D03*
D36*
%TO.P,U3,10*%
%TO.N,N/C*%
X73829000Y-116688500D03*
%TO.P,U3,11*%
X73829000Y-124688500D03*
D35*
%TO.P,U3,Cd,CD*%
%TO.N,unconnected-(U3-CD-PadCd)*%
X84829000Y-115038500D03*
D37*
%TO.P,U3,GND*%
%TO.N,N/C*%
X83829000Y-113838500D03*
D38*
X74229000Y-113838500D03*
D39*
X83829000Y-128488500D03*
D38*
X74229000Y-129388500D03*
%TD*%
D13*
%TO.P,R10,1*%
%TO.N,+5V*%
X138989000Y-88638500D03*
D14*
%TO.P,R10,2*%
%TO.N,Net-(U4-V0)*%
X128829000Y-88638500D03*
%TD*%
D40*
%TO.P,SW2,1*%
%TO.N,Net-(R9-Pad1)*%
X172749000Y-155638500D03*
%TO.P,SW2,2*%
%TO.N,/Joy and Sd and LCD/Button_Left*%
X172749000Y-151638500D03*
%TO.P,SW2,3*%
%TO.N,/Joy and Sd and LCD/Button_Push*%
X172749000Y-147638500D03*
%TO.P,SW2,4*%
%TO.N,/Joy and Sd and LCD/Button_Up*%
X157749000Y-155638500D03*
%TO.P,SW2,5*%
%TO.N,/Joy and Sd and LCD/Button_Right*%
X157749000Y-151638500D03*
%TO.P,SW2,6*%
%TO.N,/Joy and Sd and LCD/Button_Down*%
X157749000Y-147638500D03*
%TD*%
D10*
%TO.P,C16,1*%
%TO.N,Btn_Push*%
X191904000Y-147638500D03*
%TO.P,C16,2*%
%TO.N,GND*%
X189829000Y-147638500D03*
%TD*%
D26*
%TO.P,C3,1*%
%TO.N,+3V3*%
X117000000Y-107638500D03*
%TO.P,C3,2*%
%TO.N,GND*%
X117000000Y-105563500D03*
%TD*%
D16*
%TO.P,LED2,1,K*%
%TO.N,GND*%
X116960000Y-155138500D03*
D17*
%TO.P,LED2,2,A*%
%TO.N,Net-(LED2-A)*%
X119500000Y-155138500D03*
%TD*%
D10*
%TO.P,C15,1*%
%TO.N,Btn_Right*%
X140711500Y-151638500D03*
%TO.P,C15,2*%
%TO.N,GND*%
X138636500Y-151638500D03*
%TD*%
%TO.P,C10,1*%
%TO.N,+5V*%
X97500000Y-132500000D03*
%TO.P,C10,2*%
%TO.N,GND*%
X95425000Y-132500000D03*
%TD*%
D24*
%TO.P,Q1,1,E*%
%TO.N,Net-(Q1-E)*%
X153289000Y-119138500D03*
D25*
%TO.P,Q1,2,B*%
%TO.N,Net-(Q1-B)*%
X154559000Y-119138500D03*
%TO.P,Q1,3,C*%
%TO.N,+3V3*%
X155829000Y-119138500D03*
%TD*%
D13*
%TO.P,R8,1*%
%TO.N,/Joy and Sd and LCD/Button_Push*%
X176749000Y-147000000D03*
D14*
%TO.P,R8,2*%
%TO.N,Btn_Push*%
X186909000Y-147000000D03*
%TD*%
D13*
%TO.P,R22,1*%
%TO.N,GND*%
X112725200Y-88620600D03*
D14*
%TO.P,R22,2*%
%TO.N,Net-(U1-PH3)*%
X122885200Y-88620600D03*
%TD*%
D26*
%TO.P,C6,1*%
%TO.N,+3V3*%
X127500000Y-107500000D03*
%TO.P,C6,2*%
%TO.N,GND*%
X127500000Y-105425000D03*
%TD*%
D23*
%TO.P,C1,1*%
%TO.N,+3V3*%
X131904000Y-106971000D03*
%TO.P,C1,2*%
%TO.N,GND*%
X131904000Y-106156000D03*
%TD*%
D41*
%TO.P,SW3,1,1*%
%TO.N,Net-(C17-Pad1)*%
X74673499Y-100351499D03*
D42*
%TO.P,SW3,2,2*%
X81173500Y-100351499D03*
%TO.P,SW3,3,3*%
%TO.N,JLink_RST*%
X74673499Y-104851500D03*
%TO.P,SW3,4,4*%
X81173500Y-104851500D03*
%TD*%
D18*
%TO.P,J4,1,Pin_1*%
%TO.N,+3V3*%
X188409000Y-140638500D03*
D19*
%TO.P,J4,2,Pin_2*%
%TO.N,/Optical Link/FD_AN*%
X185869000Y-140638500D03*
%TO.P,J4,3,Pin_3*%
%TO.N,/Optical Link/LED_CA*%
X183329000Y-140638500D03*
%TO.P,J4,4,Pin_4*%
%TO.N,/Optical Link/LED_AN*%
X180789000Y-140638500D03*
%TD*%
D13*
%TO.P,R17,1*%
%TO.N,Net-(Q2-D)*%
X188669000Y-115138500D03*
D14*
%TO.P,R17,2*%
%TO.N,Net-(J3-Pin_1)*%
X198829000Y-115138500D03*
%TD*%
D43*
%TO.P,D1,A*%
%TO.N,Net-(D1-PadA)*%
X99956200Y-132912200D03*
D44*
%TO.P,D1,C*%
%TO.N,+5V*%
X109236200Y-132912200D03*
%TD*%
D13*
%TO.P,R4,1*%
%TO.N,/Joy and Sd and LCD/Button_Up*%
X153834000Y-156500000D03*
D14*
%TO.P,R4,2*%
%TO.N,Btn_Up*%
X143674000Y-156500000D03*
%TD*%
D45*
%TO.P,SW1,1,1*%
%TO.N,Net-(SW1-Pad1)*%
X80380000Y-152338500D03*
%TO.P,SW1,2,2*%
%TO.N,Net-(U2-3V3)*%
X80380000Y-145988500D03*
%TO.P,SW1,3,3*%
%TO.N,unconnected-(SW1-Pad3)*%
X80380000Y-139638500D03*
%TO.P,SW1,4,4*%
%TO.N,+3V3*%
X88000000Y-152338500D03*
%TO.P,SW1,5,5*%
%TO.N,Net-(D1-PadA)*%
X88000000Y-145988500D03*
%TO.P,SW1,6,6*%
%TO.N,unconnected-(SW1-Pad6)*%
X88000000Y-139638500D03*
%TD*%
D22*
%TO.P,FID3,*%
%TO.N,*%
X72500000Y-158500000D03*
%TD*%
D13*
%TO.P,R13,1*%
%TO.N,Net-(LED2-A)*%
X119000000Y-148718500D03*
D14*
%TO.P,R13,2*%
%TO.N,SAMPLING_LED*%
X119000000Y-138558500D03*
%TD*%
D10*
%TO.P,C11,1*%
%TO.N,+3V3*%
X97500000Y-128500000D03*
%TO.P,C11,2*%
%TO.N,GND*%
X95425000Y-128500000D03*
%TD*%
D13*
%TO.P,R19,1*%
%TO.N,GND*%
X162989000Y-107500000D03*
D14*
%TO.P,R19,2*%
%TO.N,Net-(Q1-E)*%
X152829000Y-107500000D03*
%TD*%
D26*
%TO.P,C5,1*%
%TO.N,+3V3*%
X124000000Y-107500000D03*
%TO.P,C5,2*%
%TO.N,GND*%
X124000000Y-105425000D03*
%TD*%
D22*
%TO.P,FID1,*%
%TO.N,*%
X203500000Y-29000000D03*
%TD*%
D13*
%TO.P,R11,1*%
%TO.N,Net-(C17-Pad1)*%
X72500000Y-97080000D03*
D14*
%TO.P,R11,2*%
%TO.N,GND*%
X72500000Y-86920000D03*
%TD*%
D18*
%TO.P,J3,1,Pin_1*%
%TO.N,Net-(J3-Pin_1)*%
X190749000Y-120138500D03*
D19*
%TO.P,J3,2,Pin_2*%
%TO.N,/Optical Link/LED_AN*%
X193289000Y-120138500D03*
%TO.P,J3,3,Pin_3*%
%TO.N,+3.3V*%
X195829000Y-120138500D03*
%TD*%
D13*
%TO.P,R7,1*%
%TO.N,/Joy and Sd and LCD/Button_Right*%
X153754000Y-151638500D03*
D14*
%TO.P,R7,2*%
%TO.N,Btn_Right*%
X143594000Y-151638500D03*
%TD*%
D46*
%TO.N,GND*%
X101570000Y-110950600D03*
X82152500Y-116001500D03*
%TO.N,+3V3*%
X86129200Y-120538500D03*
X90581300Y-106717000D03*
%TO.N,Btn_Up*%
X132155300Y-125658700D03*
%TO.N,JLink_SWDIO*%
X116404100Y-115063500D03*
X107126400Y-109220200D03*
%TO.N,TX_OPTICAL*%
X115141100Y-122593000D03*
%TO.N,RX_OPTICAL*%
X116216700Y-122112400D03*
%TO.N,LCD_E*%
X115778100Y-120084400D03*
%TO.N,LCD_R{slash}W*%
X120341000Y-120287000D03*
%TO.N,STM_RX*%
X110565900Y-133330700D03*
X120460400Y-116563500D03*
%TO.N,LCD_RST*%
X112302900Y-122581500D03*
%TO.N,Net-(U1-VBAT)*%
X114178400Y-113388200D03*
%TO.N,LCD_RS*%
X119698800Y-120921600D03*
%TO.N,Net-(U1-PH3)*%
X118344700Y-110853100D03*
%TD*%
D47*
%TO.N,GND*%
X82190000Y-86920000D02*
X72500000Y-86920000D01*
X88870000Y-93600000D02*
X82190000Y-86920000D01*
X137130000Y-94500000D02*
X137130000Y-103526000D01*
X88870000Y-94500000D02*
X88870000Y-93699900D01*
X115759900Y-155138500D02*
X108612400Y-155138500D01*
X159041200Y-117588400D02*
X156007900Y-120621700D01*
X77789000Y-108868500D02*
X79059000Y-108868500D01*
X176183100Y-141971100D02*
X169829000Y-135617000D01*
X120500000Y-105563500D02*
X123861500Y-105563500D01*
X122829000Y-136855500D02*
X122829000Y-123488500D01*
X113904000Y-119563500D02*
X113098100Y-119563500D01*
X163369000Y-118638500D02*
X163369000Y-117588400D01*
X192487500Y-146576300D02*
X192846500Y-146935300D01*
X115005300Y-111054800D02*
X116052200Y-111054800D01*
X131173000Y-105425000D02*
X131904000Y-106156000D01*
X138825000Y-105221000D02*
X137130000Y-103526000D01*
X192384500Y-152706300D02*
X190821800Y-152706300D01*
X169829000Y-135617000D02*
X165620600Y-135617000D01*
X117000000Y-105563500D02*
X113500000Y-105563500D01*
X184161600Y-141971100D02*
X176183100Y-141971100D01*
X88870100Y-93599900D02*
X101570000Y-93599900D01*
X109573900Y-131458600D02*
X95425000Y-131458600D01*
X192846500Y-151540000D02*
X192846500Y-152244300D01*
X115005300Y-119308000D02*
X114749800Y-119563500D01*
X88870000Y-93699900D02*
X88870000Y-93600000D01*
X96564800Y-149633400D02*
X103107300Y-149633400D01*
X95425000Y-128500000D02*
X95425000Y-131458600D01*
X189829000Y-147638500D02*
X184161600Y-141971100D01*
X113098100Y-119563500D02*
X112806000Y-119855600D01*
X117000000Y-105563500D02*
X120500000Y-105563500D01*
X123861500Y-105563500D02*
X124000000Y-105425000D01*
X100496500Y-113500000D02*
X100496500Y-112128300D01*
X118160100Y-154763500D02*
X119009500Y-153914100D01*
X88870000Y-93600000D02*
X88870100Y-93599900D01*
X138636500Y-147676000D02*
X138636500Y-151638500D01*
X134500000Y-106156000D02*
X131904000Y-106156000D01*
X103107300Y-142642300D02*
X111166100Y-134583500D01*
X189829000Y-147638500D02*
X190891200Y-146576300D01*
X192846500Y-146935300D02*
X192846500Y-151540000D01*
X115005300Y-111054800D02*
X115005300Y-119308000D01*
X164329000Y-135758500D02*
X165479100Y-135758500D01*
X101570000Y-111054800D02*
X101570000Y-110950600D01*
X165620600Y-135617000D02*
X165479100Y-135758500D01*
X95425000Y-131458600D02*
X95425000Y-132500000D01*
X100496500Y-113500000D02*
X100496500Y-116500000D01*
X156007900Y-120621700D02*
X152017200Y-120621700D01*
X107707700Y-99771200D02*
X107707700Y-93599900D01*
X111166100Y-134583500D02*
X111166100Y-133050800D01*
X190821800Y-152706300D02*
X189754000Y-151638500D01*
X152017200Y-120621700D02*
X145959000Y-114563500D01*
X111166100Y-133050800D02*
X109573900Y-131458600D01*
X116360000Y-155138500D02*
X115759900Y-155138500D01*
X101570000Y-94500000D02*
X101570000Y-93699900D01*
X101570000Y-93699900D02*
X101570000Y-93599900D01*
X136949600Y-153914100D02*
X138674000Y-155638500D01*
X82152500Y-116001500D02*
X82152500Y-116762100D01*
X163369000Y-117588400D02*
X159041200Y-117588400D01*
X101570000Y-93599900D02*
X107707700Y-93599900D01*
X138674000Y-147638500D02*
X138636500Y-147676000D01*
X115564700Y-124589500D02*
X116079500Y-124589500D01*
X119622000Y-140062500D02*
X122829000Y-136855500D01*
X82844500Y-119222900D02*
X82844500Y-124568700D01*
X137130000Y-103526000D02*
X134500000Y-106156000D01*
X112806000Y-121830800D02*
X115564700Y-124589500D01*
X136949600Y-153914100D02*
X136949600Y-153325400D01*
X202000000Y-151540000D02*
X200799900Y-151540000D01*
X190891200Y-146576300D02*
X192487500Y-146576300D01*
X145959000Y-114563500D02*
X125254000Y-114563500D01*
X118160100Y-155138500D02*
X118160100Y-154763500D01*
X124000000Y-105425000D02*
X127500000Y-105425000D01*
X95294800Y-150903400D02*
X96564800Y-149633400D01*
X136949600Y-153325400D02*
X138636500Y-151638500D01*
X114749800Y-119563500D02*
X113904000Y-119563500D01*
X169829000Y-132718500D02*
X169829000Y-133868600D01*
X100496500Y-112128300D02*
X101570000Y-111054800D01*
X107707700Y-93599900D02*
X107707700Y-93599800D01*
X116645100Y-140062500D02*
X119622000Y-140062500D01*
X200799900Y-151540000D02*
X192846500Y-151540000D01*
X79059000Y-108868500D02*
X80329000Y-110138500D01*
X82844500Y-124568700D02*
X86775800Y-128500000D01*
X103107300Y-149633400D02*
X103107300Y-142642300D01*
X112806000Y-119855600D02*
X112806000Y-121830800D01*
X127500000Y-105425000D02*
X131173000Y-105425000D01*
X107707700Y-93599800D02*
X112669000Y-88638500D01*
X82152500Y-116762100D02*
X83728900Y-118338500D01*
X111166100Y-134583500D02*
X116645100Y-140062500D01*
X84829000Y-118338500D02*
X83728900Y-118338500D01*
X116052200Y-111054800D02*
X116329000Y-111331600D01*
X116329000Y-111331600D02*
X116329000Y-112138500D01*
X160710000Y-105221000D02*
X138825000Y-105221000D01*
X169829000Y-133868600D02*
X169829000Y-135617000D01*
X113500000Y-105563500D02*
X107707700Y-99771200D01*
X116960000Y-155138500D02*
X118160100Y-155138500D01*
X101570000Y-111054800D02*
X115005300Y-111054800D01*
X108612400Y-155138500D02*
X103107300Y-149633400D01*
X116360000Y-155138500D02*
X116960000Y-155138500D01*
X162989000Y-107500000D02*
X160710000Y-105221000D01*
X93620500Y-150903400D02*
X95294800Y-150903400D01*
X192846500Y-152244300D02*
X192384500Y-152706300D01*
X116329000Y-124340000D02*
X116329000Y-123488500D01*
X86775800Y-128500000D02*
X95425000Y-128500000D01*
X119009500Y-153914100D02*
X136949600Y-153914100D01*
X83728900Y-118338500D02*
X82844500Y-119222900D01*
X116079500Y-124589500D02*
X116329000Y-124340000D01*
%TO.N,+3V3*%
X124201200Y-107701200D02*
X124201200Y-113296000D01*
X124201200Y-107701200D02*
X124000000Y-107500000D01*
X115829000Y-112951700D02*
X115829000Y-112138500D01*
X116173300Y-113296000D02*
X115829000Y-112951700D01*
X156654100Y-119138500D02*
X162268300Y-113524300D01*
X120576000Y-119673100D02*
X117388500Y-119673100D01*
X160329000Y-102638500D02*
X160329000Y-103938600D01*
X166131400Y-128790800D02*
X165479100Y-128138500D01*
X95968600Y-126749700D02*
X97500000Y-128281100D01*
X86129200Y-120538500D02*
X84829000Y-120538500D01*
X124201200Y-113296000D02*
X124968700Y-114063500D01*
X83728900Y-124321300D02*
X86157300Y-126749700D01*
X167228900Y-110138500D02*
X167183500Y-110138500D01*
X166812500Y-109767500D02*
X160983600Y-103938600D01*
X124402400Y-107500000D02*
X127500000Y-107500000D01*
X183628900Y-128138500D02*
X182976600Y-128790800D01*
X117000000Y-107638500D02*
X113500000Y-107638500D01*
X120500000Y-107638500D02*
X117000000Y-107638500D01*
X162268300Y-113524300D02*
X163055700Y-113524300D01*
X123329000Y-122426100D02*
X120576000Y-119673100D01*
X160983600Y-103938600D02*
X160329000Y-103938600D01*
X155829000Y-119138500D02*
X155829000Y-120188600D01*
X117388500Y-119673100D02*
X116829000Y-120232600D01*
X168329000Y-110138500D02*
X167228900Y-110138500D01*
X124201200Y-107701200D02*
X124402400Y-107500000D01*
X115737800Y-119141400D02*
X114815700Y-120063500D01*
X115737800Y-119141400D02*
X116829000Y-120232600D01*
X124968700Y-114063500D02*
X125254000Y-114063500D01*
X84829000Y-120538500D02*
X83728900Y-120538500D01*
X97500000Y-128281100D02*
X97500000Y-128500000D01*
X83728900Y-120538500D02*
X83728900Y-124321300D01*
X163055700Y-113524300D02*
X166812500Y-109767500D01*
X115737800Y-113731500D02*
X115737800Y-119141400D01*
X131904000Y-106971000D02*
X134500000Y-106971000D01*
X155829000Y-120188600D02*
X152218200Y-120188600D01*
X124201200Y-113296000D02*
X116173300Y-113296000D01*
X116829000Y-120232600D02*
X116829000Y-123488500D01*
X113500000Y-107638500D02*
X112578500Y-106717000D01*
X131375000Y-107500000D02*
X131904000Y-106971000D01*
X86157300Y-126749700D02*
X95968600Y-126749700D01*
X184829000Y-128138500D02*
X183628900Y-128138500D01*
X202000000Y-129000000D02*
X202000000Y-134420000D01*
X123329000Y-123488500D02*
X123329000Y-122426100D01*
X164329000Y-128138500D02*
X165479100Y-128138500D01*
X120638500Y-107500000D02*
X124000000Y-107500000D01*
X167183500Y-110138500D02*
X166812500Y-109767500D01*
X114815700Y-120063500D02*
X113904000Y-120063500D01*
X182976600Y-128790800D02*
X166131400Y-128790800D01*
X155829000Y-119138500D02*
X156654100Y-119138500D01*
X120500000Y-107638500D02*
X120638500Y-107500000D01*
X116173300Y-113296000D02*
X115737800Y-113731500D01*
X152218200Y-120188600D02*
X139000600Y-106971000D01*
X112578500Y-106717000D02*
X90581300Y-106717000D01*
X139000600Y-106971000D02*
X134500000Y-106971000D01*
X127500000Y-107500000D02*
X131375000Y-107500000D01*
%TO.N,Net-(U1-PC14)*%
X111051500Y-114478500D02*
X102290000Y-114478500D01*
X102290000Y-114478500D02*
X101311500Y-113500000D01*
X113904000Y-115063500D02*
X111636500Y-115063500D01*
X111636500Y-115063500D02*
X111051500Y-114478500D01*
%TO.N,Net-(U1-PC15)*%
X111136500Y-115563500D02*
X111051500Y-115648500D01*
X102163000Y-115648500D02*
X101311500Y-116500000D01*
X111051500Y-115648500D02*
X102163000Y-115648500D01*
X113904000Y-115563500D02*
X111136500Y-115563500D01*
%TO.N,+5V*%
X98041900Y-131958100D02*
X107328000Y-131958100D01*
X134590000Y-94500000D02*
X134590000Y-93037500D01*
X107328000Y-131958100D02*
X108282100Y-132912200D01*
X109236200Y-132912200D02*
X108282100Y-132912200D01*
X97500000Y-132500000D02*
X98041900Y-131958100D01*
X134590000Y-93037500D02*
X138989000Y-88638500D01*
%TO.N,Btn_Up*%
X125254000Y-120063500D02*
X126560100Y-120063500D01*
X143674000Y-156500000D02*
X141610500Y-156500000D01*
X126560100Y-120063500D02*
X132155300Y-125658700D01*
X141610500Y-156500000D02*
X140749000Y-155638500D01*
%TO.N,Btn_Down*%
X124164800Y-120807100D02*
X124164800Y-121804000D01*
X124408400Y-120563500D02*
X124164800Y-120807100D01*
X125254000Y-120563500D02*
X124408400Y-120563500D01*
X143920000Y-147000000D02*
X142819900Y-147000000D01*
X140749000Y-138388200D02*
X140749000Y-147000000D01*
X140749000Y-147000000D02*
X140749000Y-147638500D01*
X124164800Y-121804000D02*
X140749000Y-138388200D01*
X142819900Y-147000000D02*
X140749000Y-147000000D01*
%TO.N,Btn_Left*%
X186359000Y-151638500D02*
X185808900Y-151638500D01*
X149792500Y-144767400D02*
X178937800Y-144767400D01*
X125254000Y-121063500D02*
X126088600Y-121063500D01*
X190782600Y-150592100D02*
X191829000Y-151638500D01*
X187623600Y-150592100D02*
X190782600Y-150592100D01*
X186359000Y-151638500D02*
X186577200Y-151638500D01*
X178937800Y-144767400D02*
X185808900Y-151638500D01*
X186909000Y-151638500D02*
X186577200Y-151638500D01*
X186577200Y-151638500D02*
X187623600Y-150592100D01*
X126088600Y-121063500D02*
X149792500Y-144767400D01*
%TO.N,Btn_Right*%
X140711500Y-151638500D02*
X143594000Y-151638500D01*
X145034300Y-141343800D02*
X145034300Y-149098100D01*
X143594000Y-151638500D02*
X143594000Y-150538400D01*
X125254000Y-121563500D02*
X145034300Y-141343800D01*
X145034300Y-149098100D02*
X143594000Y-150538400D01*
%TO.N,Btn_Push*%
X125254000Y-119563500D02*
X134498400Y-119563500D01*
X190810300Y-148732200D02*
X191904000Y-147638500D01*
X134498400Y-119563500D02*
X158162600Y-143227700D01*
X186359000Y-147000000D02*
X185808900Y-147000000D01*
X186359000Y-147000000D02*
X188091200Y-148732200D01*
X188091200Y-148732200D02*
X190810300Y-148732200D01*
X158162600Y-143227700D02*
X182036600Y-143227700D01*
X186909000Y-147000000D02*
X186359000Y-147000000D01*
X182036600Y-143227700D02*
X185808900Y-147000000D01*
%TO.N,Net-(C17-Pad1)*%
X72411100Y-99138500D02*
X73624100Y-100351500D01*
X72050600Y-101925000D02*
X73624100Y-100351500D01*
X74673500Y-100351500D02*
X73624100Y-100351500D01*
X81173500Y-100351500D02*
X74673500Y-100351500D01*
X72500000Y-97080000D02*
X72411100Y-97168900D01*
X72000000Y-101925000D02*
X72050600Y-101925000D01*
X72411100Y-97168900D02*
X72411100Y-99138500D01*
%TO.N,JLink_RST*%
X73822000Y-104000000D02*
X74673500Y-104851500D01*
X72000000Y-104000000D02*
X73822000Y-104000000D01*
X81173500Y-104851500D02*
X74673500Y-104851500D01*
X94377300Y-111836700D02*
X99604100Y-117063500D01*
X76947200Y-111836700D02*
X94377300Y-111836700D01*
X75249000Y-110138500D02*
X76947200Y-111836700D01*
X99604100Y-117063500D02*
X113904000Y-117063500D01*
%TO.N,JLink_CLK*%
X121787300Y-109789100D02*
X123329000Y-111330800D01*
X107179600Y-107980200D02*
X108988500Y-109789100D01*
X77407300Y-107980200D02*
X107179600Y-107980200D01*
X123329000Y-111330800D02*
X123329000Y-112138500D01*
X108988500Y-109789100D02*
X121787300Y-109789100D01*
X76519000Y-108868500D02*
X77407300Y-107980200D01*
%TO.N,JLink_SWDIO*%
X78673400Y-111022900D02*
X85443400Y-111022900D01*
X87246100Y-109220200D02*
X107126400Y-109220200D01*
X125254000Y-115063500D02*
X116404100Y-115063500D01*
X77789000Y-110138500D02*
X78673400Y-111022900D01*
X85443400Y-111022900D02*
X87246100Y-109220200D01*
%TO.N,/Joy and Sd and LCD/Button_Up*%
X154695500Y-155638500D02*
X153834000Y-156500000D01*
X157749000Y-155638500D02*
X154695500Y-155638500D01*
%TO.N,/Optical Link/LED_CA*%
X180829000Y-130638500D02*
X171439100Y-130638500D01*
X169829000Y-130178500D02*
X170979100Y-130178500D01*
X171439100Y-130638500D02*
X170979100Y-130178500D01*
%TO.N,Net-(J2-Pin_3)*%
X167789100Y-126748700D02*
X160619300Y-126748700D01*
X169829000Y-127638500D02*
X168678900Y-127638500D01*
X160619300Y-126748700D02*
X159429100Y-125558500D01*
X168678900Y-127638500D02*
X167789100Y-126748700D01*
X158329000Y-125558500D02*
X159429100Y-125558500D01*
%TO.N,/Optical Link/LED_AN*%
X188829000Y-131448400D02*
X180789000Y-139488400D01*
X180789000Y-140638500D02*
X180789000Y-139488400D01*
X188829000Y-130638500D02*
X188829000Y-131448400D01*
%TO.N,Net-(J3-Pin_1)*%
X191899100Y-119851000D02*
X191899100Y-120138500D01*
X190749000Y-120138500D02*
X191899100Y-120138500D01*
X198829000Y-115138500D02*
X196611600Y-115138500D01*
X196611600Y-115138500D02*
X191899100Y-119851000D01*
%TO.N,/Optical Link/FD_AN*%
X178229000Y-133238500D02*
X184829000Y-133238500D01*
X149547600Y-120138500D02*
X158817600Y-129408500D01*
X176360600Y-131370100D02*
X178229000Y-133238500D01*
X166044200Y-129408500D02*
X168005800Y-131370100D01*
X148329000Y-120138500D02*
X149547600Y-120138500D01*
X168005800Y-131370100D02*
X176360600Y-131370100D01*
X158817600Y-129408500D02*
X166044200Y-129408500D01*
%TO.N,TX_OPTICAL*%
X163178900Y-130868600D02*
X163178900Y-130678500D01*
X164329000Y-130678500D02*
X163178900Y-130678500D01*
X113904000Y-121563500D02*
X114111600Y-121563500D01*
X114111600Y-121563500D02*
X115141100Y-122593000D01*
X158329000Y-135718500D02*
X163178900Y-130868600D01*
X153329000Y-135718500D02*
X158329000Y-135718500D01*
%TO.N,RX_OPTICAL*%
X115829000Y-122500100D02*
X116216700Y-122112400D01*
X115829000Y-123488500D02*
X115829000Y-122500100D01*
X167719100Y-119688600D02*
X168329000Y-120298500D01*
X160829000Y-118638500D02*
X160829000Y-119688600D01*
X160829000Y-119688600D02*
X167719100Y-119688600D01*
%TO.N,Net-(Q1-B)*%
X154559000Y-117308600D02*
X154559000Y-119138500D01*
X148329000Y-109978500D02*
X148329000Y-111078600D01*
X148329000Y-111078600D02*
X154559000Y-117308600D01*
%TO.N,Net-(Q1-E)*%
X152669000Y-112138500D02*
X152829000Y-111978500D01*
X152829000Y-111978500D02*
X152829000Y-107500000D01*
%TO.N,LCD_E*%
X114799000Y-121063500D02*
X115778100Y-120084400D01*
X113904000Y-121063500D02*
X114799000Y-121063500D01*
%TO.N,LCD_R{slash}W*%
X118829000Y-122663000D02*
X120341000Y-121151000D01*
X118829000Y-123488500D02*
X118829000Y-122663000D01*
X120341000Y-121151000D02*
X120341000Y-120287000D01*
%TO.N,SD_D0*%
X100338400Y-118563500D02*
X113904000Y-118563500D01*
X84829000Y-117238500D02*
X99013400Y-117238500D01*
X99013400Y-117238500D02*
X100338400Y-118563500D01*
%TO.N,Net-(R9-Pad1)*%
X175887500Y-155638500D02*
X176749000Y-156500000D01*
X172749000Y-155638500D02*
X175887500Y-155638500D01*
%TO.N,Net-(U4-V0)*%
X128829000Y-88638500D02*
X128829000Y-89738600D01*
X132050000Y-94500000D02*
X132050000Y-92959600D01*
X132050000Y-92959600D02*
X128829000Y-89738600D01*
%TO.N,SAMPLING_LED*%
X120829000Y-123488500D02*
X120829000Y-135629400D01*
X119000000Y-138558500D02*
X119000000Y-137458400D01*
X120829000Y-135629400D02*
X119000000Y-137458400D01*
%TO.N,Net-(SW1-Pad1)*%
X91946200Y-153443400D02*
X91569500Y-153820100D01*
X91569500Y-153820100D02*
X81861600Y-153820100D01*
X81861600Y-153820100D02*
X80380000Y-152338500D01*
X93620500Y-153443400D02*
X91946200Y-153443400D01*
%TO.N,Net-(U2-3V3)*%
X93620500Y-148363400D02*
X82754900Y-148363400D01*
X82754900Y-148363400D02*
X80380000Y-145988500D01*
%TO.N,STM_TX*%
X123800600Y-122129600D02*
X123727500Y-122056500D01*
X123800600Y-136449700D02*
X123800600Y-122129600D01*
X123727500Y-117765200D02*
X124429200Y-117063500D01*
X123727500Y-122056500D02*
X123727500Y-117765200D01*
X124429200Y-117063500D02*
X125254000Y-117063500D01*
X112044300Y-140462600D02*
X119787700Y-140462600D01*
X119787700Y-140462600D02*
X123800600Y-136449700D01*
X109785100Y-138203400D02*
X112044300Y-140462600D01*
%TO.N,/Joy and Sd and LCD/Button_Down*%
X157749000Y-147638500D02*
X154718500Y-147638500D01*
X154718500Y-147638500D02*
X154080000Y-147000000D01*
%TO.N,SD_CS*%
X113923700Y-125400500D02*
X111261700Y-122738500D01*
X111261700Y-122738500D02*
X84829000Y-122738500D01*
X118779700Y-125400500D02*
X113923700Y-125400500D01*
X119829000Y-124351200D02*
X118779700Y-125400500D01*
X119829000Y-123488500D02*
X119829000Y-124351200D01*
%TO.N,STM_RX*%
X95508300Y-135016000D02*
X93620500Y-136903800D01*
X110565900Y-133330700D02*
X108880600Y-135016000D01*
X108880600Y-135016000D02*
X95508300Y-135016000D01*
X93620500Y-138203400D02*
X93620500Y-136903800D01*
X125254000Y-116563500D02*
X120460400Y-116563500D01*
%TO.N,LCD_RST*%
X116633800Y-125000300D02*
X114721700Y-125000300D01*
X117329000Y-124305100D02*
X116633800Y-125000300D01*
X114721700Y-125000300D02*
X112302900Y-122581500D01*
X117329000Y-123488500D02*
X117329000Y-124305100D01*
%TO.N,JLink_SW0*%
X99086300Y-111436500D02*
X100278900Y-110243900D01*
X76519000Y-110138500D02*
X77817000Y-111436500D01*
X77817000Y-111436500D02*
X99086300Y-111436500D01*
X100278900Y-110243900D02*
X119245300Y-110243900D01*
X119245300Y-110243900D02*
X120329000Y-111327600D01*
X120329000Y-111327600D02*
X120329000Y-112138500D01*
%TO.N,Net-(U1-VBAT)*%
X114178400Y-113789100D02*
X114178400Y-113388200D01*
X113904000Y-114063500D02*
X114178400Y-113789100D01*
%TO.N,LCD_RS*%
X117829000Y-122596200D02*
X119503600Y-120921600D01*
X117829000Y-123488500D02*
X117829000Y-122596200D01*
X119503600Y-120921600D02*
X119698800Y-120921600D01*
%TO.N,SD_CLK*%
X108916500Y-130030800D02*
X97437900Y-130030800D01*
X97437900Y-130030800D02*
X96462500Y-129055400D01*
X121829000Y-137289700D02*
X119456300Y-139662400D01*
X83284000Y-119883400D02*
X83728900Y-119438500D01*
X119456300Y-139662400D02*
X118548100Y-139662400D01*
X96462500Y-129055400D02*
X96462500Y-127882200D01*
X83284000Y-124442300D02*
X83284000Y-119883400D01*
X96054100Y-127473800D02*
X86315500Y-127473800D01*
X96462500Y-127882200D02*
X96054100Y-127473800D01*
X121829000Y-123488500D02*
X121829000Y-137289700D01*
X86315500Y-127473800D02*
X83284000Y-124442300D01*
X84829000Y-119438500D02*
X83728900Y-119438500D01*
X118548100Y-139662400D02*
X108916500Y-130030800D01*
%TO.N,SD_CH0*%
X111607200Y-119063500D02*
X109032200Y-121638500D01*
X109032200Y-121638500D02*
X84829000Y-121638500D01*
X113904000Y-119063500D02*
X111607200Y-119063500D01*
%TO.N,/Joy and Sd and LCD/Button_Left*%
X172749000Y-151638500D02*
X176749000Y-151638500D01*
%TO.N,/Joy and Sd and LCD/Button_Right*%
X157749000Y-151638500D02*
X153754000Y-151638500D01*
%TO.N,/Joy and Sd and LCD/Button_Push*%
X172749000Y-147638500D02*
X176110500Y-147638500D01*
X176110500Y-147638500D02*
X176749000Y-147000000D01*
%TO.N,Net-(U1-PH3)*%
X117829000Y-111285300D02*
X118261200Y-110853100D01*
X117829000Y-112138500D02*
X117829000Y-111285300D01*
X118261200Y-110853100D02*
X118344700Y-110853100D01*
%TD*%
M02*
