%TF.GenerationSoftware,KiCad,Pcbnew,9.0.0*%
%TF.CreationDate,2025-05-12T01:47:31+10:00*%
%TF.ProjectId,Control_Unit,436f6e74-726f-46c5-9f55-6e69742e6b69,rev?*%
%TF.SameCoordinates,Original*%
%TF.FileFunction,Copper,L2,Bot*%
%TF.FilePolarity,Positive*%
%FSLAX46Y46*%
G04 Gerber Fmt 4.6, Leading zero omitted, Abs format (unit mm)*
G04 Created by KiCad (PCBNEW 9.0.0) date 2025-05-12 01:47:31*
%MOMM*%
%LPD*%
G01*
G04 APERTURE LIST*
%TA.AperFunction,ComponentPad*%
%ADD10C,0.810000*%
%TD*%
%TA.AperFunction,ComponentPad*%
%ADD11C,1.600000*%
%TD*%
%TA.AperFunction,ComponentPad*%
%ADD12O,1.600000X1.600000*%
%TD*%
%TA.AperFunction,ComponentPad*%
%ADD13R,1.200000X3.000000*%
%TD*%
%TA.AperFunction,ComponentPad*%
%ADD14R,1.800000X1.800000*%
%TD*%
%TA.AperFunction,ComponentPad*%
%ADD15C,1.800000*%
%TD*%
%TA.AperFunction,ComponentPad*%
%ADD16R,1.700000X1.700000*%
%TD*%
%TA.AperFunction,ComponentPad*%
%ADD17O,1.700000X1.700000*%
%TD*%
%TA.AperFunction,ComponentPad*%
%ADD18C,3.000000*%
%TD*%
%TA.AperFunction,ComponentPad*%
%ADD19C,1.168400*%
%TD*%
%TA.AperFunction,ComponentPad*%
%ADD20R,1.050000X1.500000*%
%TD*%
%TA.AperFunction,ComponentPad*%
%ADD21O,1.050000X1.500000*%
%TD*%
%TA.AperFunction,ComponentPad*%
%ADD22R,1.905000X2.000000*%
%TD*%
%TA.AperFunction,ComponentPad*%
%ADD23O,1.905000X2.000000*%
%TD*%
%TA.AperFunction,ComponentPad*%
%ADD24C,1.500000*%
%TD*%
%TA.AperFunction,ComponentPad*%
%ADD25R,1.498600X1.498600*%
%TD*%
%TA.AperFunction,ComponentPad*%
%ADD26C,1.498600*%
%TD*%
%TA.AperFunction,ComponentPad*%
%ADD27C,1.308000*%
%TD*%
%TA.AperFunction,ComponentPad*%
%ADD28R,1.308000X1.308000*%
%TD*%
%TA.AperFunction,ComponentPad*%
%ADD29C,2.362200*%
%TD*%
%TA.AperFunction,SMDPad,CuDef*%
%ADD30C,3.000000*%
%TD*%
%TA.AperFunction,SMDPad,CuDef*%
%ADD31R,5.000000X5.000000*%
%TD*%
%TA.AperFunction,SMDPad,CuDef*%
%ADD32R,5.300000X5.300000*%
%TD*%
%TA.AperFunction,ViaPad*%
%ADD33C,0.600000*%
%TD*%
%TA.AperFunction,Conductor*%
%ADD34C,0.200000*%
%TD*%
G04 APERTURE END LIST*
D10*
%TO.P,Y1,1*%
%TO.N,Net-(U1-PC14)*%
X111051500Y-114478500D03*
%TO.P,Y1,2*%
%TO.N,Net-(U1-PC15)*%
X111051500Y-115648500D03*
%TD*%
D11*
%TO.P,R9,1*%
%TO.N,Net-(R9-Pad1)*%
X176749000Y-156500000D03*
D12*
%TO.P,R9,2*%
%TO.N,+3V3*%
X186909000Y-156500000D03*
%TD*%
D13*
%TO.P,U4,1,VSS*%
%TO.N,GND*%
X137130000Y-95400000D03*
%TO.P,U4,2,VDD*%
%TO.N,+5V*%
X134590000Y-95400000D03*
%TO.P,U4,3,V0*%
%TO.N,Net-(U4-V0)*%
X132050000Y-95400000D03*
%TO.P,U4,4,RS*%
%TO.N,LCD_RS*%
X129510000Y-95400000D03*
%TO.P,U4,5,R/W*%
%TO.N,LCD_R{slash}W*%
X126970000Y-95400000D03*
%TO.P,U4,6,E*%
%TO.N,LCD_E*%
X124430000Y-95400000D03*
%TO.P,U4,7,DB0*%
%TO.N,unconnected-(U4-DB0-Pad7)*%
X121890000Y-95400000D03*
%TO.P,U4,8,DB1*%
%TO.N,unconnected-(U4-DB1-Pad8)*%
X119350000Y-95400000D03*
%TO.P,U4,9,DB2*%
%TO.N,unconnected-(U4-DB2-Pad9)*%
X116810000Y-95400000D03*
%TO.P,U4,10,DB3*%
%TO.N,unconnected-(U4-DB3-Pad10)*%
X114270000Y-95400000D03*
%TO.P,U4,11,DB4*%
%TO.N,unconnected-(U4-DB4-Pad11)*%
X111730000Y-95400000D03*
%TO.P,U4,12,DB5*%
%TO.N,unconnected-(U4-DB5-Pad12)*%
X109190000Y-95400000D03*
%TO.P,U4,13,DB6*%
%TO.N,unconnected-(U4-DB6-Pad13)*%
X106650000Y-95400000D03*
%TO.P,U4,14,DB7*%
%TO.N,unconnected-(U4-DB7-Pad14)*%
X104110000Y-95400000D03*
%TO.P,U4,15,PSB*%
%TO.N,GND*%
X101570000Y-95400000D03*
%TO.P,U4,16,NC*%
%TO.N,unconnected-(U4-NC-Pad16)*%
X99030000Y-95400000D03*
%TO.P,U4,17,/RST*%
%TO.N,LCD_RST*%
X96490000Y-95400000D03*
%TO.P,U4,18,Vout*%
%TO.N,unconnected-(U4-Vout-Pad18)*%
X93950000Y-95400000D03*
%TO.P,U4,19,LEDA*%
%TO.N,+5V*%
X91410000Y-95400000D03*
%TO.P,U4,20,LEDK*%
%TO.N,GND*%
X88870000Y-95400000D03*
%TD*%
D14*
%TO.P,U9,1,K*%
%TO.N,+3V3*%
X184829000Y-128138500D03*
D15*
%TO.P,U9,2,A*%
%TO.N,/Optical Link/FD_AN*%
X184829000Y-133238500D03*
D14*
%TO.P,U9,3,K*%
%TO.N,/Optical Link/LED_CA*%
X180829000Y-130638500D03*
D15*
%TO.P,U9,4,A*%
%TO.N,/Optical Link/LED_AN*%
X188829000Y-130638500D03*
%TD*%
D11*
%TO.P,R20,1*%
%TO.N,Net-(Q1-E)*%
X152669000Y-112138500D03*
D12*
%TO.P,R20,2*%
%TO.N,Net-(Q3-B)*%
X162829000Y-112138500D03*
%TD*%
D16*
%TO.P,J2,1,Pin_1*%
%TO.N,GND*%
X169829000Y-132718500D03*
D17*
%TO.P,J2,2,Pin_2*%
%TO.N,/Optical Link/LED_CA*%
X169829000Y-130178500D03*
%TO.P,J2,3,Pin_3*%
%TO.N,Net-(J2-Pin_3)*%
X169829000Y-127638500D03*
%TD*%
D14*
%TO.P,LED1,1,K*%
%TO.N,GND*%
X202000000Y-151540000D03*
D15*
%TO.P,LED1,2,A*%
%TO.N,Net-(LED1-A)*%
X202000000Y-149000000D03*
%TD*%
D18*
%TO.P,TP2,1,1*%
%TO.N,+3V3*%
X202000000Y-129000000D03*
%TD*%
D11*
%TO.P,R18,1*%
%TO.N,/Optical Link/FD_AN*%
X148329000Y-120138500D03*
D12*
%TO.P,R18,2*%
%TO.N,Net-(Q1-B)*%
X148329000Y-109978500D03*
%TD*%
D11*
%TO.P,R5,1*%
%TO.N,/Joy and Sd and LCD/Button_Down*%
X154080000Y-147000000D03*
D12*
%TO.P,R5,2*%
%TO.N,Btn_Down*%
X143920000Y-147000000D03*
%TD*%
D11*
%TO.P,R21,1*%
%TO.N,RX_OPTICAL*%
X168329000Y-120298500D03*
D12*
%TO.P,R21,2*%
%TO.N,+3V3*%
X168329000Y-110138500D03*
%TD*%
D11*
%TO.P,R14,1*%
%TO.N,TX_OPTICAL*%
X158329000Y-135718500D03*
D12*
%TO.P,R14,2*%
%TO.N,Net-(J2-Pin_3)*%
X158329000Y-125558500D03*
%TD*%
D11*
%TO.P,R6,1*%
%TO.N,/Joy and Sd and LCD/Button_Left*%
X176749000Y-151638500D03*
D12*
%TO.P,R6,2*%
%TO.N,Btn_Left*%
X186909000Y-151638500D03*
%TD*%
D11*
%TO.P,R15,1*%
%TO.N,TX_OPTICAL*%
X153329000Y-135718500D03*
D12*
%TO.P,R15,2*%
%TO.N,Net-(Q2-G)*%
X153329000Y-125558500D03*
%TD*%
D18*
%TO.P,TP1,1,1*%
%TO.N,+5V*%
X126829000Y-158138500D03*
%TD*%
D19*
%TO.P,J1,1,VTG*%
%TO.N,+3V3*%
X80329000Y-108868500D03*
%TO.P,J1,2,GND*%
%TO.N,GND*%
X80329000Y-110138500D03*
%TO.P,J1,3,GND*%
X79059000Y-108868500D03*
%TO.P,J1,4,KEY*%
%TO.N,unconnected-(J1-KEY-Pad4)*%
X79059000Y-110138500D03*
%TO.P,J1,5,GND*%
%TO.N,GND*%
X77789000Y-108868500D03*
%TO.P,J1,6,RST*%
%TO.N,JLink_SWDIO*%
X77789000Y-110138500D03*
%TO.P,J1,7,NC*%
%TO.N,JLink_CLK*%
X76519000Y-108868500D03*
%TO.P,J1,8,SWO*%
%TO.N,JLink_SW0*%
X76519000Y-110138500D03*
%TO.P,J1,9,CLK*%
%TO.N,unconnected-(J1-CLK-Pad9)*%
X75249000Y-108868500D03*
%TO.P,J1,10,SWDIO*%
%TO.N,JLink_RST*%
X75249000Y-110138500D03*
%TD*%
D20*
%TO.P,Q3,1,E*%
%TO.N,GND*%
X163369000Y-118638500D03*
D21*
%TO.P,Q3,2,B*%
%TO.N,Net-(Q3-B)*%
X162099000Y-118638500D03*
%TO.P,Q3,3,C*%
%TO.N,RX_OPTICAL*%
X160829000Y-118638500D03*
%TD*%
D16*
%TO.P,J5,1,Pin_1*%
%TO.N,+5V*%
X164329000Y-125598500D03*
D17*
%TO.P,J5,2,Pin_2*%
%TO.N,+3V3*%
X164329000Y-128138500D03*
%TO.P,J5,3,Pin_3*%
%TO.N,TX_OPTICAL*%
X164329000Y-130678500D03*
%TO.P,J5,4,Pin_4*%
%TO.N,RX_OPTICAL*%
X164329000Y-133218500D03*
%TO.P,J5,5,Pin_5*%
%TO.N,GND*%
X164329000Y-135758500D03*
%TD*%
D11*
%TO.P,R12,1*%
%TO.N,Net-(LED1-A)*%
X202000000Y-144580000D03*
D12*
%TO.P,R12,2*%
%TO.N,+3V3*%
X202000000Y-134420000D03*
%TD*%
D22*
%TO.P,Q2,1,G*%
%TO.N,Net-(Q2-G)*%
X155249000Y-102638500D03*
D23*
%TO.P,Q2,2,D*%
%TO.N,Net-(Q2-D)*%
X157789000Y-102638500D03*
%TO.P,Q2,3,S*%
%TO.N,+3V3*%
X160329000Y-102638500D03*
%TD*%
D11*
%TO.P,R16,1*%
%TO.N,Net-(Q2-G)*%
X148000000Y-125555300D03*
D12*
%TO.P,R16,2*%
%TO.N,+5V*%
X148000000Y-135715300D03*
%TD*%
D24*
%TO.P,U3,10*%
%TO.N,N/C*%
X73829000Y-116688500D03*
%TO.P,U3,11*%
X73829000Y-124688500D03*
%TD*%
D11*
%TO.P,R10,1*%
%TO.N,+5V*%
X138989000Y-88638500D03*
D12*
%TO.P,R10,2*%
%TO.N,Net-(U4-V0)*%
X128829000Y-88638500D03*
%TD*%
D14*
%TO.P,LED2,1,K*%
%TO.N,GND*%
X116960000Y-155138500D03*
D15*
%TO.P,LED2,2,A*%
%TO.N,Net-(LED2-A)*%
X119500000Y-155138500D03*
%TD*%
D20*
%TO.P,Q1,1,E*%
%TO.N,Net-(Q1-E)*%
X153289000Y-119138500D03*
D21*
%TO.P,Q1,2,B*%
%TO.N,Net-(Q1-B)*%
X154559000Y-119138500D03*
%TO.P,Q1,3,C*%
%TO.N,+3V3*%
X155829000Y-119138500D03*
%TD*%
D11*
%TO.P,R8,1*%
%TO.N,/Joy and Sd and LCD/Button_Push*%
X176749000Y-147000000D03*
D12*
%TO.P,R8,2*%
%TO.N,Btn_Push*%
X186909000Y-147000000D03*
%TD*%
D11*
%TO.P,R22,1*%
%TO.N,GND*%
X112725200Y-88620600D03*
D12*
%TO.P,R22,2*%
%TO.N,Net-(U1-PH3)*%
X122885200Y-88620600D03*
%TD*%
D25*
%TO.P,SW3,1,1*%
%TO.N,Net-(C17-Pad1)*%
X74673499Y-100351499D03*
D26*
%TO.P,SW3,2,2*%
X81173500Y-100351499D03*
%TO.P,SW3,3,3*%
%TO.N,JLink_RST*%
X74673499Y-104851500D03*
%TO.P,SW3,4,4*%
X81173500Y-104851500D03*
%TD*%
D16*
%TO.P,J4,1,Pin_1*%
%TO.N,+3V3*%
X188409000Y-140638500D03*
D17*
%TO.P,J4,2,Pin_2*%
%TO.N,/Optical Link/FD_AN*%
X185869000Y-140638500D03*
%TO.P,J4,3,Pin_3*%
%TO.N,/Optical Link/LED_CA*%
X183329000Y-140638500D03*
%TO.P,J4,4,Pin_4*%
%TO.N,/Optical Link/LED_AN*%
X180789000Y-140638500D03*
%TD*%
D11*
%TO.P,R17,1*%
%TO.N,Net-(Q2-D)*%
X188669000Y-115138500D03*
D12*
%TO.P,R17,2*%
%TO.N,Net-(J3-Pin_1)*%
X198829000Y-115138500D03*
%TD*%
D27*
%TO.P,D1,A*%
%TO.N,Net-(D1-PadA)*%
X99956200Y-132912200D03*
D28*
%TO.P,D1,C*%
%TO.N,+5V*%
X109236200Y-132912200D03*
%TD*%
D11*
%TO.P,R4,1*%
%TO.N,/Joy and Sd and LCD/Button_Up*%
X153834000Y-156500000D03*
D12*
%TO.P,R4,2*%
%TO.N,Btn_Up*%
X143674000Y-156500000D03*
%TD*%
D29*
%TO.P,SW1,1,1*%
%TO.N,Net-(SW1-Pad1)*%
X80380000Y-152338500D03*
%TO.P,SW1,2,2*%
%TO.N,Net-(U2-3V3)*%
X80380000Y-145988500D03*
%TO.P,SW1,3,3*%
%TO.N,unconnected-(SW1-Pad3)*%
X80380000Y-139638500D03*
%TO.P,SW1,4,4*%
%TO.N,+3V3*%
X88000000Y-152338500D03*
%TO.P,SW1,5,5*%
%TO.N,Net-(D1-PadA)*%
X88000000Y-145988500D03*
%TO.P,SW1,6,6*%
%TO.N,unconnected-(SW1-Pad6)*%
X88000000Y-139638500D03*
%TD*%
D11*
%TO.P,R13,1*%
%TO.N,Net-(LED2-A)*%
X119000000Y-148718500D03*
D12*
%TO.P,R13,2*%
%TO.N,SAMPLING_LED*%
X119000000Y-138558500D03*
%TD*%
D11*
%TO.P,R19,1*%
%TO.N,GND*%
X162989000Y-107500000D03*
D12*
%TO.P,R19,2*%
%TO.N,Net-(Q1-E)*%
X152829000Y-107500000D03*
%TD*%
D11*
%TO.P,R11,1*%
%TO.N,Net-(C17-Pad1)*%
X72500000Y-97080000D03*
D12*
%TO.P,R11,2*%
%TO.N,GND*%
X72500000Y-86920000D03*
%TD*%
D16*
%TO.P,J3,1,Pin_1*%
%TO.N,Net-(J3-Pin_1)*%
X190749000Y-120138500D03*
D17*
%TO.P,J3,2,Pin_2*%
%TO.N,/Optical Link/LED_AN*%
X193289000Y-120138500D03*
%TO.P,J3,3,Pin_3*%
%TO.N,+3.3V*%
X195829000Y-120138500D03*
%TD*%
D11*
%TO.P,R7,1*%
%TO.N,/Joy and Sd and LCD/Button_Right*%
X153754000Y-151638500D03*
D12*
%TO.P,R7,2*%
%TO.N,Btn_Right*%
X143594000Y-151638500D03*
%TD*%
D30*
%TO.P,FID4,*%
%TO.N,*%
X203500000Y-29000000D03*
%TD*%
%TO.P,FID6,*%
%TO.N,*%
X204000000Y-158500000D03*
%TD*%
D31*
%TO.P,BT1,-*%
%TO.N,GND*%
X104000000Y-49638500D03*
D32*
%TO.P,BT1,S+1*%
%TO.N,Net-(U1-VBAT)*%
X118200000Y-49638500D03*
%TO.P,BT1,S+2*%
X89800000Y-49638500D03*
%TD*%
D30*
%TO.P,FID5,*%
%TO.N,*%
X72500000Y-158500000D03*
%TD*%
D33*
%TO.N,GND*%
X101570000Y-110950600D03*
X82152500Y-116001500D03*
%TO.N,+3V3*%
X86129200Y-120538500D03*
X90581300Y-106717000D03*
%TO.N,Btn_Up*%
X132155300Y-125658700D03*
%TO.N,JLink_SWDIO*%
X116404100Y-115063500D03*
X107126400Y-109220200D03*
%TO.N,TX_OPTICAL*%
X115141100Y-122593000D03*
%TO.N,RX_OPTICAL*%
X116216700Y-122112400D03*
%TO.N,LCD_E*%
X115778100Y-120084400D03*
%TO.N,LCD_R{slash}W*%
X120341000Y-120287000D03*
%TO.N,STM_RX*%
X110565900Y-133330700D03*
X120460400Y-116563500D03*
%TO.N,LCD_RST*%
X112302900Y-122581500D03*
%TO.N,Net-(U1-VBAT)*%
X114178400Y-113388200D03*
%TO.N,LCD_RS*%
X119698800Y-120921600D03*
%TO.N,Net-(U1-PH3)*%
X118344700Y-110853100D03*
%TD*%
D34*
%TO.N,GND*%
X163369000Y-118638500D02*
X164194100Y-118638500D01*
X168678900Y-123123300D02*
X168678900Y-130705900D01*
X104000000Y-79969500D02*
X112669000Y-88638500D01*
X163956800Y-117000600D02*
X163369000Y-117588400D01*
X163369000Y-118557900D02*
X163369000Y-118638500D01*
X104000000Y-49638500D02*
X104000000Y-79969500D01*
X168678900Y-130705900D02*
X169541400Y-131568400D01*
X79059000Y-108868500D02*
X88870000Y-99057500D01*
X80329000Y-114178000D02*
X82152500Y-116001500D01*
X163956800Y-108467800D02*
X163956800Y-117000600D01*
X169829000Y-132718500D02*
X169829000Y-131568400D01*
X88870000Y-99057500D02*
X88870000Y-94500000D01*
X101570000Y-94500000D02*
X101570000Y-110950600D01*
X162989000Y-107500000D02*
X163956800Y-108467800D01*
X164194100Y-118638500D02*
X168678900Y-123123300D01*
X169541400Y-131568400D02*
X169829000Y-131568400D01*
X163369000Y-118557900D02*
X163369000Y-117588400D01*
X80329000Y-110138500D02*
X80329000Y-114178000D01*
%TO.N,+3V3*%
X157644900Y-120129300D02*
X161020700Y-120129300D01*
X188409000Y-133669300D02*
X188409000Y-140638500D01*
X188409000Y-132918600D02*
X188409000Y-133669300D01*
X186909000Y-156500000D02*
X186909000Y-155399900D01*
X184829000Y-128138500D02*
X184829000Y-129338600D01*
X200899900Y-134420000D02*
X200149200Y-133669300D01*
X88000000Y-152338500D02*
X86129200Y-150467700D01*
X86129200Y-150467700D02*
X86129200Y-120538500D01*
X200149200Y-133669300D02*
X188409000Y-133669300D01*
X188409000Y-140638500D02*
X188409000Y-153899900D01*
X184829000Y-129338600D02*
X188409000Y-132918600D01*
X164329000Y-128138500D02*
X164329000Y-126988400D01*
X188409000Y-153899900D02*
X186909000Y-155399900D01*
X202000000Y-134420000D02*
X200899900Y-134420000D01*
X86129200Y-114668700D02*
X86129200Y-120538500D01*
X80329000Y-108868500D02*
X84379400Y-112918900D01*
X155829000Y-119138500D02*
X156654100Y-119138500D01*
X90581300Y-106717000D02*
X84379400Y-112918900D01*
X84379400Y-112918900D02*
X86129200Y-114668700D01*
X165510000Y-126620700D02*
X165142300Y-126988400D01*
X156654100Y-119138500D02*
X157644900Y-120129300D01*
X161020700Y-120129300D02*
X165510000Y-124618600D01*
X165510000Y-124618600D02*
X165510000Y-126620700D01*
X165142300Y-126988400D02*
X164329000Y-126988400D01*
%TO.N,+5V*%
X134590000Y-94500000D02*
X134590000Y-121205200D01*
X109236200Y-131958100D02*
X91652600Y-114374500D01*
X134232900Y-121562300D02*
X117939600Y-121562300D01*
X134590000Y-121205200D02*
X148000000Y-134615200D01*
X110084000Y-134714100D02*
X109236200Y-133866300D01*
X91652600Y-97442700D02*
X91410000Y-97200100D01*
X91652600Y-114374500D02*
X91652600Y-97442700D01*
X134590000Y-121205200D02*
X134232900Y-121562300D01*
X163178900Y-125598500D02*
X162028800Y-126748600D01*
X113934300Y-130863800D02*
X110084000Y-134714100D01*
X117939600Y-121562300D02*
X117864600Y-121487300D01*
X126829000Y-151459100D02*
X110084000Y-134714100D01*
X109236200Y-132912200D02*
X109236200Y-131958100D01*
X113934300Y-122943200D02*
X113934300Y-130863800D01*
X126829000Y-158138500D02*
X126829000Y-151459100D01*
X164329000Y-125598500D02*
X163178900Y-125598500D01*
X155866600Y-126748600D02*
X148000000Y-134615200D01*
X148000000Y-135715300D02*
X148000000Y-134615200D01*
X109236200Y-132912200D02*
X109236200Y-133866300D01*
X117864600Y-121487300D02*
X115390200Y-121487300D01*
X162028800Y-126748600D02*
X155866600Y-126748600D01*
X91410000Y-94500000D02*
X91410000Y-97200100D01*
X115390200Y-121487300D02*
X113934300Y-122943200D01*
%TO.N,Btn_Up*%
X132155300Y-125658700D02*
X132155300Y-143881200D01*
X143674000Y-156500000D02*
X143674000Y-155399900D01*
X132155300Y-143881200D02*
X143674000Y-155399900D01*
%TO.N,JLink_RST*%
X75249000Y-110138500D02*
X74321300Y-109210800D01*
X74321300Y-109210800D02*
X74321300Y-105203700D01*
X74321300Y-105203700D02*
X74673500Y-104851500D01*
%TO.N,Net-(D1-PadA)*%
X88000000Y-145988500D02*
X99956200Y-134032300D01*
X99956200Y-134032300D02*
X99956200Y-132912200D01*
%TO.N,JLink_SWDIO*%
X107126400Y-109220200D02*
X112969700Y-115063500D01*
X112969700Y-115063500D02*
X116404100Y-115063500D01*
%TO.N,/Optical Link/LED_CA*%
X180829000Y-136988400D02*
X183329000Y-139488400D01*
X180829000Y-130638500D02*
X180829000Y-136988400D01*
X183329000Y-140638500D02*
X183329000Y-139488400D01*
%TO.N,/Optical Link/LED_AN*%
X193289000Y-120138500D02*
X193289000Y-121288600D01*
X188829000Y-130638500D02*
X188829000Y-125748600D01*
X188829000Y-125748600D02*
X193289000Y-121288600D01*
%TO.N,/Optical Link/FD_AN*%
X184829000Y-133238500D02*
X185869000Y-134278500D01*
X185869000Y-134278500D02*
X185869000Y-140638500D01*
%TO.N,TX_OPTICAL*%
X151794800Y-137252700D02*
X144598000Y-137252700D01*
X130110400Y-122765100D02*
X115313200Y-122765100D01*
X144598000Y-137252700D02*
X130110400Y-122765100D01*
X115313200Y-122765100D02*
X115141100Y-122593000D01*
X153329000Y-135718500D02*
X151794800Y-137252700D01*
%TO.N,RX_OPTICAL*%
X164567300Y-132068400D02*
X164329000Y-132068400D01*
X132597100Y-122112400D02*
X147337200Y-136852500D01*
X160829000Y-119688600D02*
X161146600Y-119688600D01*
X165925000Y-130710700D02*
X164567300Y-132068400D01*
X164329000Y-133218500D02*
X163178900Y-133218500D01*
X164329000Y-133218500D02*
X164329000Y-132068400D01*
X148420300Y-136852500D02*
X152054300Y-133218500D01*
X161146600Y-119688600D02*
X165925000Y-124467000D01*
X165925000Y-124467000D02*
X165925000Y-130710700D01*
X147337200Y-136852500D02*
X148420300Y-136852500D01*
X160829000Y-118638500D02*
X160829000Y-119688600D01*
X152054300Y-133218500D02*
X163178900Y-133218500D01*
X116216700Y-122112400D02*
X132597100Y-122112400D01*
%TO.N,Net-(LED1-A)*%
X202000000Y-149000000D02*
X202000000Y-144580000D01*
%TO.N,Net-(LED2-A)*%
X119000000Y-148718500D02*
X119500000Y-149218500D01*
X119500000Y-149218500D02*
X119500000Y-155138500D01*
%TO.N,Net-(Q1-E)*%
X153289000Y-119138500D02*
X153289000Y-118088400D01*
X152669000Y-117468400D02*
X152669000Y-112138500D01*
X153289000Y-118088400D02*
X152669000Y-117468400D01*
%TO.N,Net-(Q2-G)*%
X153329000Y-125558500D02*
X153329000Y-124458400D01*
X153996400Y-102638500D02*
X151527300Y-105107600D01*
X151527300Y-122656700D02*
X153329000Y-124458400D01*
X151527300Y-122656700D02*
X150898600Y-122656700D01*
X151527300Y-105107600D02*
X151527300Y-122656700D01*
X150898600Y-122656700D02*
X148000000Y-125555300D01*
X155249000Y-102638500D02*
X153996400Y-102638500D01*
%TO.N,Net-(Q2-D)*%
X161460700Y-105605600D02*
X179136100Y-105605600D01*
X159041600Y-103186500D02*
X161460700Y-105605600D01*
X159041600Y-102638500D02*
X159041600Y-103186500D01*
X179136100Y-105605600D02*
X188669000Y-115138500D01*
X157789000Y-102638500D02*
X159041600Y-102638500D01*
%TO.N,Net-(Q3-B)*%
X162829000Y-112138500D02*
X162829000Y-113238600D01*
X162099000Y-118638500D02*
X162099000Y-113968600D01*
X162099000Y-113968600D02*
X162829000Y-113238600D01*
%TO.N,LCD_E*%
X124430000Y-94500000D02*
X124430000Y-111533100D01*
X115778100Y-120185000D02*
X115778100Y-120084400D01*
X124430000Y-111533100D02*
X115778100Y-120185000D01*
%TO.N,LCD_R{slash}W*%
X126970000Y-94500000D02*
X126970000Y-113658000D01*
X126970000Y-113658000D02*
X120341000Y-120287000D01*
%TO.N,STM_RX*%
X120460400Y-116563500D02*
X116339300Y-120684600D01*
X116339300Y-120684600D02*
X115593700Y-120684600D01*
X115593700Y-120684600D02*
X110565900Y-125712400D01*
X110565900Y-125712400D02*
X110565900Y-133330700D01*
%TO.N,LCD_RST*%
X112302900Y-122581500D02*
X96490000Y-106768600D01*
X96490000Y-106768600D02*
X96490000Y-94500000D01*
%TO.N,Net-(U1-VBAT)*%
X95550300Y-46838300D02*
X92750100Y-49638500D01*
X115170200Y-112396400D02*
X114178400Y-113388200D01*
X89800000Y-49638500D02*
X92750100Y-49638500D01*
X116847600Y-49638500D02*
X115170200Y-51315900D01*
X115170200Y-51315900D02*
X110692600Y-46838300D01*
X118200000Y-49638500D02*
X116847600Y-49638500D01*
X110692600Y-46838300D02*
X95550300Y-46838300D01*
X115170200Y-51315900D02*
X115170200Y-112396400D01*
%TO.N,LCD_RS*%
X120578400Y-120921600D02*
X119698800Y-120921600D01*
X129510000Y-111990000D02*
X120578400Y-120921600D01*
X129510000Y-94500000D02*
X129510000Y-111990000D01*
%TO.N,Net-(U1-PH3)*%
X122829000Y-88638500D02*
X122829000Y-106368800D01*
X122829000Y-106368800D02*
X118344700Y-110853100D01*
%TD*%
M02*
