%TF.GenerationSoftware,KiCad,Pcbnew,9.0.0*%
%TF.CreationDate,2025-05-12T01:47:32+10:00*%
%TF.ProjectId,Control_Unit,436f6e74-726f-46c5-9f55-6e69742e6b69,rev?*%
%TF.SameCoordinates,Original*%
%TF.FileFunction,Profile,NP*%
%FSLAX46Y46*%
G04 Gerber Fmt 4.6, Leading zero omitted, Abs format (unit mm)*
G04 Created by KiCad (PCBNEW 9.0.0) date 2025-05-12 01:47:32*
%MOMM*%
%LPD*%
G01*
G04 APERTURE LIST*
%TA.AperFunction,Profile*%
%ADD10C,0.050000*%
%TD*%
%TA.AperFunction,Profile*%
%ADD11C,2.375000*%
%TD*%
%TA.AperFunction,Profile*%
%ADD12C,0.120000*%
%TD*%
%TA.AperFunction,Profile*%
%ADD13C,0.010000*%
%TD*%
G04 APERTURE END LIST*
D10*
X68829000Y-23138480D02*
X207829000Y-23138480D01*
X207829000Y-162138480D01*
X68829000Y-162138480D01*
X68829000Y-23138480D01*
%TO.C,U4*%
D11*
X78587500Y-29500000D02*
G75*
G02*
X76212500Y-29500000I-1187500J0D01*
G01*
X76212500Y-29500000D02*
G75*
G02*
X78587500Y-29500000I1187500J0D01*
G01*
X78587500Y-94375000D02*
G75*
G02*
X76212500Y-94375000I-1187500J0D01*
G01*
X76212500Y-94375000D02*
G75*
G02*
X78587500Y-94375000I1187500J0D01*
G01*
X166462500Y-29500000D02*
G75*
G02*
X164087500Y-29500000I-1187500J0D01*
G01*
X164087500Y-29500000D02*
G75*
G02*
X166462500Y-29500000I1187500J0D01*
G01*
X166462500Y-94375000D02*
G75*
G02*
X164087500Y-94375000I-1187500J0D01*
G01*
X164087500Y-94375000D02*
G75*
G02*
X166462500Y-94375000I1187500J0D01*
G01*
D12*
%TO.C,U9*%
X176529000Y-125688500D02*
G75*
G02*
X173129000Y-125688500I-1700000J0D01*
G01*
X173129000Y-125688500D02*
G75*
G02*
X176529000Y-125688500I1700000J0D01*
G01*
X176529000Y-135688500D02*
G75*
G02*
X173129000Y-135688500I-1700000J0D01*
G01*
X173129000Y-135688500D02*
G75*
G02*
X176529000Y-135688500I1700000J0D01*
G01*
X196529000Y-125688500D02*
G75*
G02*
X193129000Y-125688500I-1700000J0D01*
G01*
X193129000Y-125688500D02*
G75*
G02*
X196529000Y-125688500I1700000J0D01*
G01*
X196529000Y-135688500D02*
G75*
G02*
X193129000Y-135688500I-1700000J0D01*
G01*
X193129000Y-135688500D02*
G75*
G02*
X196529000Y-135688500I1700000J0D01*
G01*
D13*
%TO.C,SW2*%
X160149000Y-145388500D02*
X160149000Y-146838500D01*
X160149000Y-146838500D02*
X163349000Y-146838500D01*
X163349000Y-145388500D02*
X160149000Y-145388500D01*
X163349000Y-146838500D02*
X163349000Y-145388500D01*
X163649000Y-156438500D02*
X166849000Y-156438500D01*
X163649000Y-157888500D02*
X163649000Y-156438500D01*
X166849000Y-156438500D02*
X166849000Y-157888500D01*
X166849000Y-157888500D02*
X163649000Y-157888500D01*
X167149000Y-145388500D02*
X170349000Y-145388500D01*
X167149000Y-146838500D02*
X167149000Y-145388500D01*
X170349000Y-145388500D02*
X170349000Y-146838500D01*
X170349000Y-146838500D02*
X167149000Y-146838500D01*
%TD*%
M02*
