%TF.GenerationSoftware,KiCad,Pcbnew,9.0.1-9.0.1-0~ubuntu24.04.1*%
%TF.CreationDate,2025-05-12T01:42:28+10:00*%
%TF.ProjectId,Sensor_Unit,53656e73-6f72-45f5-956e-69742e6b6963,rev?*%
%TF.SameCoordinates,Original*%
%TF.FileFunction,Soldermask,Bot*%
%TF.FilePolarity,Negative*%
%FSLAX46Y46*%
G04 Gerber Fmt 4.6, Leading zero omitted, Abs format (unit mm)*
G04 Created by KiCad (PCBNEW 9.0.1-9.0.1-0~ubuntu24.04.1) date 2025-05-12 01:42:28*
%MOMM*%
%LPD*%
G01*
G04 APERTURE LIST*
G04 Aperture macros list*
%AMRoundRect*
0 Rectangle with rounded corners*
0 $1 Rounding radius*
0 $2 $3 $4 $5 $6 $7 $8 $9 X,Y pos of 4 corners*
0 Add a 4 corners polygon primitive as box body*
4,1,4,$2,$3,$4,$5,$6,$7,$8,$9,$2,$3,0*
0 Add four circle primitives for the rounded corners*
1,1,$1+$1,$2,$3*
1,1,$1+$1,$4,$5*
1,1,$1+$1,$6,$7*
1,1,$1+$1,$8,$9*
0 Add four rect primitives between the rounded corners*
20,1,$1+$1,$2,$3,$4,$5,0*
20,1,$1+$1,$4,$5,$6,$7,0*
20,1,$1+$1,$6,$7,$8,$9,0*
20,1,$1+$1,$8,$9,$2,$3,0*%
G04 Aperture macros list end*
%ADD10C,3.450000*%
%ADD11C,1.734000*%
%ADD12C,2.057400*%
%ADD13R,2.057400X2.057400*%
%ADD14R,1.371600X1.371600*%
%ADD15C,1.371600*%
%ADD16R,1.800000X1.800000*%
%ADD17C,1.800000*%
%ADD18C,1.600000*%
%ADD19O,1.600000X1.600000*%
%ADD20R,1.320800X1.320800*%
%ADD21C,1.320800*%
%ADD22R,2.000000X1.905000*%
%ADD23O,2.000000X1.905000*%
%ADD24RoundRect,0.250000X-0.550000X0.950000X-0.550000X-0.950000X0.550000X-0.950000X0.550000X0.950000X0*%
%ADD25O,1.600000X2.400000*%
%ADD26C,3.000000*%
%ADD27R,1.879600X1.879600*%
%ADD28C,1.879600*%
%ADD29R,1.200000X1.200000*%
%ADD30C,1.200000*%
%ADD31R,1.700000X1.700000*%
%ADD32O,1.700000X1.700000*%
%ADD33R,1.600000X1.600000*%
%ADD34C,2.154000*%
%ADD35R,1.050000X1.500000*%
%ADD36O,1.050000X1.500000*%
%ADD37C,1.168400*%
%ADD38R,1.295400X1.295400*%
%ADD39C,1.295400*%
%ADD40R,2.200000X2.200000*%
%ADD41O,2.200000X2.200000*%
%ADD42R,1.498600X1.498600*%
%ADD43C,1.498600*%
%ADD44C,1.700000*%
%ADD45RoundRect,0.250000X0.337500X0.475000X-0.337500X0.475000X-0.337500X-0.475000X0.337500X-0.475000X0*%
%ADD46C,6.000000*%
G04 APERTURE END LIST*
D10*
%TO.C,BT1*%
X89000000Y-53000000D03*
X118850000Y-53000000D03*
D11*
X106150000Y-26580000D03*
X118850000Y-26580000D03*
%TD*%
%TO.C,BT2*%
X69300000Y-26580000D03*
X56600000Y-26580000D03*
D10*
X69300000Y-53000000D03*
X39450000Y-53000000D03*
%TD*%
D12*
%TO.C,SW2*%
X33060400Y-160319401D03*
X33060400Y-155619401D03*
D13*
X33060400Y-150919400D03*
%TD*%
D14*
%TO.C,U17*%
X91190000Y-104190000D03*
D15*
X91190000Y-106730000D03*
X91190000Y-109270000D03*
X91190000Y-111810000D03*
X98810000Y-111810000D03*
X98810000Y-109270000D03*
X98810000Y-106730000D03*
X98810000Y-104190000D03*
%TD*%
D16*
%TO.C,LED19*%
X89181800Y-148906000D03*
D17*
X91721800Y-148906000D03*
%TD*%
D18*
%TO.C,R15*%
X55920000Y-134750000D03*
D19*
X66080000Y-134750000D03*
%TD*%
D18*
%TO.C,R38*%
X112697500Y-115902600D03*
D19*
X112697500Y-126062600D03*
%TD*%
D20*
%TO.C,U10*%
X44716300Y-113073400D03*
D21*
X44716300Y-115613400D03*
X44716300Y-118153400D03*
X44716300Y-120693400D03*
X52336300Y-120693400D03*
X52336300Y-118153400D03*
X52336300Y-115613400D03*
X52336300Y-113073400D03*
%TD*%
D22*
%TO.C,U9*%
X57000000Y-122920000D03*
D23*
X57000000Y-125460000D03*
X57000000Y-128000000D03*
%TD*%
D16*
%TO.C,LED16*%
X139508200Y-142906500D03*
D17*
X142048200Y-142906500D03*
%TD*%
D24*
%TO.C,U23*%
X62540000Y-84380000D03*
D25*
X60000000Y-84380000D03*
X57460000Y-84380000D03*
X54920000Y-84380000D03*
X52380000Y-84380000D03*
X49840000Y-84380000D03*
X47300000Y-84380000D03*
X44760000Y-84380000D03*
X44760000Y-92000000D03*
X47300000Y-92000000D03*
X49840000Y-92000000D03*
X52380000Y-92000000D03*
X54920000Y-92000000D03*
X57460000Y-92000000D03*
X60000000Y-92000000D03*
X62540000Y-92000000D03*
%TD*%
D26*
%TO.C,TP2*%
X95000000Y-86000000D03*
%TD*%
%TO.C,TP5*%
X73950000Y-85950000D03*
%TD*%
D18*
%TO.C,R44*%
X143852600Y-126074300D03*
D19*
X143852600Y-115914300D03*
%TD*%
D27*
%TO.C,U8*%
X33000000Y-145080000D03*
D28*
X33000000Y-142540000D03*
X33000000Y-140000000D03*
%TD*%
D18*
%TO.C,R16*%
X55920000Y-138800000D03*
D19*
X66080000Y-138800000D03*
%TD*%
D26*
%TO.C,TP9*%
X84050000Y-85950000D03*
%TD*%
D16*
%TO.C,LED11*%
X110389400Y-143082300D03*
D17*
X112929400Y-143082300D03*
%TD*%
D18*
%TO.C,R57*%
X131920000Y-102050000D03*
D19*
X142080000Y-102050000D03*
%TD*%
D18*
%TO.C,R17*%
X55920000Y-142850000D03*
D19*
X66080000Y-142850000D03*
%TD*%
D16*
%TO.C,LED8*%
X139483200Y-136156500D03*
D17*
X142023200Y-136156500D03*
%TD*%
D18*
%TO.C,R49*%
X102818700Y-126131300D03*
D19*
X102818700Y-115971300D03*
%TD*%
D18*
%TO.C,R36*%
X146905200Y-126076100D03*
D19*
X146905200Y-115916100D03*
%TD*%
D18*
%TO.C,R28*%
X109247700Y-126160000D03*
D19*
X109247700Y-116000000D03*
%TD*%
D18*
%TO.C,R25*%
X65037200Y-100304200D03*
D19*
X65037200Y-110464200D03*
%TD*%
D29*
%TO.C,C17*%
X49337700Y-128496800D03*
D30*
X51337700Y-128496800D03*
%TD*%
D14*
%TO.C,U19*%
X153540000Y-74380000D03*
D15*
X151000000Y-74380000D03*
X148460000Y-74380000D03*
X145920000Y-74380000D03*
X145920000Y-82000000D03*
X148460000Y-82000000D03*
X151000000Y-82000000D03*
X153540000Y-82000000D03*
%TD*%
D18*
%TO.C,R3*%
X152250000Y-65500000D03*
D19*
X142090000Y-65500000D03*
%TD*%
D26*
%TO.C,TP6*%
X73950000Y-91000000D03*
%TD*%
D31*
%TO.C,J6*%
X38780200Y-91121900D03*
D32*
X38780200Y-93661900D03*
X38780200Y-96201900D03*
X38780200Y-98741900D03*
%TD*%
D26*
%TO.C,TP16*%
X135500000Y-47000000D03*
%TD*%
D18*
%TO.C,R40*%
X124967100Y-115920000D03*
D19*
X124967100Y-126080000D03*
%TD*%
D33*
%TO.C,D3*%
X157740100Y-92276500D03*
D19*
X165360100Y-92276500D03*
%TD*%
D34*
%TO.C,J11*%
X129221800Y-150656200D03*
X134221800Y-150656200D03*
%TD*%
D18*
%TO.C,R41*%
X131130000Y-115924000D03*
D19*
X131130000Y-126084000D03*
%TD*%
D18*
%TO.C,R37*%
X140800000Y-126074700D03*
D19*
X140800000Y-115914700D03*
%TD*%
D14*
%TO.C,U16*%
X80190000Y-104190000D03*
D15*
X80190000Y-106730000D03*
X80190000Y-109270000D03*
X80190000Y-111810000D03*
X87810000Y-111810000D03*
X87810000Y-109270000D03*
X87810000Y-106730000D03*
X87810000Y-104190000D03*
%TD*%
D16*
%TO.C,LED7*%
X145983200Y-136156500D03*
D17*
X148523200Y-136156500D03*
%TD*%
D18*
%TO.C,R42*%
X156952200Y-126080000D03*
D19*
X156952200Y-115920000D03*
%TD*%
D22*
%TO.C,U11*%
X55000000Y-107460000D03*
D23*
X55000000Y-110000000D03*
X55000000Y-112540000D03*
%TD*%
D26*
%TO.C,TP7*%
X79000000Y-85950000D03*
%TD*%
D18*
%TO.C,R39*%
X118834600Y-115902600D03*
D19*
X118834600Y-126062600D03*
%TD*%
D18*
%TO.C,R53*%
X131920000Y-85850000D03*
D19*
X142080000Y-85850000D03*
%TD*%
D16*
%TO.C,LED4*%
X116854400Y-136332300D03*
D17*
X119394400Y-136332300D03*
%TD*%
D26*
%TO.C,TP15*%
X140000000Y-47750000D03*
%TD*%
%TO.C,TP10*%
X84050000Y-91000000D03*
%TD*%
D22*
%TO.C,Q2*%
X70000000Y-140460000D03*
D23*
X70000000Y-143000000D03*
X70000000Y-145540000D03*
%TD*%
D18*
%TO.C,R59*%
X98080000Y-117000000D03*
D19*
X87920000Y-117000000D03*
%TD*%
D35*
%TO.C,Q3*%
X69373900Y-157967200D03*
D36*
X70643900Y-157967200D03*
X71913900Y-157967200D03*
%TD*%
D18*
%TO.C,R14*%
X63794700Y-131702200D03*
D19*
X63794700Y-121542200D03*
%TD*%
D16*
%TO.C,LED12*%
X116904400Y-143082300D03*
D17*
X119444400Y-143082300D03*
%TD*%
D14*
%TO.C,U20*%
X153350000Y-85190000D03*
D15*
X150810000Y-85190000D03*
X148270000Y-85190000D03*
X145730000Y-85190000D03*
X145730000Y-92810000D03*
X148270000Y-92810000D03*
X150810000Y-92810000D03*
X153350000Y-92810000D03*
%TD*%
D18*
%TO.C,R10*%
X157280100Y-75276500D03*
D19*
X167440100Y-75276500D03*
%TD*%
D18*
%TO.C,R27*%
X65080000Y-97000000D03*
D19*
X54920000Y-97000000D03*
%TD*%
D18*
%TO.C,R61*%
X131920000Y-110150000D03*
D19*
X142080000Y-110150000D03*
%TD*%
D31*
%TO.C,J4*%
X31307600Y-107535000D03*
D32*
X31307600Y-110075000D03*
X31307600Y-112615000D03*
%TD*%
D18*
%TO.C,L3*%
X30920000Y-117000000D03*
D19*
X41080000Y-117000000D03*
%TD*%
D18*
%TO.C,R12*%
X157280100Y-81276500D03*
D19*
X167440100Y-81276500D03*
%TD*%
D37*
%TO.C,J1*%
X164604600Y-150354700D03*
X163334600Y-150354700D03*
X164604600Y-149084700D03*
X163334600Y-149084700D03*
X164604600Y-147814700D03*
X163334600Y-147814700D03*
X164604600Y-146544700D03*
X163334600Y-146544700D03*
X164604600Y-145274700D03*
X163334600Y-145274700D03*
%TD*%
D34*
%TO.C,J8*%
X97721800Y-150656200D03*
X102721800Y-150656200D03*
%TD*%
D21*
%TO.C,R46*%
X86826200Y-98409400D03*
X84286200Y-98409400D03*
D20*
X81746200Y-98409400D03*
%TD*%
D18*
%TO.C,R47*%
X164000000Y-115920000D03*
D19*
X164000000Y-126080000D03*
%TD*%
D18*
%TO.C,R50*%
X131920000Y-73700000D03*
D19*
X142080000Y-73700000D03*
%TD*%
D16*
%TO.C,LED10*%
X103889400Y-143082300D03*
D17*
X106429400Y-143082300D03*
%TD*%
D38*
%TO.C,U15*%
X104000000Y-95460000D03*
D39*
X104000000Y-98000000D03*
X104000000Y-100540000D03*
X104000000Y-103080000D03*
X104000000Y-105620000D03*
X104000000Y-108160000D03*
X104000000Y-110700000D03*
X111620000Y-110700000D03*
X111620000Y-108160000D03*
X111620000Y-105620000D03*
X111620000Y-103080000D03*
X111620000Y-100540000D03*
X111620000Y-98000000D03*
X111620000Y-95460000D03*
%TD*%
D18*
%TO.C,R19*%
X55920000Y-150950000D03*
D19*
X66080000Y-150950000D03*
%TD*%
D18*
%TO.C,R55*%
X131920000Y-93950000D03*
D19*
X142080000Y-93950000D03*
%TD*%
D18*
%TO.C,R58*%
X131920000Y-106100000D03*
D19*
X142080000Y-106100000D03*
%TD*%
D18*
%TO.C,R26*%
X61683900Y-110558700D03*
D19*
X61683900Y-100398700D03*
%TD*%
D18*
%TO.C,R6*%
X156920000Y-60000000D03*
D19*
X167080000Y-60000000D03*
%TD*%
D26*
%TO.C,TP13*%
X130750000Y-47250000D03*
%TD*%
D31*
%TO.C,J5*%
X35086000Y-107653000D03*
D32*
X35086000Y-110193000D03*
X35086000Y-112733000D03*
%TD*%
D18*
%TO.C,R35*%
X153000000Y-126080000D03*
D19*
X153000000Y-115920000D03*
%TD*%
D16*
%TO.C,LED14*%
X155181800Y-142656200D03*
D17*
X157721800Y-142656200D03*
%TD*%
D16*
%TO.C,LED2*%
X103889400Y-136332300D03*
D17*
X106429400Y-136332300D03*
%TD*%
D16*
%TO.C,LED5*%
X123389400Y-136332300D03*
D17*
X125929400Y-136332300D03*
%TD*%
D18*
%TO.C,R7*%
X157200100Y-65276500D03*
D19*
X167360100Y-65276500D03*
%TD*%
D18*
%TO.C,R54*%
X131920000Y-89900000D03*
D19*
X142080000Y-89900000D03*
%TD*%
D38*
%TO.C,U14*%
X117000000Y-95460000D03*
D39*
X117000000Y-98000000D03*
X117000000Y-100540000D03*
X117000000Y-103080000D03*
X117000000Y-105620000D03*
X117000000Y-108160000D03*
X117000000Y-110700000D03*
X124620000Y-110700000D03*
X124620000Y-108160000D03*
X124620000Y-105620000D03*
X124620000Y-103080000D03*
X124620000Y-100540000D03*
X124620000Y-98000000D03*
X124620000Y-95460000D03*
%TD*%
D18*
%TO.C,R52*%
X131920000Y-81800000D03*
D19*
X142080000Y-81800000D03*
%TD*%
D34*
%TO.C,J10*%
X118721800Y-150656200D03*
X123721800Y-150656200D03*
%TD*%
D26*
%TO.C,TP8*%
X79000000Y-91000000D03*
%TD*%
D16*
%TO.C,LED15*%
X146008200Y-142906500D03*
D17*
X148548200Y-142906500D03*
%TD*%
D21*
%TO.C,R48*%
X75546100Y-98490900D03*
X73006100Y-98490900D03*
D20*
X70466100Y-98490900D03*
%TD*%
D31*
%TO.C,J12*%
X31191300Y-95325300D03*
D32*
X31191300Y-97865300D03*
X31191300Y-100405300D03*
X31191300Y-102945300D03*
%TD*%
D18*
%TO.C,R51*%
X131920000Y-77750000D03*
D19*
X142080000Y-77750000D03*
%TD*%
D18*
%TO.C,R13*%
X157280100Y-84276500D03*
D19*
X167440100Y-84276500D03*
%TD*%
D18*
%TO.C,R56*%
X131920000Y-98000000D03*
D19*
X142080000Y-98000000D03*
%TD*%
D16*
%TO.C,LED17*%
X132968200Y-142906500D03*
D17*
X135508200Y-142906500D03*
%TD*%
D16*
%TO.C,LED3*%
X110389400Y-136332300D03*
D17*
X112929400Y-136332300D03*
%TD*%
D34*
%TO.C,J3*%
X152221800Y-150656200D03*
X157221800Y-150656200D03*
%TD*%
D18*
%TO.C,R30*%
X115766000Y-115902600D03*
D19*
X115766000Y-126062600D03*
%TD*%
D18*
%TO.C,R8*%
X157280100Y-68276500D03*
D19*
X167440100Y-68276500D03*
%TD*%
D16*
%TO.C,LED13*%
X123414400Y-143082300D03*
D17*
X125954400Y-143082300D03*
%TD*%
D16*
%TO.C,LED6*%
X155156800Y-135906200D03*
D17*
X157696800Y-135906200D03*
%TD*%
D18*
%TO.C,R18*%
X55920000Y-146900000D03*
D19*
X66080000Y-146900000D03*
%TD*%
D18*
%TO.C,R9*%
X157280100Y-71626500D03*
D19*
X167440100Y-71626500D03*
%TD*%
D18*
%TO.C,R34*%
X160000000Y-126080000D03*
D19*
X160000000Y-115920000D03*
%TD*%
D26*
%TO.C,TP11*%
X138250000Y-52750000D03*
%TD*%
D35*
%TO.C,Q1*%
X69373900Y-152177200D03*
D36*
X70643900Y-152177200D03*
X71913900Y-152177200D03*
%TD*%
D18*
%TO.C,R43*%
X149952200Y-126080000D03*
D19*
X149952200Y-115920000D03*
%TD*%
D26*
%TO.C,TP1*%
X89850000Y-86050000D03*
%TD*%
%TO.C,TP17*%
X138250000Y-58250000D03*
%TD*%
D18*
%TO.C,R11*%
X157280100Y-78276500D03*
D19*
X167440100Y-78276500D03*
%TD*%
D26*
%TO.C,TP14*%
X152000000Y-96750000D03*
%TD*%
D34*
%TO.C,J2*%
X141721800Y-150656200D03*
X146721800Y-150656200D03*
%TD*%
D18*
%TO.C,R31*%
X121766000Y-115902600D03*
D19*
X121766000Y-126062600D03*
%TD*%
D26*
%TO.C,TP12*%
X152750000Y-70750000D03*
%TD*%
D18*
%TO.C,R32*%
X128044600Y-115920000D03*
D19*
X128044600Y-126080000D03*
%TD*%
D18*
%TO.C,R4*%
X151745000Y-27500000D03*
D19*
X161905000Y-27500000D03*
%TD*%
D29*
%TO.C,C21*%
X61000000Y-118000000D03*
D30*
X63000000Y-118000000D03*
%TD*%
D40*
%TO.C,D23*%
X45000000Y-134080000D03*
D41*
X45000000Y-123920000D03*
%TD*%
D33*
%TO.C,D2*%
X157740100Y-88726500D03*
D19*
X165360100Y-88726500D03*
%TD*%
D42*
%TO.C,SW3*%
X165989401Y-132656199D03*
D43*
X165989401Y-139156200D03*
X161489400Y-132656199D03*
X161489400Y-139156200D03*
%TD*%
D31*
%TO.C,J7*%
X38785700Y-102473300D03*
D32*
X38785700Y-105013300D03*
X38785700Y-107553300D03*
X38785700Y-110093300D03*
X38785700Y-112633300D03*
%TD*%
D18*
%TO.C,R45*%
X137755800Y-126075100D03*
D19*
X137755800Y-115915100D03*
%TD*%
D29*
%TO.C,C15*%
X49287500Y-133965100D03*
D30*
X51287500Y-133965100D03*
%TD*%
D31*
%TO.C,J13*%
X34929500Y-95232300D03*
D44*
X34929500Y-97772300D03*
X34929500Y-100312300D03*
X34929500Y-102852300D03*
%TD*%
D29*
%TO.C,C24*%
X48000000Y-98000000D03*
D30*
X50000000Y-98000000D03*
%TD*%
D16*
%TO.C,U24*%
X43076300Y-149335000D03*
D17*
X48176300Y-149335000D03*
D16*
X45576300Y-153335000D03*
D17*
X45576300Y-145335000D03*
%TD*%
D18*
%TO.C,R5*%
X151745000Y-35050000D03*
D19*
X161905000Y-35050000D03*
%TD*%
D16*
%TO.C,LED9*%
X132943200Y-136156500D03*
D17*
X135483200Y-136156500D03*
%TD*%
D26*
%TO.C,TP3*%
X68900000Y-85950000D03*
%TD*%
D18*
%TO.C,R60*%
X55920000Y-159050000D03*
D19*
X66080000Y-159050000D03*
%TD*%
D34*
%TO.C,J9*%
X108221800Y-150656200D03*
X113221800Y-150656200D03*
%TD*%
D18*
%TO.C,R20*%
X55920000Y-155000000D03*
D19*
X66080000Y-155000000D03*
%TD*%
D18*
%TO.C,R2*%
X152330000Y-61500000D03*
D19*
X142170000Y-61500000D03*
%TD*%
D26*
%TO.C,TP18*%
X134750000Y-64250000D03*
%TD*%
D18*
%TO.C,R1*%
X152330000Y-57500000D03*
D19*
X142170000Y-57500000D03*
%TD*%
D18*
%TO.C,R29*%
X106000000Y-126080000D03*
D19*
X106000000Y-115920000D03*
%TD*%
D26*
%TO.C,TP4*%
X68900000Y-91000000D03*
%TD*%
D16*
%TO.C,LED1*%
X89128500Y-157103200D03*
D17*
X91668500Y-157103200D03*
%TD*%
D14*
%TO.C,U12*%
X69000000Y-104380000D03*
D15*
X69000000Y-106920000D03*
X69000000Y-109460000D03*
X69000000Y-112000000D03*
X76620000Y-112000000D03*
X76620000Y-109460000D03*
X76620000Y-106920000D03*
X76620000Y-104380000D03*
%TD*%
D18*
%TO.C,R33*%
X134247700Y-115947000D03*
D19*
X134247700Y-126107000D03*
%TD*%
D13*
%TO.C,CR1*%
X149500000Y-102750000D03*
D12*
X149500000Y-107450001D03*
X149500000Y-112150001D03*
%TD*%
D45*
%TO.C,C28*%
X54962500Y-88000000D03*
X52887500Y-88000000D03*
%TD*%
D46*
%TO.C,FID4*%
X125000000Y-86000000D03*
%TD*%
%TO.C,FID3*%
X33000000Y-86000000D03*
%TD*%
D18*
%TO.C,R21*%
X41080000Y-122000000D03*
D19*
X30920000Y-122000000D03*
%TD*%
D18*
%TO.C,R24*%
X41080000Y-134150000D03*
D19*
X30920000Y-134150000D03*
%TD*%
D18*
%TO.C,R23*%
X41080000Y-130100000D03*
D19*
X30920000Y-130100000D03*
%TD*%
D18*
%TO.C,R22*%
X41080000Y-126050000D03*
D19*
X30920000Y-126050000D03*
%TD*%
M02*
