%TF.GenerationSoftware,KiCad,Pcbnew,9.0.1-9.0.1-0~ubuntu24.04.1*%
%TF.CreationDate,2025-05-12T01:42:27+10:00*%
%TF.ProjectId,Sensor_Unit,53656e73-6f72-45f5-956e-69742e6b6963,rev?*%
%TF.SameCoordinates,Original*%
%TF.FileFunction,Copper,L1,Top*%
%TF.FilePolarity,Positive*%
%FSLAX46Y46*%
G04 Gerber Fmt 4.6, Leading zero omitted, Abs format (unit mm)*
G04 Created by KiCad (PCBNEW 9.0.1-9.0.1-0~ubuntu24.04.1) date 2025-05-12 01:42:27*
%MOMM*%
%LPD*%
G01*
G04 APERTURE LIST*
G04 Aperture macros list*
%AMRoundRect*
0 Rectangle with rounded corners*
0 $1 Rounding radius*
0 $2 $3 $4 $5 $6 $7 $8 $9 X,Y pos of 4 corners*
0 Add a 4 corners polygon primitive as box body*
4,1,4,$2,$3,$4,$5,$6,$7,$8,$9,$2,$3,0*
0 Add four circle primitives for the rounded corners*
1,1,$1+$1,$2,$3*
1,1,$1+$1,$4,$5*
1,1,$1+$1,$6,$7*
1,1,$1+$1,$8,$9*
0 Add four rect primitives between the rounded corners*
20,1,$1+$1,$2,$3,$4,$5,0*
20,1,$1+$1,$4,$5,$6,$7,0*
20,1,$1+$1,$6,$7,$8,$9,0*
20,1,$1+$1,$8,$9,$2,$3,0*%
G04 Aperture macros list end*
%ADD10C,0.300000*%
%TA.AperFunction,NonConductor*%
%ADD11C,0.300000*%
%TD*%
%TA.AperFunction,ComponentPad*%
%ADD12C,1.530000*%
%TD*%
%TA.AperFunction,ComponentPad*%
%ADD13C,2.057400*%
%TD*%
%TA.AperFunction,ComponentPad*%
%ADD14R,2.057400X2.057400*%
%TD*%
%TA.AperFunction,ComponentPad*%
%ADD15R,1.371600X1.371600*%
%TD*%
%TA.AperFunction,ComponentPad*%
%ADD16C,1.371600*%
%TD*%
%TA.AperFunction,ComponentPad*%
%ADD17R,1.800000X1.800000*%
%TD*%
%TA.AperFunction,ComponentPad*%
%ADD18C,1.800000*%
%TD*%
%TA.AperFunction,SMDPad,CuDef*%
%ADD19RoundRect,0.100000X-0.217500X-0.100000X0.217500X-0.100000X0.217500X0.100000X-0.217500X0.100000X0*%
%TD*%
%TA.AperFunction,ComponentPad*%
%ADD20C,1.600000*%
%TD*%
%TA.AperFunction,ComponentPad*%
%ADD21O,1.600000X1.600000*%
%TD*%
%TA.AperFunction,SMDPad,CuDef*%
%ADD22RoundRect,0.250000X0.337500X0.475000X-0.337500X0.475000X-0.337500X-0.475000X0.337500X-0.475000X0*%
%TD*%
%TA.AperFunction,ComponentPad*%
%ADD23R,1.320800X1.320800*%
%TD*%
%TA.AperFunction,ComponentPad*%
%ADD24C,1.320800*%
%TD*%
%TA.AperFunction,ComponentPad*%
%ADD25R,2.000000X1.905000*%
%TD*%
%TA.AperFunction,ComponentPad*%
%ADD26O,2.000000X1.905000*%
%TD*%
%TA.AperFunction,ComponentPad*%
%ADD27RoundRect,0.250000X-0.550000X0.950000X-0.550000X-0.950000X0.550000X-0.950000X0.550000X0.950000X0*%
%TD*%
%TA.AperFunction,ComponentPad*%
%ADD28O,1.600000X2.400000*%
%TD*%
%TA.AperFunction,ComponentPad*%
%ADD29C,3.000000*%
%TD*%
%TA.AperFunction,SMDPad,CuDef*%
%ADD30RoundRect,0.100000X0.100000X-0.217500X0.100000X0.217500X-0.100000X0.217500X-0.100000X-0.217500X0*%
%TD*%
%TA.AperFunction,ComponentPad*%
%ADD31R,1.879600X1.879600*%
%TD*%
%TA.AperFunction,ComponentPad*%
%ADD32C,1.879600*%
%TD*%
%TA.AperFunction,SMDPad,CuDef*%
%ADD33RoundRect,0.375000X-0.625000X-0.375000X0.625000X-0.375000X0.625000X0.375000X-0.625000X0.375000X0*%
%TD*%
%TA.AperFunction,SMDPad,CuDef*%
%ADD34RoundRect,0.500000X-0.500000X-1.400000X0.500000X-1.400000X0.500000X1.400000X-0.500000X1.400000X0*%
%TD*%
%TA.AperFunction,SMDPad,CuDef*%
%ADD35RoundRect,0.250000X-0.337500X-0.475000X0.337500X-0.475000X0.337500X0.475000X-0.337500X0.475000X0*%
%TD*%
%TA.AperFunction,SMDPad,CuDef*%
%ADD36RoundRect,0.087500X-0.187500X-0.087500X0.187500X-0.087500X0.187500X0.087500X-0.187500X0.087500X0*%
%TD*%
%TA.AperFunction,SMDPad,CuDef*%
%ADD37RoundRect,0.087500X-0.087500X-0.187500X0.087500X-0.187500X0.087500X0.187500X-0.087500X0.187500X0*%
%TD*%
%TA.AperFunction,ComponentPad*%
%ADD38R,1.200000X1.200000*%
%TD*%
%TA.AperFunction,ComponentPad*%
%ADD39C,1.200000*%
%TD*%
%TA.AperFunction,ComponentPad*%
%ADD40R,1.700000X1.700000*%
%TD*%
%TA.AperFunction,ComponentPad*%
%ADD41O,1.700000X1.700000*%
%TD*%
%TA.AperFunction,ComponentPad*%
%ADD42R,1.600000X1.600000*%
%TD*%
%TA.AperFunction,SMDPad,CuDef*%
%ADD43RoundRect,0.250000X-0.475000X0.337500X-0.475000X-0.337500X0.475000X-0.337500X0.475000X0.337500X0*%
%TD*%
%TA.AperFunction,ComponentPad*%
%ADD44C,1.950000*%
%TD*%
%TA.AperFunction,SMDPad,CuDef*%
%ADD45RoundRect,0.250000X0.475000X-0.337500X0.475000X0.337500X-0.475000X0.337500X-0.475000X-0.337500X0*%
%TD*%
%TA.AperFunction,SMDPad,CuDef*%
%ADD46O,1.400000X0.449999*%
%TD*%
%TA.AperFunction,ComponentPad*%
%ADD47R,1.050000X1.500000*%
%TD*%
%TA.AperFunction,ComponentPad*%
%ADD48O,1.050000X1.500000*%
%TD*%
%TA.AperFunction,SMDPad,CuDef*%
%ADD49RoundRect,0.150000X-0.825000X-0.150000X0.825000X-0.150000X0.825000X0.150000X-0.825000X0.150000X0*%
%TD*%
%TA.AperFunction,ComponentPad*%
%ADD50C,1.168400*%
%TD*%
%TA.AperFunction,ComponentPad*%
%ADD51R,1.295400X1.295400*%
%TD*%
%TA.AperFunction,ComponentPad*%
%ADD52C,1.295400*%
%TD*%
%TA.AperFunction,SMDPad,CuDef*%
%ADD53R,1.460500X0.558800*%
%TD*%
%TA.AperFunction,SMDPad,CuDef*%
%ADD54C,3.000000*%
%TD*%
%TA.AperFunction,SMDPad,CuDef*%
%ADD55RoundRect,0.100000X-0.712500X-0.100000X0.712500X-0.100000X0.712500X0.100000X-0.712500X0.100000X0*%
%TD*%
%TA.AperFunction,SMDPad,CuDef*%
%ADD56RoundRect,0.250000X0.650000X-0.412500X0.650000X0.412500X-0.650000X0.412500X-0.650000X-0.412500X0*%
%TD*%
%TA.AperFunction,SMDPad,CuDef*%
%ADD57R,0.355600X1.473200*%
%TD*%
%TA.AperFunction,SMDPad,CuDef*%
%ADD58RoundRect,0.075000X-0.700000X-0.075000X0.700000X-0.075000X0.700000X0.075000X-0.700000X0.075000X0*%
%TD*%
%TA.AperFunction,SMDPad,CuDef*%
%ADD59RoundRect,0.075000X-0.075000X-0.700000X0.075000X-0.700000X0.075000X0.700000X-0.075000X0.700000X0*%
%TD*%
%TA.AperFunction,ComponentPad*%
%ADD60R,2.200000X2.200000*%
%TD*%
%TA.AperFunction,ComponentPad*%
%ADD61O,2.200000X2.200000*%
%TD*%
%TA.AperFunction,ComponentPad*%
%ADD62R,1.498600X1.498600*%
%TD*%
%TA.AperFunction,ComponentPad*%
%ADD63C,1.498600*%
%TD*%
%TA.AperFunction,ComponentPad*%
%ADD64C,1.700000*%
%TD*%
%TA.AperFunction,SMDPad,CuDef*%
%ADD65R,0.977900X0.406400*%
%TD*%
%TA.AperFunction,ViaPad*%
%ADD66C,0.600000*%
%TD*%
%TA.AperFunction,Conductor*%
%ADD67C,0.200000*%
%TD*%
G04 APERTURE END LIST*
D10*
D11*
X141173558Y-39942019D02*
X141840225Y-39942019D01*
X142125939Y-40989638D02*
X141173558Y-40989638D01*
X141173558Y-40989638D02*
X141173558Y-38989638D01*
X141173558Y-38989638D02*
X142125939Y-38989638D01*
X142983082Y-40989638D02*
X142983082Y-38989638D01*
X142983082Y-38989638D02*
X144125939Y-40989638D01*
X144125939Y-40989638D02*
X144125939Y-38989638D01*
X146125939Y-39084876D02*
X145935463Y-38989638D01*
X145935463Y-38989638D02*
X145649749Y-38989638D01*
X145649749Y-38989638D02*
X145364034Y-39084876D01*
X145364034Y-39084876D02*
X145173558Y-39275352D01*
X145173558Y-39275352D02*
X145078320Y-39465828D01*
X145078320Y-39465828D02*
X144983082Y-39846780D01*
X144983082Y-39846780D02*
X144983082Y-40132495D01*
X144983082Y-40132495D02*
X145078320Y-40513447D01*
X145078320Y-40513447D02*
X145173558Y-40703923D01*
X145173558Y-40703923D02*
X145364034Y-40894400D01*
X145364034Y-40894400D02*
X145649749Y-40989638D01*
X145649749Y-40989638D02*
X145840225Y-40989638D01*
X145840225Y-40989638D02*
X146125939Y-40894400D01*
X146125939Y-40894400D02*
X146221177Y-40799161D01*
X146221177Y-40799161D02*
X146221177Y-40132495D01*
X146221177Y-40132495D02*
X145840225Y-40132495D01*
X148125939Y-39084876D02*
X147935463Y-38989638D01*
X147935463Y-38989638D02*
X147649749Y-38989638D01*
X147649749Y-38989638D02*
X147364034Y-39084876D01*
X147364034Y-39084876D02*
X147173558Y-39275352D01*
X147173558Y-39275352D02*
X147078320Y-39465828D01*
X147078320Y-39465828D02*
X146983082Y-39846780D01*
X146983082Y-39846780D02*
X146983082Y-40132495D01*
X146983082Y-40132495D02*
X147078320Y-40513447D01*
X147078320Y-40513447D02*
X147173558Y-40703923D01*
X147173558Y-40703923D02*
X147364034Y-40894400D01*
X147364034Y-40894400D02*
X147649749Y-40989638D01*
X147649749Y-40989638D02*
X147840225Y-40989638D01*
X147840225Y-40989638D02*
X148125939Y-40894400D01*
X148125939Y-40894400D02*
X148221177Y-40799161D01*
X148221177Y-40799161D02*
X148221177Y-40132495D01*
X148221177Y-40132495D02*
X147840225Y-40132495D01*
X148887844Y-38989638D02*
X150125939Y-38989638D01*
X150125939Y-38989638D02*
X149459272Y-39751542D01*
X149459272Y-39751542D02*
X149744987Y-39751542D01*
X149744987Y-39751542D02*
X149935463Y-39846780D01*
X149935463Y-39846780D02*
X150030701Y-39942019D01*
X150030701Y-39942019D02*
X150125939Y-40132495D01*
X150125939Y-40132495D02*
X150125939Y-40608685D01*
X150125939Y-40608685D02*
X150030701Y-40799161D01*
X150030701Y-40799161D02*
X149935463Y-40894400D01*
X149935463Y-40894400D02*
X149744987Y-40989638D01*
X149744987Y-40989638D02*
X149173558Y-40989638D01*
X149173558Y-40989638D02*
X148983082Y-40894400D01*
X148983082Y-40894400D02*
X148887844Y-40799161D01*
X151268796Y-39846780D02*
X151078320Y-39751542D01*
X151078320Y-39751542D02*
X150983082Y-39656304D01*
X150983082Y-39656304D02*
X150887844Y-39465828D01*
X150887844Y-39465828D02*
X150887844Y-39370590D01*
X150887844Y-39370590D02*
X150983082Y-39180114D01*
X150983082Y-39180114D02*
X151078320Y-39084876D01*
X151078320Y-39084876D02*
X151268796Y-38989638D01*
X151268796Y-38989638D02*
X151649749Y-38989638D01*
X151649749Y-38989638D02*
X151840225Y-39084876D01*
X151840225Y-39084876D02*
X151935463Y-39180114D01*
X151935463Y-39180114D02*
X152030701Y-39370590D01*
X152030701Y-39370590D02*
X152030701Y-39465828D01*
X152030701Y-39465828D02*
X151935463Y-39656304D01*
X151935463Y-39656304D02*
X151840225Y-39751542D01*
X151840225Y-39751542D02*
X151649749Y-39846780D01*
X151649749Y-39846780D02*
X151268796Y-39846780D01*
X151268796Y-39846780D02*
X151078320Y-39942019D01*
X151078320Y-39942019D02*
X150983082Y-40037257D01*
X150983082Y-40037257D02*
X150887844Y-40227733D01*
X150887844Y-40227733D02*
X150887844Y-40608685D01*
X150887844Y-40608685D02*
X150983082Y-40799161D01*
X150983082Y-40799161D02*
X151078320Y-40894400D01*
X151078320Y-40894400D02*
X151268796Y-40989638D01*
X151268796Y-40989638D02*
X151649749Y-40989638D01*
X151649749Y-40989638D02*
X151840225Y-40894400D01*
X151840225Y-40894400D02*
X151935463Y-40799161D01*
X151935463Y-40799161D02*
X152030701Y-40608685D01*
X152030701Y-40608685D02*
X152030701Y-40227733D01*
X152030701Y-40227733D02*
X151935463Y-40037257D01*
X151935463Y-40037257D02*
X151840225Y-39942019D01*
X151840225Y-39942019D02*
X151649749Y-39846780D01*
X153268796Y-38989638D02*
X153459273Y-38989638D01*
X153459273Y-38989638D02*
X153649749Y-39084876D01*
X153649749Y-39084876D02*
X153744987Y-39180114D01*
X153744987Y-39180114D02*
X153840225Y-39370590D01*
X153840225Y-39370590D02*
X153935463Y-39751542D01*
X153935463Y-39751542D02*
X153935463Y-40227733D01*
X153935463Y-40227733D02*
X153840225Y-40608685D01*
X153840225Y-40608685D02*
X153744987Y-40799161D01*
X153744987Y-40799161D02*
X153649749Y-40894400D01*
X153649749Y-40894400D02*
X153459273Y-40989638D01*
X153459273Y-40989638D02*
X153268796Y-40989638D01*
X153268796Y-40989638D02*
X153078320Y-40894400D01*
X153078320Y-40894400D02*
X152983082Y-40799161D01*
X152983082Y-40799161D02*
X152887844Y-40608685D01*
X152887844Y-40608685D02*
X152792606Y-40227733D01*
X152792606Y-40227733D02*
X152792606Y-39751542D01*
X152792606Y-39751542D02*
X152887844Y-39370590D01*
X152887844Y-39370590D02*
X152983082Y-39180114D01*
X152983082Y-39180114D02*
X153078320Y-39084876D01*
X153078320Y-39084876D02*
X153268796Y-38989638D01*
X155173558Y-38989638D02*
X155364035Y-38989638D01*
X155364035Y-38989638D02*
X155554511Y-39084876D01*
X155554511Y-39084876D02*
X155649749Y-39180114D01*
X155649749Y-39180114D02*
X155744987Y-39370590D01*
X155744987Y-39370590D02*
X155840225Y-39751542D01*
X155840225Y-39751542D02*
X155840225Y-40227733D01*
X155840225Y-40227733D02*
X155744987Y-40608685D01*
X155744987Y-40608685D02*
X155649749Y-40799161D01*
X155649749Y-40799161D02*
X155554511Y-40894400D01*
X155554511Y-40894400D02*
X155364035Y-40989638D01*
X155364035Y-40989638D02*
X155173558Y-40989638D01*
X155173558Y-40989638D02*
X154983082Y-40894400D01*
X154983082Y-40894400D02*
X154887844Y-40799161D01*
X154887844Y-40799161D02*
X154792606Y-40608685D01*
X154792606Y-40608685D02*
X154697368Y-40227733D01*
X154697368Y-40227733D02*
X154697368Y-39751542D01*
X154697368Y-39751542D02*
X154792606Y-39370590D01*
X154792606Y-39370590D02*
X154887844Y-39180114D01*
X154887844Y-39180114D02*
X154983082Y-39084876D01*
X154983082Y-39084876D02*
X155173558Y-38989638D01*
X157935464Y-38989638D02*
X159078321Y-38989638D01*
X158506892Y-40989638D02*
X158506892Y-38989638D01*
X159744988Y-39942019D02*
X160411655Y-39942019D01*
X160697369Y-40989638D02*
X159744988Y-40989638D01*
X159744988Y-40989638D02*
X159744988Y-38989638D01*
X159744988Y-38989638D02*
X160697369Y-38989638D01*
X161459274Y-40418209D02*
X162411655Y-40418209D01*
X161268798Y-40989638D02*
X161935464Y-38989638D01*
X161935464Y-38989638D02*
X162602131Y-40989638D01*
X163268798Y-40989638D02*
X163268798Y-38989638D01*
X163268798Y-38989638D02*
X163935465Y-40418209D01*
X163935465Y-40418209D02*
X164602131Y-38989638D01*
X164602131Y-38989638D02*
X164602131Y-40989638D01*
X167459274Y-38989638D02*
X167649751Y-38989638D01*
X167649751Y-38989638D02*
X167840227Y-39084876D01*
X167840227Y-39084876D02*
X167935465Y-39180114D01*
X167935465Y-39180114D02*
X168030703Y-39370590D01*
X168030703Y-39370590D02*
X168125941Y-39751542D01*
X168125941Y-39751542D02*
X168125941Y-40227733D01*
X168125941Y-40227733D02*
X168030703Y-40608685D01*
X168030703Y-40608685D02*
X167935465Y-40799161D01*
X167935465Y-40799161D02*
X167840227Y-40894400D01*
X167840227Y-40894400D02*
X167649751Y-40989638D01*
X167649751Y-40989638D02*
X167459274Y-40989638D01*
X167459274Y-40989638D02*
X167268798Y-40894400D01*
X167268798Y-40894400D02*
X167173560Y-40799161D01*
X167173560Y-40799161D02*
X167078322Y-40608685D01*
X167078322Y-40608685D02*
X166983084Y-40227733D01*
X166983084Y-40227733D02*
X166983084Y-39751542D01*
X166983084Y-39751542D02*
X167078322Y-39370590D01*
X167078322Y-39370590D02*
X167173560Y-39180114D01*
X167173560Y-39180114D02*
X167268798Y-39084876D01*
X167268798Y-39084876D02*
X167459274Y-38989638D01*
X168792608Y-38989638D02*
X170030703Y-38989638D01*
X170030703Y-38989638D02*
X169364036Y-39751542D01*
X169364036Y-39751542D02*
X169649751Y-39751542D01*
X169649751Y-39751542D02*
X169840227Y-39846780D01*
X169840227Y-39846780D02*
X169935465Y-39942019D01*
X169935465Y-39942019D02*
X170030703Y-40132495D01*
X170030703Y-40132495D02*
X170030703Y-40608685D01*
X170030703Y-40608685D02*
X169935465Y-40799161D01*
X169935465Y-40799161D02*
X169840227Y-40894400D01*
X169840227Y-40894400D02*
X169649751Y-40989638D01*
X169649751Y-40989638D02*
X169078322Y-40989638D01*
X169078322Y-40989638D02*
X168887846Y-40894400D01*
X168887846Y-40894400D02*
X168792608Y-40799161D01*
D12*
%TO.P,BT1,N*%
%TO.N,Net-(BT1-PadN)*%
X106150000Y-26580000D03*
%TO.P,BT1,P*%
%TO.N,Net-(BT1-PadP)*%
X118850000Y-26580000D03*
%TD*%
%TO.P,BT2,P*%
%TO.N,Net-(BT1-PadN)*%
X69300000Y-26580000D03*
%TO.P,BT2,N*%
%TO.N,GND*%
X56600000Y-26580000D03*
%TD*%
D13*
%TO.P,SW2,3,3*%
%TO.N,GND*%
X33060400Y-160319401D03*
%TO.P,SW2,2,2*%
%TO.N,Net-(BT1-PadP)*%
X33060400Y-155619401D03*
D14*
%TO.P,SW2,1,1*%
%TO.N,+9V*%
X33060400Y-150919400D03*
%TD*%
D15*
%TO.P,U17,1*%
%TO.N,CH3_Buffered*%
X91190000Y-104190000D03*
D16*
%TO.P,U17,2,-*%
X91190000Y-106730000D03*
%TO.P,U17,3,+*%
%TO.N,Net-(U17A-+)*%
X91190000Y-109270000D03*
%TO.P,U17,4,V-*%
%TO.N,-15V*%
X91190000Y-111810000D03*
%TO.P,U17,5,+*%
%TO.N,Net-(U17B-+)*%
X98810000Y-111810000D03*
%TO.P,U17,6,-*%
%TO.N,CH4_Buffered*%
X98810000Y-109270000D03*
%TO.P,U17,7*%
X98810000Y-106730000D03*
%TO.P,U17,8,V+*%
%TO.N,+15V*%
X98810000Y-104190000D03*
%TD*%
D17*
%TO.P,LED19,1,K*%
%TO.N,GND*%
X89181800Y-148906000D03*
D18*
%TO.P,LED19,2,A*%
%TO.N,Net-(LED19-A)*%
X91721800Y-148906000D03*
%TD*%
D19*
%TO.P,C1,1*%
%TO.N,+3V3*%
X80866600Y-119264600D03*
%TO.P,C1,2*%
%TO.N,GND*%
X81681600Y-119264600D03*
%TD*%
D20*
%TO.P,R15,1*%
%TO.N,TX_OPTICAL*%
X55920000Y-134750000D03*
D21*
%TO.P,R15,2*%
%TO.N,Net-(Q2-G)*%
X66080000Y-134750000D03*
%TD*%
D20*
%TO.P,R38,1*%
%TO.N,Net-(U15-Q0)*%
X112697500Y-115902600D03*
D21*
%TO.P,R38,2*%
%TO.N,Net-(LED10-A)*%
X112697500Y-126062600D03*
%TD*%
D22*
%TO.P,C16,1*%
%TO.N,+15V*%
X51522600Y-124839800D03*
%TO.P,C16,2*%
%TO.N,GND*%
X49447600Y-124839800D03*
%TD*%
D23*
%TO.P,U10,1,TEST*%
%TO.N,unconnected-(U10-TEST-Pad1)*%
X44716300Y-113073400D03*
D24*
%TO.P,U10,2,C+*%
%TO.N,Net-(U10-C+)*%
X44716300Y-115613400D03*
%TO.P,U10,3,GND*%
%TO.N,GND*%
X44716300Y-118153400D03*
%TO.P,U10,4,C-*%
%TO.N,Net-(U10-C-)*%
X44716300Y-120693400D03*
%TO.P,U10,5,VOUT*%
%TO.N,-15V*%
X52336300Y-120693400D03*
%TO.P,U10,6,VR*%
%TO.N,unconnected-(U10-VR-Pad6)*%
X52336300Y-118153400D03*
%TO.P,U10,7,OSC*%
%TO.N,unconnected-(U10-OSC-Pad7)*%
X52336300Y-115613400D03*
%TO.P,U10,8,V+*%
%TO.N,+15V*%
X52336300Y-113073400D03*
%TD*%
D25*
%TO.P,U9,1,VI*%
%TO.N,+15V*%
X57000000Y-122920000D03*
D26*
%TO.P,U9,2,GND*%
%TO.N,GND*%
X57000000Y-125460000D03*
%TO.P,U9,3,VO*%
%TO.N,+5V*%
X57000000Y-128000000D03*
%TD*%
D17*
%TO.P,LED16,1,K*%
%TO.N,GND*%
X139508200Y-142906500D03*
D18*
%TO.P,LED16,2,A*%
%TO.N,Net-(LED16-A)*%
X142048200Y-142906500D03*
%TD*%
D27*
%TO.P,U23,1,REFP*%
%TO.N,+3.3V*%
X62540000Y-84380000D03*
D28*
%TO.P,U23,2,VIN1N*%
%TO.N,ADC1_IN2*%
X60000000Y-84380000D03*
%TO.P,U23,3,VIN1P*%
%TO.N,NAU7802_VIN1P*%
X57460000Y-84380000D03*
%TO.P,U23,4,VIN2N*%
%TO.N,Net-(U23-VIN2N)*%
X54920000Y-84380000D03*
%TO.P,U23,5,VIN2P*%
%TO.N,Net-(U23-VIN2P)*%
X52380000Y-84380000D03*
%TO.P,U23,6,VBG*%
%TO.N,Net-(U23-VBG)*%
X49840000Y-84380000D03*
%TO.P,U23,7,REFN*%
%TO.N,GND*%
X47300000Y-84380000D03*
%TO.P,U23,8,AVSS*%
X44760000Y-84380000D03*
%TO.P,U23,9,DVSS*%
X44760000Y-92000000D03*
%TO.P,U23,10,XIN*%
%TO.N,unconnected-(U23-XIN-Pad10)*%
X47300000Y-92000000D03*
%TO.P,U23,11,XOUT*%
%TO.N,unconnected-(U23-XOUT-Pad11)*%
X49840000Y-92000000D03*
%TO.P,U23,12,DRDY*%
%TO.N,unconnected-(U23-DRDY-Pad12)*%
X52380000Y-92000000D03*
%TO.P,U23,13,SCLK*%
%TO.N,I2C_SCL*%
X54920000Y-92000000D03*
%TO.P,U23,14,SDIO*%
%TO.N,I2C_SDA*%
X57460000Y-92000000D03*
%TO.P,U23,15,DVDD*%
%TO.N,+3.3V*%
X60000000Y-92000000D03*
%TO.P,U23,16,AVDD/LDO*%
%TO.N,unconnected-(U23-AVDD{slash}LDO-Pad16)*%
X62540000Y-92000000D03*
%TD*%
D29*
%TO.P,TP2,1,1*%
%TO.N,+9V*%
X95000000Y-86000000D03*
%TD*%
D30*
%TO.P,C7,1*%
%TO.N,+3V3*%
X76000000Y-130240000D03*
%TO.P,C7,2*%
%TO.N,GND*%
X76000000Y-129425000D03*
%TD*%
D29*
%TO.P,TP5,1,1*%
%TO.N,-15V*%
X73950000Y-85950000D03*
%TD*%
D20*
%TO.P,R44,1*%
%TO.N,Net-(LED16-A)*%
X143852600Y-126074300D03*
D21*
%TO.P,R44,2*%
%TO.N,Net-(U15-Q5)*%
X143852600Y-115914300D03*
%TD*%
D31*
%TO.P,U8,1,IN*%
%TO.N,17V*%
X33000000Y-145080000D03*
D32*
%TO.P,U8,2,GND*%
%TO.N,GND*%
X33000000Y-142540000D03*
%TO.P,U8,3,OUT*%
%TO.N,+15V*%
X33000000Y-140000000D03*
%TD*%
D20*
%TO.P,R16,1*%
%TO.N,Net-(Q2-G)*%
X55920000Y-138800000D03*
D21*
%TO.P,R16,2*%
%TO.N,+5V*%
X66080000Y-138800000D03*
%TD*%
D29*
%TO.P,TP9,1,1*%
%TO.N,ADC1_IN2*%
X84050000Y-85950000D03*
%TD*%
D33*
%TO.P,U13,1,GND*%
%TO.N,GND*%
X43289200Y-103245500D03*
%TO.P,U13,2,VO*%
%TO.N,+3V3*%
X43289200Y-105545500D03*
D34*
X49589200Y-105545500D03*
D33*
%TO.P,U13,3,VI*%
%TO.N,+5V*%
X43289200Y-107845500D03*
%TD*%
D17*
%TO.P,LED11,1,K*%
%TO.N,GND*%
X110389400Y-143082300D03*
D18*
%TO.P,LED11,2,A*%
%TO.N,Net-(LED11-A)*%
X112929400Y-143082300D03*
%TD*%
D20*
%TO.P,R57,1*%
%TO.N,-1V65*%
X131920000Y-102050000D03*
D21*
%TO.P,R57,2*%
%TO.N,Net-(U20A--)*%
X142080000Y-102050000D03*
%TD*%
D35*
%TO.P,C5,1*%
%TO.N,+3V3*%
X82962500Y-138000000D03*
%TO.P,C5,2*%
%TO.N,GND*%
X85037500Y-138000000D03*
%TD*%
D20*
%TO.P,R17,1*%
%TO.N,Net-(Q2-D)*%
X55920000Y-142850000D03*
D21*
%TO.P,R17,2*%
%TO.N,Net-(J5-Pin_1)*%
X66080000Y-142850000D03*
%TD*%
D17*
%TO.P,LED8,1,K*%
%TO.N,GND*%
X139483200Y-136156500D03*
D18*
%TO.P,LED8,2,A*%
%TO.N,Net-(LED8-A)*%
X142023200Y-136156500D03*
%TD*%
D20*
%TO.P,R49,1*%
%TO.N,Net-(LED19-A)*%
X102818700Y-126131300D03*
D21*
%TO.P,R49,2*%
%TO.N,SAMPLING_LED*%
X102818700Y-115971300D03*
%TD*%
D20*
%TO.P,R36,1*%
%TO.N,Net-(LED8-A)*%
X146905200Y-126076100D03*
D21*
%TO.P,R36,2*%
%TO.N,Net-(U14-Q5)*%
X146905200Y-115916100D03*
%TD*%
D20*
%TO.P,R28,1*%
%TO.N,GND*%
X109247700Y-126160000D03*
D21*
%TO.P,R28,2*%
%TO.N,Net-(U12B-+)*%
X109247700Y-116000000D03*
%TD*%
D20*
%TO.P,R25,1*%
%TO.N,Net-(U12A-+)*%
X65037200Y-100304200D03*
D21*
%TO.P,R25,2*%
%TO.N,-15V*%
X65037200Y-110464200D03*
%TD*%
D36*
%TO.P,U4,1,VDD_IO*%
%TO.N,VDD +3.3V*%
X143025000Y-33225000D03*
%TO.P,U4,2,NC*%
%TO.N,unconnected-(U4-NC-Pad2)*%
X143025000Y-33725000D03*
%TO.P,U4,3,NC*%
%TO.N,unconnected-(U4-NC-Pad3)*%
X143025000Y-34225000D03*
%TO.P,U4,4,SPC*%
%TO.N,I2C_SCL*%
X143025000Y-34725000D03*
%TO.P,U4,5,GND*%
%TO.N,GND*%
X143025000Y-35225000D03*
D37*
%TO.P,U4,6,SDI*%
%TO.N,I2C_SDA*%
X143750000Y-35450000D03*
%TO.P,U4,7,SDO*%
%TO.N,GND*%
X144250000Y-35450000D03*
%TO.P,U4,8,CS*%
%TO.N,VDD +3.3V*%
X144750000Y-35450000D03*
D36*
%TO.P,U4,9,INT2*%
%TO.N,unconnected-(U4-INT2-Pad9)*%
X145475000Y-35225000D03*
%TO.P,U4,10,GND*%
%TO.N,GND*%
X145475000Y-34725000D03*
%TO.P,U4,11,INT1*%
%TO.N,unconnected-(U4-INT1-Pad11)*%
X145475000Y-34225000D03*
%TO.P,U4,12,GND*%
%TO.N,GND*%
X145475000Y-33725000D03*
%TO.P,U4,13,ADC3*%
%TO.N,unconnected-(U4-ADC3-Pad13)*%
X145475000Y-33225000D03*
D37*
%TO.P,U4,14,VDD*%
%TO.N,VDD +3.3V*%
X144750000Y-33000000D03*
%TO.P,U4,15,ADC2*%
%TO.N,unconnected-(U4-ADC2-Pad15)*%
X144250000Y-33000000D03*
%TO.P,U4,16,ADC1*%
%TO.N,unconnected-(U4-ADC1-Pad16)*%
X143750000Y-33000000D03*
%TD*%
D38*
%TO.P,C17,1*%
%TO.N,+5V*%
X49337700Y-128496800D03*
D39*
%TO.P,C17,2*%
%TO.N,GND*%
X51337700Y-128496800D03*
%TD*%
D15*
%TO.P,U19,1*%
%TO.N,Net-(R52-Pad2)*%
X153540000Y-74380000D03*
D16*
%TO.P,U19,2,-*%
%TO.N,Net-(U19A--)*%
X151000000Y-74380000D03*
%TO.P,U19,3,+*%
%TO.N,Net-(U19A-+)*%
X148460000Y-74380000D03*
%TO.P,U19,4,V-*%
%TO.N,-15V*%
X145920000Y-74380000D03*
%TO.P,U19,5,+*%
%TO.N,/range_switching/POT_2W*%
X145920000Y-82000000D03*
%TO.P,U19,6,-*%
%TO.N,/range_switching/POT_1W*%
X148460000Y-82000000D03*
%TO.P,U19,7*%
%TO.N,/range_switching/POT_1B*%
X151000000Y-82000000D03*
%TO.P,U19,8,V+*%
%TO.N,+15V*%
X153540000Y-82000000D03*
%TD*%
D20*
%TO.P,R3,1*%
%TO.N,/Sensor MCU/SPI_MISO_*%
X152250000Y-65500000D03*
D21*
%TO.P,R3,2*%
%TO.N,SPI_MISO*%
X142090000Y-65500000D03*
%TD*%
D29*
%TO.P,TP6,1,1*%
%TO.N,+5V*%
X73950000Y-91000000D03*
%TD*%
D40*
%TO.P,J6,1,Pin_1*%
%TO.N,+3V3*%
X38780200Y-91121900D03*
D41*
%TO.P,J6,2,Pin_2*%
%TO.N,/Optical Link/FD_AN*%
X38780200Y-93661900D03*
%TO.P,J6,3,Pin_3*%
%TO.N,/Optical Link/LED_CA*%
X38780200Y-96201900D03*
%TO.P,J6,4,Pin_4*%
%TO.N,/Optical Link/LED_AN*%
X38780200Y-98741900D03*
%TD*%
D29*
%TO.P,TP16,1,1*%
%TO.N,/range_switching/POT_1W*%
X135500000Y-47000000D03*
%TD*%
D20*
%TO.P,R40,1*%
%TO.N,Net-(U15-Q2)*%
X124967100Y-115920000D03*
D21*
%TO.P,R40,2*%
%TO.N,Net-(LED12-A)*%
X124967100Y-126080000D03*
%TD*%
D42*
%TO.P,D3,1,K*%
%TO.N,Net-(D3-K)*%
X157740100Y-92276500D03*
D21*
%TO.P,D3,2,A*%
%TO.N,Net-(D3-A)*%
X165360100Y-92276500D03*
%TD*%
D43*
%TO.P,C18,1*%
%TO.N,Net-(U10-C+)*%
X41660500Y-111632400D03*
%TO.P,C18,2*%
%TO.N,Net-(U10-C-)*%
X41660500Y-113707400D03*
%TD*%
D44*
%TO.P,J11,1*%
%TO.N,GND*%
X129221800Y-150656200D03*
%TO.P,J11,2*%
%TO.N,Net-(U17B-+)*%
X134221800Y-150656200D03*
%TD*%
D20*
%TO.P,R41,1*%
%TO.N,Net-(U15-Q3)*%
X131130000Y-115924000D03*
D21*
%TO.P,R41,2*%
%TO.N,Net-(LED13-A)*%
X131130000Y-126084000D03*
%TD*%
D20*
%TO.P,R37,1*%
%TO.N,Net-(LED9-A)*%
X140800000Y-126074700D03*
D21*
%TO.P,R37,2*%
%TO.N,Net-(U14-Q4)*%
X140800000Y-115914700D03*
%TD*%
D15*
%TO.P,U16,1*%
%TO.N,CH1_Buffered*%
X80190000Y-104190000D03*
D16*
%TO.P,U16,2,-*%
X80190000Y-106730000D03*
%TO.P,U16,3,+*%
%TO.N,Net-(U16A-+)*%
X80190000Y-109270000D03*
%TO.P,U16,4,V-*%
%TO.N,-15V*%
X80190000Y-111810000D03*
%TO.P,U16,5,+*%
%TO.N,Net-(U16B-+)*%
X87810000Y-111810000D03*
%TO.P,U16,6,-*%
%TO.N,CH2_Buffered*%
X87810000Y-109270000D03*
%TO.P,U16,7*%
X87810000Y-106730000D03*
%TO.P,U16,8,V+*%
%TO.N,+15V*%
X87810000Y-104190000D03*
%TD*%
D45*
%TO.P,C6,1*%
%TO.N,+3V3*%
X73000000Y-131037500D03*
%TO.P,C6,2*%
%TO.N,GND*%
X73000000Y-128962500D03*
%TD*%
D17*
%TO.P,LED7,1,K*%
%TO.N,GND*%
X145983200Y-136156500D03*
D18*
%TO.P,LED7,2,A*%
%TO.N,Net-(LED7-A)*%
X148523200Y-136156500D03*
%TD*%
D20*
%TO.P,R42,1*%
%TO.N,Net-(LED14-A)*%
X156952200Y-126080000D03*
D21*
%TO.P,R42,2*%
%TO.N,Net-(U15-Q7)*%
X156952200Y-115920000D03*
%TD*%
D25*
%TO.P,U11,1,GND*%
%TO.N,GND*%
X55000000Y-107460000D03*
D26*
%TO.P,U11,2,VI*%
%TO.N,-15V*%
X55000000Y-110000000D03*
%TO.P,U11,3,VO*%
%TO.N,-5V*%
X55000000Y-112540000D03*
%TD*%
D29*
%TO.P,TP7,1,1*%
%TO.N,-5V*%
X79000000Y-85950000D03*
%TD*%
D20*
%TO.P,R39,1*%
%TO.N,Net-(U15-Q1)*%
X118834600Y-115902600D03*
D21*
%TO.P,R39,2*%
%TO.N,Net-(LED11-A)*%
X118834600Y-126062600D03*
%TD*%
D20*
%TO.P,R53,1*%
%TO.N,Net-(R52-Pad2)*%
X131920000Y-85850000D03*
D21*
%TO.P,R53,2*%
%TO.N,/range_switching/POT_2W*%
X142080000Y-85850000D03*
%TD*%
D17*
%TO.P,LED4,1,K*%
%TO.N,GND*%
X116854400Y-136332300D03*
D18*
%TO.P,LED4,2,A*%
%TO.N,Net-(LED4-A)*%
X119394400Y-136332300D03*
%TD*%
D29*
%TO.P,TP15,1,1*%
%TO.N,Net-(U21-A1)*%
X140000000Y-47750000D03*
%TD*%
%TO.P,TP10,1,1*%
%TO.N,-1V65*%
X84050000Y-91000000D03*
%TD*%
D25*
%TO.P,Q2,1,G*%
%TO.N,Net-(Q2-G)*%
X70000000Y-140460000D03*
D26*
%TO.P,Q2,2,D*%
%TO.N,Net-(Q2-D)*%
X70000000Y-143000000D03*
%TO.P,Q2,3,S*%
%TO.N,+3V3*%
X70000000Y-145540000D03*
%TD*%
D20*
%TO.P,R59,1*%
%TO.N,GND*%
X98080000Y-117000000D03*
D21*
%TO.P,R59,2*%
%TO.N,Net-(U1-PH3)*%
X87920000Y-117000000D03*
%TD*%
D46*
%TO.P,U22,1,A0*%
%TO.N,GND*%
X104100001Y-85725001D03*
%TO.P,U22,2,A1*%
X104100001Y-86375002D03*
%TO.P,U22,3,RESET_N*%
%TO.N,+3.3V*%
X104100001Y-87025001D03*
%TO.P,U22,4,DGND*%
%TO.N,GND*%
X104100001Y-87675002D03*
%TO.P,U22,5,AGND*%
X104100001Y-88325001D03*
%TO.P,U22,6,AIN3*%
X104100001Y-88975002D03*
%TO.P,U22,7,AIN2*%
X104100001Y-89625001D03*
%TO.P,U22,8,REFN*%
X104100001Y-90275002D03*
%TO.P,U22,9,REFP*%
%TO.N,+3.3V*%
X110000002Y-90275002D03*
%TO.P,U22,10,AIN1*%
%TO.N,ADC1_IN2*%
X110000002Y-89625001D03*
%TO.P,U22,11,AIN0*%
%TO.N,ADS1119_AINP*%
X110000002Y-88975002D03*
%TO.P,U22,12,AVDD*%
%TO.N,+3.3V*%
X110000002Y-88325001D03*
%TO.P,U22,13,DVDD*%
X110000002Y-87675002D03*
%TO.P,U22,14,DRDY_N*%
%TO.N,unconnected-(U22-DRDY_N-Pad14)*%
X110000002Y-87025001D03*
%TO.P,U22,15,SDA*%
%TO.N,I2C_SDA*%
X110000002Y-86375002D03*
%TO.P,U22,16,SCL*%
%TO.N,I2C_SCL*%
X110000002Y-85725001D03*
%TD*%
D47*
%TO.P,Q3,1,E*%
%TO.N,GND*%
X69373900Y-157967200D03*
D48*
%TO.P,Q3,2,B*%
%TO.N,Net-(Q3-B)*%
X70643900Y-157967200D03*
%TO.P,Q3,3,C*%
%TO.N,RX_OPTICAL*%
X71913900Y-157967200D03*
%TD*%
D20*
%TO.P,R14,1*%
%TO.N,TX_OPTICAL*%
X63794700Y-131702200D03*
D21*
%TO.P,R14,2*%
%TO.N,Net-(J4-Pin_3)*%
X63794700Y-121542200D03*
%TD*%
D49*
%TO.P,U6,1*%
%TO.N,Net-(R8-Pad1)*%
X159050000Y-100190000D03*
%TO.P,U6,2*%
%TO.N,Net-(D3-A)*%
X159050000Y-101460000D03*
%TO.P,U6,3*%
X159050000Y-102730000D03*
%TO.P,U6,4*%
%TO.N,VDD +10V*%
X159050000Y-104000000D03*
%TO.P,U6,5*%
%TO.N,N/C*%
X164000000Y-104000000D03*
%TO.P,U6,6*%
%TO.N,Net-(D3-A)*%
X164000000Y-102730000D03*
%TO.P,U6,7*%
X164000000Y-101460000D03*
%TO.P,U6,8*%
%TO.N,N/C*%
X164000000Y-100190000D03*
%TD*%
D17*
%TO.P,LED12,1,K*%
%TO.N,GND*%
X116904400Y-143082300D03*
D18*
%TO.P,LED12,2,A*%
%TO.N,Net-(LED12-A)*%
X119444400Y-143082300D03*
%TD*%
D15*
%TO.P,U20,1*%
%TO.N,Net-(J12-Pin_2)*%
X153350000Y-85190000D03*
D16*
%TO.P,U20,2,-*%
%TO.N,Net-(U20A--)*%
X150810000Y-85190000D03*
%TO.P,U20,3,+*%
%TO.N,Net-(U20A-+)*%
X148270000Y-85190000D03*
%TO.P,U20,4,V-*%
%TO.N,-15V*%
X145730000Y-85190000D03*
%TO.P,U20,5*%
%TO.N,N/C*%
X145730000Y-92810000D03*
%TO.P,U20,6*%
X148270000Y-92810000D03*
%TO.P,U20,7*%
X150810000Y-92810000D03*
%TO.P,U20,8,V+*%
%TO.N,+15V*%
X153350000Y-92810000D03*
%TD*%
D20*
%TO.P,R10,1*%
%TO.N,Net-(D2-A)*%
X157280100Y-75276500D03*
D21*
%TO.P,R10,2*%
%TO.N,Net-(R10-Pad2)*%
X167440100Y-75276500D03*
%TD*%
D20*
%TO.P,R27,1*%
%TO.N,Net-(U12B-+)*%
X65080000Y-97000000D03*
D21*
%TO.P,R27,2*%
%TO.N,+3V3*%
X54920000Y-97000000D03*
%TD*%
D20*
%TO.P,R61,1*%
%TO.N,GND*%
X131920000Y-110150000D03*
D21*
%TO.P,R61,2*%
%TO.N,Net-(U19A--)*%
X142080000Y-110150000D03*
%TD*%
D40*
%TO.P,J4,1,Pin_1*%
%TO.N,GND*%
X31307600Y-107535000D03*
D41*
%TO.P,J4,2,Pin_2*%
%TO.N,/Optical Link/LED_CA*%
X31307600Y-110075000D03*
%TO.P,J4,3,Pin_3*%
%TO.N,Net-(J4-Pin_3)*%
X31307600Y-112615000D03*
%TD*%
D20*
%TO.P,L3,1,1*%
%TO.N,+9V*%
X30920000Y-117000000D03*
D21*
%TO.P,L3,2,2*%
%TO.N,Net-(D23-A)*%
X41080000Y-117000000D03*
%TD*%
D20*
%TO.P,R12,1*%
%TO.N,Net-(D3-K)*%
X157280100Y-81276500D03*
D21*
%TO.P,R12,2*%
%TO.N,Net-(R12-Pad2)*%
X167440100Y-81276500D03*
%TD*%
D50*
%TO.P,J1,1,VTG*%
%TO.N,+3V3*%
X164604600Y-150354700D03*
%TO.P,J1,2,GND*%
%TO.N,GND*%
X163334600Y-150354700D03*
%TO.P,J1,3,GND*%
X164604600Y-149084700D03*
%TO.P,J1,4,KEY*%
%TO.N,unconnected-(J1-KEY-Pad4)*%
X163334600Y-149084700D03*
%TO.P,J1,5,GND*%
%TO.N,GND*%
X164604600Y-147814700D03*
%TO.P,J1,6,RST*%
%TO.N,JLink_SWDIO*%
X163334600Y-147814700D03*
%TO.P,J1,7,NC*%
%TO.N,JLink_CLK*%
X164604600Y-146544700D03*
%TO.P,J1,8,SWO*%
%TO.N,JLink_SWO*%
X163334600Y-146544700D03*
%TO.P,J1,9,CLK*%
%TO.N,unconnected-(J1-CLK-Pad9)*%
X164604600Y-145274700D03*
%TO.P,J1,10,SWDIO*%
%TO.N,JLink_RST*%
X163334600Y-145274700D03*
%TD*%
D44*
%TO.P,J8,1*%
%TO.N,GND*%
X97721800Y-150656200D03*
%TO.P,J8,2*%
%TO.N,Net-(U16A-+)*%
X102721800Y-150656200D03*
%TD*%
D24*
%TO.P,R46,1,1*%
%TO.N,-15V*%
X86826200Y-98409400D03*
%TO.P,R46,2,2*%
%TO.N,Net-(U12A-+)*%
X84286200Y-98409400D03*
D23*
%TO.P,R46,3,3*%
%TO.N,GND*%
X81746200Y-98409400D03*
%TD*%
D20*
%TO.P,R47,1*%
%TO.N,Net-(C25-Pad1)*%
X164000000Y-115920000D03*
D21*
%TO.P,R47,2*%
%TO.N,GND*%
X164000000Y-126080000D03*
%TD*%
D20*
%TO.P,R50,1*%
%TO.N,Net-(U18-DA)*%
X131920000Y-73700000D03*
D21*
%TO.P,R50,2*%
%TO.N,Net-(U19A-+)*%
X142080000Y-73700000D03*
%TD*%
D17*
%TO.P,LED10,1,K*%
%TO.N,GND*%
X103889400Y-143082300D03*
D18*
%TO.P,LED10,2,A*%
%TO.N,Net-(LED10-A)*%
X106429400Y-143082300D03*
%TD*%
D19*
%TO.P,C12,1*%
%TO.N,GND*%
X35592500Y-125000000D03*
%TO.P,C12,2*%
%TO.N,+9V*%
X36407500Y-125000000D03*
%TD*%
D35*
%TO.P,C23,1*%
%TO.N,+5V*%
X51962500Y-103000000D03*
%TO.P,C23,2*%
%TO.N,GND*%
X54037500Y-103000000D03*
%TD*%
D51*
%TO.P,U15,1,DS1*%
%TO.N,Net-(U14-Q7)*%
X104000000Y-95460000D03*
D52*
%TO.P,U15,2,DS2*%
%TO.N,+3V3*%
X104000000Y-98000000D03*
%TO.P,U15,3,Q0*%
%TO.N,Net-(U15-Q0)*%
X104000000Y-100540000D03*
%TO.P,U15,4,Q1*%
%TO.N,Net-(U15-Q1)*%
X104000000Y-103080000D03*
%TO.P,U15,5,Q2*%
%TO.N,Net-(U15-Q2)*%
X104000000Y-105620000D03*
%TO.P,U15,6,Q3*%
%TO.N,Net-(U15-Q3)*%
X104000000Y-108160000D03*
%TO.P,U15,7,GND*%
%TO.N,GND*%
X104000000Y-110700000D03*
%TO.P,U15,8,CP*%
%TO.N,ALARM_CLK*%
X111620000Y-110700000D03*
%TO.P,U15,9,\u002AMR*%
%TO.N,+3V3*%
X111620000Y-108160000D03*
%TO.P,U15,10,Q4*%
%TO.N,Net-(U15-Q4)*%
X111620000Y-105620000D03*
%TO.P,U15,11,Q5*%
%TO.N,Net-(U15-Q5)*%
X111620000Y-103080000D03*
%TO.P,U15,12,Q6*%
%TO.N,Net-(U15-Q6)*%
X111620000Y-100540000D03*
%TO.P,U15,13,Q7*%
%TO.N,Net-(U15-Q7)*%
X111620000Y-98000000D03*
%TO.P,U15,14,VCC*%
%TO.N,+3V3*%
X111620000Y-95460000D03*
%TD*%
D35*
%TO.P,C10,1*%
%TO.N,VDD +3.3V*%
X164962500Y-30240000D03*
%TO.P,C10,2*%
%TO.N,GND*%
X167037500Y-30240000D03*
%TD*%
D45*
%TO.P,C14,1*%
%TO.N,17V*%
X36658800Y-145499700D03*
%TO.P,C14,2*%
%TO.N,GND*%
X36658800Y-143424700D03*
%TD*%
D20*
%TO.P,R19,1*%
%TO.N,GND*%
X55920000Y-150950000D03*
D21*
%TO.P,R19,2*%
%TO.N,Net-(Q1-E)*%
X66080000Y-150950000D03*
%TD*%
D20*
%TO.P,R55,1*%
%TO.N,GND*%
X131920000Y-93950000D03*
D21*
%TO.P,R55,2*%
%TO.N,Net-(U20A-+)*%
X142080000Y-93950000D03*
%TD*%
D20*
%TO.P,R58,1*%
%TO.N,Net-(U20A--)*%
X131920000Y-106100000D03*
D21*
%TO.P,R58,2*%
%TO.N,Net-(J12-Pin_2)*%
X142080000Y-106100000D03*
%TD*%
D20*
%TO.P,R26,1*%
%TO.N,GND*%
X61683900Y-110558700D03*
D21*
%TO.P,R26,2*%
%TO.N,Net-(U12A-+)*%
X61683900Y-100398700D03*
%TD*%
D43*
%TO.P,C20,1*%
%TO.N,-5V*%
X59957600Y-112700900D03*
%TO.P,C20,2*%
%TO.N,GND*%
X59957600Y-114775900D03*
%TD*%
D20*
%TO.P,R6,1*%
%TO.N,Net-(R10-Pad2)*%
X156920000Y-60000000D03*
D21*
%TO.P,R6,2*%
%TO.N,Net-(R6-Pad2)*%
X167080000Y-60000000D03*
%TD*%
D29*
%TO.P,TP13,1,1*%
%TO.N,/range_switching/POT_1B*%
X130750000Y-47250000D03*
%TD*%
D40*
%TO.P,J5,1,Pin_1*%
%TO.N,Net-(J5-Pin_1)*%
X35086000Y-107653000D03*
D41*
%TO.P,J5,2,Pin_2*%
%TO.N,/Optical Link/LED_AN*%
X35086000Y-110193000D03*
%TO.P,J5,3,Pin_3*%
%TO.N,+3.3V*%
X35086000Y-112733000D03*
%TD*%
D20*
%TO.P,R35,1*%
%TO.N,Net-(LED7-A)*%
X153000000Y-126080000D03*
D21*
%TO.P,R35,2*%
%TO.N,Net-(U14-Q6)*%
X153000000Y-115920000D03*
%TD*%
D17*
%TO.P,LED14,1,K*%
%TO.N,GND*%
X155181800Y-142656200D03*
D18*
%TO.P,LED14,2,A*%
%TO.N,Net-(LED14-A)*%
X157721800Y-142656200D03*
%TD*%
D17*
%TO.P,LED2,1,K*%
%TO.N,GND*%
X103889400Y-136332300D03*
D18*
%TO.P,LED2,2,A*%
%TO.N,Net-(LED2-A)*%
X106429400Y-136332300D03*
%TD*%
D17*
%TO.P,LED5,1,K*%
%TO.N,GND*%
X123389400Y-136332300D03*
D18*
%TO.P,LED5,2,A*%
%TO.N,Net-(LED5-A)*%
X125929400Y-136332300D03*
%TD*%
D20*
%TO.P,R7,1*%
%TO.N,Net-(R11-Pad2)*%
X157200100Y-65276500D03*
D21*
%TO.P,R7,2*%
%TO.N,Net-(R6-Pad2)*%
X167360100Y-65276500D03*
%TD*%
D20*
%TO.P,R54,1*%
%TO.N,GND*%
X131920000Y-89900000D03*
D21*
%TO.P,R54,2*%
%TO.N,/range_switching/POT_1W*%
X142080000Y-89900000D03*
%TD*%
D53*
%TO.P,U18,1,A0*%
%TO.N,AMUX_A0*%
X93275850Y-91555000D03*
%TO.P,U18,2,EN*%
%TO.N,+3V3*%
X93275850Y-92825000D03*
%TO.P,U18,3,V-*%
%TO.N,-15V*%
X93275850Y-94095000D03*
%TO.P,U18,4,S1A*%
%TO.N,CH1_Buffered*%
X93275850Y-95365000D03*
%TO.P,U18,5,S2A*%
%TO.N,CH2_Buffered*%
X93275850Y-96635000D03*
%TO.P,U18,6,S3A*%
%TO.N,CH3_Buffered*%
X93275850Y-97905000D03*
%TO.P,U18,7,S4A*%
%TO.N,CH4_Buffered*%
X93275850Y-99175000D03*
%TO.P,U18,8,DA*%
%TO.N,Net-(U18-DA)*%
X93275850Y-100445000D03*
%TO.P,U18,9,DB*%
%TO.N,unconnected-(U18-DB-Pad9)*%
X98724150Y-100445000D03*
%TO.P,U18,10,S4B*%
%TO.N,unconnected-(U18-S4B-Pad10)*%
X98724150Y-99175000D03*
%TO.P,U18,11,S3B*%
%TO.N,unconnected-(U18-S3B-Pad11)*%
X98724150Y-97905000D03*
%TO.P,U18,12,S2B*%
%TO.N,unconnected-(U18-S2B-Pad12)*%
X98724150Y-96635000D03*
%TO.P,U18,13,S1B*%
%TO.N,unconnected-(U18-S1B-Pad13)*%
X98724150Y-95365000D03*
%TO.P,U18,14,V+*%
%TO.N,+15V*%
X98724150Y-94095000D03*
%TO.P,U18,15,GND*%
%TO.N,GND*%
X98724150Y-92825000D03*
%TO.P,U18,16,A1*%
%TO.N,AMUX_A1*%
X98724150Y-91555000D03*
%TD*%
D54*
%TO.P,FID2,*%
%TO.N,*%
X125000000Y-86000000D03*
%TD*%
D51*
%TO.P,U14,1,DS1*%
%TO.N,ALARM_LED*%
X117000000Y-95460000D03*
D52*
%TO.P,U14,2,DS2*%
%TO.N,+3V3*%
X117000000Y-98000000D03*
%TO.P,U14,3,Q0*%
%TO.N,Net-(U14-Q0)*%
X117000000Y-100540000D03*
%TO.P,U14,4,Q1*%
%TO.N,Net-(U14-Q1)*%
X117000000Y-103080000D03*
%TO.P,U14,5,Q2*%
%TO.N,Net-(U14-Q2)*%
X117000000Y-105620000D03*
%TO.P,U14,6,Q3*%
%TO.N,Net-(U14-Q3)*%
X117000000Y-108160000D03*
%TO.P,U14,7,GND*%
%TO.N,GND*%
X117000000Y-110700000D03*
%TO.P,U14,8,CP*%
%TO.N,ALARM_CLK*%
X124620000Y-110700000D03*
%TO.P,U14,9,\u002AMR*%
%TO.N,+3V3*%
X124620000Y-108160000D03*
%TO.P,U14,10,Q4*%
%TO.N,Net-(U14-Q4)*%
X124620000Y-105620000D03*
%TO.P,U14,11,Q5*%
%TO.N,Net-(U14-Q5)*%
X124620000Y-103080000D03*
%TO.P,U14,12,Q6*%
%TO.N,Net-(U14-Q6)*%
X124620000Y-100540000D03*
%TO.P,U14,13,Q7*%
%TO.N,Net-(U14-Q7)*%
X124620000Y-98000000D03*
%TO.P,U14,14,VCC*%
%TO.N,+3V3*%
X124620000Y-95460000D03*
%TD*%
D20*
%TO.P,R52,1*%
%TO.N,Net-(U19A--)*%
X131920000Y-81800000D03*
D21*
%TO.P,R52,2*%
%TO.N,Net-(R52-Pad2)*%
X142080000Y-81800000D03*
%TD*%
D44*
%TO.P,J10,1*%
%TO.N,GND*%
X118721800Y-150656200D03*
%TO.P,J10,2*%
%TO.N,Net-(U17A-+)*%
X123721800Y-150656200D03*
%TD*%
D29*
%TO.P,TP8,1,1*%
%TO.N,+3V3*%
X79000000Y-91000000D03*
%TD*%
D17*
%TO.P,LED15,1,K*%
%TO.N,GND*%
X146008200Y-142906500D03*
D18*
%TO.P,LED15,2,A*%
%TO.N,Net-(LED15-A)*%
X148548200Y-142906500D03*
%TD*%
D24*
%TO.P,R48,1,1*%
%TO.N,GND*%
X75546100Y-98490900D03*
%TO.P,R48,2,2*%
%TO.N,Net-(U12B-+)*%
X73006100Y-98490900D03*
D23*
%TO.P,R48,3,3*%
%TO.N,+3V3*%
X70466100Y-98490900D03*
%TD*%
D40*
%TO.P,J12,1,Pin_1*%
%TO.N,ADS1119_AINP*%
X31191300Y-95325300D03*
D41*
%TO.P,J12,2,Pin_2*%
%TO.N,Net-(J12-Pin_2)*%
X31191300Y-97865300D03*
%TO.P,J12,3,Pin_3*%
%TO.N,ADC1_IN1*%
X31191300Y-100405300D03*
%TO.P,J12,4,Pin_4*%
%TO.N,NAU7802_VIN1P*%
X31191300Y-102945300D03*
%TD*%
D20*
%TO.P,R51,1*%
%TO.N,GND*%
X131920000Y-77750000D03*
D21*
%TO.P,R51,2*%
%TO.N,Net-(U19A-+)*%
X142080000Y-77750000D03*
%TD*%
D20*
%TO.P,R13,1*%
%TO.N,Net-(D3-A)*%
X157280100Y-84276500D03*
D21*
%TO.P,R13,2*%
%TO.N,Net-(R13-Pad2)*%
X167440100Y-84276500D03*
%TD*%
D20*
%TO.P,R56,1*%
%TO.N,/range_switching/POT_1B*%
X131920000Y-98000000D03*
D21*
%TO.P,R56,2*%
%TO.N,Net-(U20A-+)*%
X142080000Y-98000000D03*
%TD*%
D17*
%TO.P,LED17,1,K*%
%TO.N,GND*%
X132968200Y-142906500D03*
D18*
%TO.P,LED17,2,A*%
%TO.N,Net-(LED17-A)*%
X135508200Y-142906500D03*
%TD*%
D55*
%TO.P,U3,1,SDA*%
%TO.N,I2C_SDA*%
X142387500Y-27025000D03*
%TO.P,U3,2,SCL*%
%TO.N,I2C_SCL*%
X142387500Y-27675000D03*
%TO.P,U3,3,Alert*%
%TO.N,unconnected-(U3-Alert-Pad3)*%
X142387500Y-28325000D03*
%TO.P,U3,4,GND*%
%TO.N,GND*%
X142387500Y-28975000D03*
%TO.P,U3,5,A2*%
X146612500Y-28975000D03*
%TO.P,U3,6,A1*%
X146612500Y-28325000D03*
%TO.P,U3,7,A0*%
%TO.N,VDD +3.3V*%
X146612500Y-27675000D03*
%TO.P,U3,8,V_{DD}*%
X146612500Y-27025000D03*
%TD*%
D35*
%TO.P,C11,1*%
%TO.N,VDD +3.3V*%
X164962500Y-33250000D03*
%TO.P,C11,2*%
%TO.N,GND*%
X167037500Y-33250000D03*
%TD*%
D17*
%TO.P,LED3,1,K*%
%TO.N,GND*%
X110389400Y-136332300D03*
D18*
%TO.P,LED3,2,A*%
%TO.N,Net-(LED3-A)*%
X112929400Y-136332300D03*
%TD*%
D22*
%TO.P,C2,1*%
%TO.N,+3V3*%
X76287500Y-123750000D03*
%TO.P,C2,2*%
%TO.N,GND*%
X74212500Y-123750000D03*
%TD*%
D35*
%TO.P,C19,1*%
%TO.N,-15V*%
X54962500Y-118000000D03*
%TO.P,C19,2*%
%TO.N,GND*%
X57037500Y-118000000D03*
%TD*%
D44*
%TO.P,J3,1*%
%TO.N,Net-(D3-K)*%
X152221800Y-150656200D03*
%TO.P,J3,2*%
%TO.N,GND*%
X157221800Y-150656200D03*
%TD*%
D20*
%TO.P,R30,1*%
%TO.N,Net-(U14-Q0)*%
X115766000Y-115902600D03*
D21*
%TO.P,R30,2*%
%TO.N,Net-(LED2-A)*%
X115766000Y-126062600D03*
%TD*%
D35*
%TO.P,C13,1*%
%TO.N,17V*%
X35000000Y-122000000D03*
%TO.P,C13,2*%
%TO.N,GND*%
X37075000Y-122000000D03*
%TD*%
D54*
%TO.P,FID1,*%
%TO.N,*%
X33000000Y-86000000D03*
%TD*%
D20*
%TO.P,R8,1*%
%TO.N,Net-(R8-Pad1)*%
X157280100Y-68276500D03*
D21*
%TO.P,R8,2*%
%TO.N,Net-(R12-Pad2)*%
X167440100Y-68276500D03*
%TD*%
D17*
%TO.P,LED13,1,K*%
%TO.N,GND*%
X123414400Y-143082300D03*
D18*
%TO.P,LED13,2,A*%
%TO.N,Net-(LED13-A)*%
X125954400Y-143082300D03*
%TD*%
D17*
%TO.P,LED6,1,K*%
%TO.N,GND*%
X155156800Y-135906200D03*
D18*
%TO.P,LED6,2,A*%
%TO.N,Net-(LED6-A)*%
X157696800Y-135906200D03*
%TD*%
D20*
%TO.P,R18,1*%
%TO.N,/Optical Link/FD_AN*%
X55920000Y-146900000D03*
D21*
%TO.P,R18,2*%
%TO.N,Net-(Q1-B)*%
X66080000Y-146900000D03*
%TD*%
D20*
%TO.P,R9,1*%
%TO.N,Net-(R13-Pad2)*%
X157280100Y-71626500D03*
D21*
%TO.P,R9,2*%
%TO.N,Net-(R8-Pad1)*%
X167440100Y-71626500D03*
%TD*%
D20*
%TO.P,R34,1*%
%TO.N,Net-(LED6-A)*%
X160000000Y-126080000D03*
D21*
%TO.P,R34,2*%
%TO.N,Net-(U14-Q7)*%
X160000000Y-115920000D03*
%TD*%
D29*
%TO.P,TP11,1,1*%
%TO.N,Net-(U18-DA)*%
X138250000Y-52750000D03*
%TD*%
D22*
%TO.P,C25,1*%
%TO.N,Net-(C25-Pad1)*%
X165384100Y-130000000D03*
%TO.P,C25,2*%
%TO.N,JLink_RST*%
X163309100Y-130000000D03*
%TD*%
D47*
%TO.P,Q1,1,E*%
%TO.N,Net-(Q1-E)*%
X69373900Y-152177200D03*
D48*
%TO.P,Q1,2,B*%
%TO.N,Net-(Q1-B)*%
X70643900Y-152177200D03*
%TO.P,Q1,3,C*%
%TO.N,+3V3*%
X71913900Y-152177200D03*
%TD*%
D56*
%TO.P,C26,1*%
%TO.N,+3.3V*%
X115000000Y-89562500D03*
%TO.P,C26,2*%
%TO.N,GND*%
X115000000Y-86437500D03*
%TD*%
D57*
%TO.P,U21,1,SDO*%
%TO.N,unconnected-(U21-SDO-Pad1)*%
X134524999Y-53680600D03*
%TO.P,U21,2,A1*%
%TO.N,Net-(U21-A1)*%
X133875001Y-53680600D03*
%TO.P,U21,3,W1*%
%TO.N,/range_switching/POT_1W*%
X133224999Y-53680600D03*
%TO.P,U21,4,B1*%
%TO.N,/range_switching/POT_1B*%
X132575001Y-53680600D03*
%TO.P,U21,5,VDD*%
%TO.N,+5V*%
X131925002Y-53680600D03*
%TO.P,U21,6,SHDN\u002A*%
%TO.N,+3V3*%
X131275001Y-53680600D03*
%TO.P,U21,7,CLK*%
%TO.N,SPI_CLK*%
X130625002Y-53680600D03*
%TO.P,U21,8,SDI*%
%TO.N,SPI_MOSI*%
X129975001Y-53680600D03*
%TO.P,U21,9,CS\u002A*%
%TO.N,CS_POT*%
X129975001Y-59319400D03*
%TO.P,U21,10,PR\u002A*%
%TO.N,+3V3*%
X130624999Y-59319400D03*
%TO.P,U21,11,GND*%
%TO.N,GND*%
X131275001Y-59319400D03*
%TO.P,U21,12,VSS*%
%TO.N,-5V*%
X131924999Y-59319400D03*
%TO.P,U21,13,VL*%
%TO.N,+3V3*%
X132574998Y-59319400D03*
%TO.P,U21,14,B2*%
%TO.N,GND*%
X133224999Y-59319400D03*
%TO.P,U21,15,W2*%
%TO.N,/range_switching/POT_2W*%
X133874998Y-59319400D03*
%TO.P,U21,16,A2*%
%TO.N,Net-(U21-A2)*%
X134524999Y-59319400D03*
%TD*%
D56*
%TO.P,C27,1*%
%TO.N,+3.3V*%
X119000000Y-89562500D03*
%TO.P,C27,2*%
%TO.N,GND*%
X119000000Y-86437500D03*
%TD*%
%TO.P,C29,1*%
%TO.N,Net-(U23-VBG)*%
X38658200Y-86701000D03*
%TO.P,C29,2*%
%TO.N,GND*%
X38658200Y-83576000D03*
%TD*%
D22*
%TO.P,C3,1*%
%TO.N,+3V3*%
X91037500Y-137000000D03*
%TO.P,C3,2*%
%TO.N,GND*%
X88962500Y-137000000D03*
%TD*%
D20*
%TO.P,R43,1*%
%TO.N,Net-(LED15-A)*%
X149952200Y-126080000D03*
D21*
%TO.P,R43,2*%
%TO.N,Net-(U15-Q6)*%
X149952200Y-115920000D03*
%TD*%
D29*
%TO.P,TP1,1,1*%
%TO.N,GND*%
X89850000Y-86050000D03*
%TD*%
D43*
%TO.P,C4,1*%
%TO.N,+3V3*%
X95000000Y-122962500D03*
%TO.P,C4,2*%
%TO.N,GND*%
X95000000Y-125037500D03*
%TD*%
D29*
%TO.P,TP17,1,1*%
%TO.N,Net-(U21-A2)*%
X138250000Y-58250000D03*
%TD*%
D20*
%TO.P,R11,1*%
%TO.N,Net-(D2-K)*%
X157280100Y-78276500D03*
D21*
%TO.P,R11,2*%
%TO.N,Net-(R11-Pad2)*%
X167440100Y-78276500D03*
%TD*%
D19*
%TO.P,C22,1*%
%TO.N,GND*%
X75637500Y-102161400D03*
%TO.P,C22,2*%
%TO.N,+15V*%
X76452500Y-102161400D03*
%TD*%
D29*
%TO.P,TP14,1,1*%
%TO.N,Net-(J12-Pin_2)*%
X152000000Y-96750000D03*
%TD*%
D44*
%TO.P,J2,1*%
%TO.N,Net-(D2-K)*%
X141721800Y-150656200D03*
%TO.P,J2,2*%
%TO.N,GND*%
X146721800Y-150656200D03*
%TD*%
D20*
%TO.P,R31,1*%
%TO.N,Net-(U14-Q1)*%
X121766000Y-115902600D03*
D21*
%TO.P,R31,2*%
%TO.N,Net-(LED3-A)*%
X121766000Y-126062600D03*
%TD*%
D29*
%TO.P,TP12,1,1*%
%TO.N,Net-(R52-Pad2)*%
X152750000Y-70750000D03*
%TD*%
D58*
%TO.P,U1,1,VBAT*%
%TO.N,+3V3*%
X79325000Y-124250000D03*
%TO.P,U1,2,PC13*%
%TO.N,unconnected-(U1-PC13-Pad2)*%
X79325000Y-124750000D03*
%TO.P,U1,3,PC14*%
%TO.N,unconnected-(U1-PC14-Pad3)*%
X79325000Y-125250000D03*
%TO.P,U1,4,PC15*%
%TO.N,unconnected-(U1-PC15-Pad4)*%
X79325000Y-125750000D03*
%TO.P,U1,5,PH0*%
%TO.N,unconnected-(U1-PH0-Pad5)*%
X79325000Y-126250000D03*
%TO.P,U1,6,PH1*%
%TO.N,unconnected-(U1-PH1-Pad6)*%
X79325000Y-126750000D03*
%TO.P,U1,7,NRST*%
%TO.N,JLink_RST*%
X79325000Y-127250000D03*
%TO.P,U1,8,PC0*%
%TO.N,ADC1_IN1*%
X79325000Y-127750000D03*
%TO.P,U1,9,PC1*%
%TO.N,ADC1_IN2*%
X79325000Y-128250000D03*
%TO.P,U1,10,PC2*%
%TO.N,ALARM_LED*%
X79325000Y-128750000D03*
%TO.P,U1,11,PC3*%
%TO.N,ALARM_CLK*%
X79325000Y-129250000D03*
%TO.P,U1,12,VSSA*%
%TO.N,GND*%
X79325000Y-129750000D03*
%TO.P,U1,13,VDDA*%
%TO.N,+3V3*%
X79325000Y-130250000D03*
%TO.P,U1,14,PA0*%
%TO.N,unconnected-(U1-PA0-Pad14)*%
X79325000Y-130750000D03*
%TO.P,U1,15,PA1*%
%TO.N,/Sensor MCU/SPI_SCK_*%
X79325000Y-131250000D03*
%TO.P,U1,16,PA2*%
%TO.N,TX_OPTICAL*%
X79325000Y-131750000D03*
D59*
%TO.P,U1,17,PA3*%
%TO.N,RX_OPTICAL*%
X81250000Y-133675000D03*
%TO.P,U1,18,VSS*%
%TO.N,GND*%
X81750000Y-133675000D03*
%TO.P,U1,19,VDD*%
%TO.N,+3V3*%
X82250000Y-133675000D03*
%TO.P,U1,20,PA4*%
%TO.N,unconnected-(U1-PA4-Pad20)*%
X82750000Y-133675000D03*
%TO.P,U1,21,PA5*%
%TO.N,unconnected-(U1-PA5-Pad21)*%
X83250000Y-133675000D03*
%TO.P,U1,22,PA6*%
%TO.N,/Sensor MCU/SPI_MISO_*%
X83750000Y-133675000D03*
%TO.P,U1,23,PA7*%
%TO.N,/Sensor MCU/SPI_MOSI_*%
X84250000Y-133675000D03*
%TO.P,U1,24,PC4*%
%TO.N,CS_POT*%
X84750000Y-133675000D03*
%TO.P,U1,25,PC5*%
%TO.N,unconnected-(U1-PC5-Pad25)*%
X85250000Y-133675000D03*
%TO.P,U1,26,PB0*%
%TO.N,unconnected-(U1-PB0-Pad26)*%
X85750000Y-133675000D03*
%TO.P,U1,27,PB1*%
%TO.N,SAMPLING_LED*%
X86250000Y-133675000D03*
%TO.P,U1,28,PB2*%
%TO.N,POWER_LED*%
X86750000Y-133675000D03*
%TO.P,U1,29,PB10*%
%TO.N,unconnected-(U1-PB10-Pad29)*%
X87250000Y-133675000D03*
%TO.P,U1,30,PB11*%
%TO.N,unconnected-(U1-PB11-Pad30)*%
X87750000Y-133675000D03*
%TO.P,U1,31,VSS*%
%TO.N,GND*%
X88250000Y-133675000D03*
%TO.P,U1,32,VDD*%
%TO.N,+3V3*%
X88750000Y-133675000D03*
D58*
%TO.P,U1,33,PB12*%
%TO.N,unconnected-(U1-PB12-Pad33)*%
X90675000Y-131750000D03*
%TO.P,U1,34,PB13*%
%TO.N,unconnected-(U1-PB13-Pad34)*%
X90675000Y-131250000D03*
%TO.P,U1,35,PB14*%
%TO.N,unconnected-(U1-PB14-Pad35)*%
X90675000Y-130750000D03*
%TO.P,U1,36,PB15*%
%TO.N,unconnected-(U1-PB15-Pad36)*%
X90675000Y-130250000D03*
%TO.P,U1,37,PC6*%
%TO.N,unconnected-(U1-PC6-Pad37)*%
X90675000Y-129750000D03*
%TO.P,U1,38,PC7*%
%TO.N,unconnected-(U1-PC7-Pad38)*%
X90675000Y-129250000D03*
%TO.P,U1,39,PC8*%
%TO.N,unconnected-(U1-PC8-Pad39)*%
X90675000Y-128750000D03*
%TO.P,U1,40,PC9*%
%TO.N,unconnected-(U1-PC9-Pad40)*%
X90675000Y-128250000D03*
%TO.P,U1,41,PA8*%
%TO.N,unconnected-(U1-PA8-Pad41)*%
X90675000Y-127750000D03*
%TO.P,U1,42,PA9*%
%TO.N,STM_TX*%
X90675000Y-127250000D03*
%TO.P,U1,43,PA10*%
%TO.N,STM_RX*%
X90675000Y-126750000D03*
%TO.P,U1,44,PA11*%
%TO.N,unconnected-(U1-PA11-Pad44)*%
X90675000Y-126250000D03*
%TO.P,U1,45,PA12*%
%TO.N,unconnected-(U1-PA12-Pad45)*%
X90675000Y-125750000D03*
%TO.P,U1,46,PA13*%
%TO.N,JLink_SWDIO*%
X90675000Y-125250000D03*
%TO.P,U1,47,VSS*%
%TO.N,GND*%
X90675000Y-124750000D03*
%TO.P,U1,48,VDD*%
%TO.N,+3V3*%
X90675000Y-124250000D03*
D59*
%TO.P,U1,49,PA14*%
%TO.N,JLink_CLK*%
X88750000Y-122325000D03*
%TO.P,U1,50,PA15*%
%TO.N,unconnected-(U1-PA15-Pad50)*%
X88250000Y-122325000D03*
%TO.P,U1,51,PC10*%
%TO.N,unconnected-(U1-PC10-Pad51)*%
X87750000Y-122325000D03*
%TO.P,U1,52,PC11*%
%TO.N,unconnected-(U1-PC11-Pad52)*%
X87250000Y-122325000D03*
%TO.P,U1,53,PC12*%
%TO.N,unconnected-(U1-PC12-Pad53)*%
X86750000Y-122325000D03*
%TO.P,U1,54,PD2*%
%TO.N,unconnected-(U1-PD2-Pad54)*%
X86250000Y-122325000D03*
%TO.P,U1,55,PB3*%
%TO.N,JLink_SWO*%
X85750000Y-122325000D03*
%TO.P,U1,56,PB4*%
%TO.N,unconnected-(U1-PB4-Pad56)*%
X85250000Y-122325000D03*
%TO.P,U1,57,PB5*%
%TO.N,unconnected-(U1-PB5-Pad57)*%
X84750000Y-122325000D03*
%TO.P,U1,58,PB6*%
%TO.N,I2C_SCL*%
X84250000Y-122325000D03*
%TO.P,U1,59,PB7*%
%TO.N,I2C_SDA*%
X83750000Y-122325000D03*
%TO.P,U1,60,PH3*%
%TO.N,Net-(U1-PH3)*%
X83250000Y-122325000D03*
%TO.P,U1,61,PB8*%
%TO.N,AMUX_A0*%
X82750000Y-122325000D03*
%TO.P,U1,62,PB9*%
%TO.N,AMUX_A1*%
X82250000Y-122325000D03*
%TO.P,U1,63,VSS*%
%TO.N,GND*%
X81750000Y-122325000D03*
%TO.P,U1,64,VDD*%
%TO.N,+3V3*%
X81250000Y-122325000D03*
%TD*%
D20*
%TO.P,R32,1*%
%TO.N,Net-(U14-Q2)*%
X128044600Y-115920000D03*
D21*
%TO.P,R32,2*%
%TO.N,Net-(LED4-A)*%
X128044600Y-126080000D03*
%TD*%
D20*
%TO.P,R4,1*%
%TO.N,I2C_SCL*%
X151745000Y-27500000D03*
D21*
%TO.P,R4,2*%
%TO.N,VDD +3.3V*%
X161905000Y-27500000D03*
%TD*%
D49*
%TO.P,U5,1*%
%TO.N,Net-(R6-Pad2)*%
X159050000Y-107190000D03*
%TO.P,U5,2*%
%TO.N,Net-(D2-A)*%
X159050000Y-108460000D03*
%TO.P,U5,3*%
X159050000Y-109730000D03*
%TO.P,U5,4*%
%TO.N,VDD +10V*%
X159050000Y-111000000D03*
%TO.P,U5,5*%
%TO.N,N/C*%
X164000000Y-111000000D03*
%TO.P,U5,6*%
%TO.N,Net-(D2-A)*%
X164000000Y-109730000D03*
%TO.P,U5,7*%
X164000000Y-108460000D03*
%TO.P,U5,8*%
%TO.N,N/C*%
X164000000Y-107190000D03*
%TD*%
D38*
%TO.P,C21,1*%
%TO.N,-15V*%
X61000000Y-118000000D03*
D39*
%TO.P,C21,2*%
%TO.N,GND*%
X63000000Y-118000000D03*
%TD*%
D60*
%TO.P,D23,1,K*%
%TO.N,17V*%
X45000000Y-134080000D03*
D61*
%TO.P,D23,2,A*%
%TO.N,Net-(D23-A)*%
X45000000Y-123920000D03*
%TD*%
D42*
%TO.P,D2,1,K*%
%TO.N,Net-(D2-K)*%
X157740100Y-88726500D03*
D21*
%TO.P,D2,2,A*%
%TO.N,Net-(D2-A)*%
X165360100Y-88726500D03*
%TD*%
D62*
%TO.P,SW3,1,1*%
%TO.N,Net-(C25-Pad1)*%
X165989401Y-132656199D03*
D63*
%TO.P,SW3,2,2*%
X165989401Y-139156200D03*
%TO.P,SW3,3,3*%
%TO.N,JLink_RST*%
X161489400Y-132656199D03*
%TO.P,SW3,4,4*%
X161489400Y-139156200D03*
%TD*%
D40*
%TO.P,J7,1,Pin_1*%
%TO.N,+5V*%
X38785700Y-102473300D03*
D41*
%TO.P,J7,2,Pin_2*%
%TO.N,+3V3*%
X38785700Y-105013300D03*
%TO.P,J7,3,Pin_3*%
%TO.N,TX_OPTICAL*%
X38785700Y-107553300D03*
%TO.P,J7,4,Pin_4*%
%TO.N,RX_OPTICAL*%
X38785700Y-110093300D03*
%TO.P,J7,5,Pin_5*%
%TO.N,GND*%
X38785700Y-112633300D03*
%TD*%
D20*
%TO.P,R45,1*%
%TO.N,Net-(LED17-A)*%
X137755800Y-126075100D03*
D21*
%TO.P,R45,2*%
%TO.N,Net-(U15-Q4)*%
X137755800Y-115915100D03*
%TD*%
D38*
%TO.P,C15,1*%
%TO.N,+15V*%
X49287500Y-133965100D03*
D39*
%TO.P,C15,2*%
%TO.N,GND*%
X51287500Y-133965100D03*
%TD*%
D40*
%TO.P,J13,1,Pin_1*%
%TO.N,GND*%
X34929500Y-95232300D03*
D64*
%TO.P,J13,2,Pin_2*%
%TO.N,STM_RX*%
X34929500Y-97772300D03*
%TO.P,J13,3,Pin_3*%
%TO.N,STM_TX*%
X34929500Y-100312300D03*
%TO.P,J13,4,Pin_4*%
%TO.N,+3V3*%
X34929500Y-102852300D03*
%TD*%
D38*
%TO.P,C24,1*%
%TO.N,+3V3*%
X48000000Y-98000000D03*
D39*
%TO.P,C24,2*%
%TO.N,GND*%
X50000000Y-98000000D03*
%TD*%
D17*
%TO.P,U24,1,K*%
%TO.N,+3V3*%
X43076300Y-149335000D03*
D18*
%TO.P,U24,2,A*%
%TO.N,/Optical Link/FD_AN*%
X48176300Y-149335000D03*
D17*
%TO.P,U24,3,K*%
%TO.N,/Optical Link/LED_CA*%
X45576300Y-153335000D03*
D18*
%TO.P,U24,4,A*%
%TO.N,/Optical Link/LED_AN*%
X45576300Y-145335000D03*
%TD*%
D20*
%TO.P,R5,1*%
%TO.N,I2C_SDA*%
X151745000Y-35050000D03*
D21*
%TO.P,R5,2*%
%TO.N,VDD +3.3V*%
X161905000Y-35050000D03*
%TD*%
D17*
%TO.P,LED9,1,K*%
%TO.N,GND*%
X132943200Y-136156500D03*
D18*
%TO.P,LED9,2,A*%
%TO.N,Net-(LED9-A)*%
X135483200Y-136156500D03*
%TD*%
D65*
%TO.P,U7,1,SW*%
%TO.N,Net-(D23-A)*%
X35113850Y-128107700D03*
%TO.P,U7,2,GND*%
%TO.N,GND*%
X35113850Y-129047500D03*
%TO.P,U7,3,FB*%
%TO.N,Net-(U7-FB)*%
X35113850Y-129987300D03*
%TO.P,U7,4,\u002ASHDN*%
%TO.N,Net-(U7-\u002ASHDN)*%
X37793550Y-130000000D03*
%TO.P,U7,5,VIN*%
%TO.N,+9V*%
X37793550Y-128095000D03*
%TD*%
D29*
%TO.P,TP3,1,1*%
%TO.N,17V*%
X68900000Y-85950000D03*
%TD*%
D20*
%TO.P,R60,1*%
%TO.N,Net-(Q1-E)*%
X55920000Y-159050000D03*
D21*
%TO.P,R60,2*%
%TO.N,Net-(Q3-B)*%
X66080000Y-159050000D03*
%TD*%
D44*
%TO.P,J9,1*%
%TO.N,GND*%
X108221800Y-150656200D03*
%TO.P,J9,2*%
%TO.N,Net-(U16B-+)*%
X113221800Y-150656200D03*
%TD*%
D20*
%TO.P,R20,1*%
%TO.N,RX_OPTICAL*%
X55920000Y-155000000D03*
D21*
%TO.P,R20,2*%
%TO.N,+3V3*%
X66080000Y-155000000D03*
%TD*%
D20*
%TO.P,R2,1*%
%TO.N,/Sensor MCU/SPI_MOSI_*%
X152330000Y-61500000D03*
D21*
%TO.P,R2,2*%
%TO.N,SPI_MOSI*%
X142170000Y-61500000D03*
%TD*%
D29*
%TO.P,TP18,1,1*%
%TO.N,/range_switching/POT_2W*%
X134750000Y-64250000D03*
%TD*%
D20*
%TO.P,R1,1*%
%TO.N,/Sensor MCU/SPI_SCK_*%
X152330000Y-57500000D03*
D21*
%TO.P,R1,2*%
%TO.N,SPI_CLK*%
X142170000Y-57500000D03*
%TD*%
D20*
%TO.P,R29,1*%
%TO.N,Net-(LED1-A)*%
X106000000Y-126080000D03*
D21*
%TO.P,R29,2*%
%TO.N,+3V3*%
X106000000Y-115920000D03*
%TD*%
D29*
%TO.P,TP4,1,1*%
%TO.N,+15V*%
X68900000Y-91000000D03*
%TD*%
D17*
%TO.P,LED1,1,K*%
%TO.N,GND*%
X89128500Y-157103200D03*
D18*
%TO.P,LED1,2,A*%
%TO.N,Net-(LED1-A)*%
X91668500Y-157103200D03*
%TD*%
D15*
%TO.P,U12,1*%
%TO.N,-1V65*%
X69000000Y-104380000D03*
D16*
%TO.P,U12,2,-*%
X69000000Y-106920000D03*
%TO.P,U12,3,+*%
%TO.N,Net-(U12A-+)*%
X69000000Y-109460000D03*
%TO.P,U12,4,V-*%
%TO.N,-15V*%
X69000000Y-112000000D03*
%TO.P,U12,5,+*%
%TO.N,Net-(U12B-+)*%
X76620000Y-112000000D03*
%TO.P,U12,6,-*%
%TO.N,ADC1_IN2*%
X76620000Y-109460000D03*
%TO.P,U12,7*%
X76620000Y-106920000D03*
%TO.P,U12,8,V+*%
%TO.N,+15V*%
X76620000Y-104380000D03*
%TD*%
D20*
%TO.P,R33,1*%
%TO.N,Net-(U14-Q3)*%
X134247700Y-115947000D03*
D21*
%TO.P,R33,2*%
%TO.N,Net-(LED5-A)*%
X134247700Y-126107000D03*
%TD*%
D14*
%TO.P,CR1,1*%
%TO.N,Net-(J12-Pin_2)*%
X149500000Y-102750000D03*
D13*
%TO.P,CR1,2*%
%TO.N,GND*%
X149500000Y-107450001D03*
%TO.P,CR1,3*%
%TO.N,N/C*%
X149500000Y-112150001D03*
%TD*%
D20*
%TO.P,R21,1*%
%TO.N,Net-(U7-\u002ASHDN)*%
X41080000Y-122000000D03*
D21*
%TO.P,R21,2*%
%TO.N,+9V*%
X30920000Y-122000000D03*
%TD*%
D20*
%TO.P,R24,1*%
%TO.N,GND*%
X41080000Y-134150000D03*
D21*
%TO.P,R24,2*%
%TO.N,Net-(U7-FB)*%
X30920000Y-134150000D03*
%TD*%
D20*
%TO.P,R23,1*%
%TO.N,Net-(U7-FB)*%
X41080000Y-130100000D03*
D21*
%TO.P,R23,2*%
%TO.N,17V*%
X30920000Y-130100000D03*
%TD*%
D20*
%TO.P,R22,1*%
%TO.N,GND*%
X41080000Y-126050000D03*
D21*
%TO.P,R22,2*%
%TO.N,Net-(U7-\u002ASHDN)*%
X30920000Y-126050000D03*
%TD*%
D66*
%TO.N,Net-(U20A--)*%
X130326600Y-98044000D03*
%TO.N,Net-(U18-DA)*%
X107491200Y-95397500D03*
X110368800Y-74601500D03*
%TO.N,Net-(U15-Q7)*%
X113578400Y-98857000D03*
X112986400Y-119200300D03*
%TO.N,Net-(U15-Q0)*%
X107530800Y-112861200D03*
%TO.N,Net-(U14-Q6)*%
X123133000Y-115896800D03*
%TO.N,Net-(U12A-+)*%
X61751400Y-99094800D03*
X77086700Y-108190000D03*
%TO.N,Net-(U7-\u002ASHDN)*%
X42796300Y-126326800D03*
%TO.N,Net-(U17B-+)*%
X91490700Y-143210500D03*
%TO.N,Net-(U17A-+)*%
X91779700Y-145099100D03*
%TO.N,Net-(U16B-+)*%
X89737000Y-144085900D03*
%TO.N,Net-(U16A-+)*%
X84002400Y-146303400D03*
%TO.N,Net-(J5-Pin_1)*%
X42395000Y-137354900D03*
%TO.N,Net-(J12-Pin_2)*%
X33343800Y-77584500D03*
X148814700Y-76243800D03*
%TO.N,Net-(BT1-PadP)*%
X99100500Y-147304200D03*
%TO.N,/range_switching/POT_2W*%
X139695400Y-86100400D03*
%TO.N,/range_switching/POT_1B*%
X130748500Y-87258800D03*
%TO.N,AMUX_A0*%
X90268100Y-91648200D03*
X90304800Y-116363500D03*
%TO.N,AMUX_A1*%
X92692900Y-122983700D03*
X96033700Y-91700800D03*
%TO.N,ADC1_IN2*%
X83824500Y-82534700D03*
X82687500Y-128146900D03*
%TO.N,ADC1_IN1*%
X61300500Y-125312500D03*
X59614000Y-102421500D03*
X32762600Y-101521000D03*
%TO.N,CS_POT*%
X98518800Y-62669500D03*
X85575100Y-130669000D03*
%TO.N,CH4_Buffered*%
X99263000Y-108000000D03*
X97537600Y-103179100D03*
%TO.N,CH2_Buffered*%
X89618800Y-99729200D03*
%TO.N,CH1_Buffered*%
X81550400Y-104020500D03*
%TO.N,ALARM_CLK*%
X122553800Y-114145400D03*
X110547400Y-112361800D03*
X82628100Y-112848400D03*
X80697000Y-129204000D03*
%TO.N,ALARM_LED*%
X104235500Y-133692000D03*
%TO.N,STM_RX*%
X33973900Y-104828300D03*
X85418500Y-125577000D03*
X85110900Y-115997900D03*
X56321800Y-111629500D03*
X53230000Y-111384000D03*
%TO.N,STM_TX*%
X81413300Y-126950700D03*
X71296400Y-100878400D03*
%TO.N,SAMPLING_LED*%
X87171800Y-134989400D03*
X88922300Y-120585900D03*
%TO.N,Net-(R8-Pad1)*%
X159819200Y-98431700D03*
%TO.N,Net-(R6-Pad2)*%
X160955000Y-107249400D03*
%TO.N,I2C_SDA*%
X112393500Y-31864400D03*
X107180400Y-86027100D03*
X93264700Y-83848000D03*
X92730400Y-119346500D03*
%TO.N,VDD +3.3V*%
X161905000Y-31949300D03*
X149085000Y-29578800D03*
X146456600Y-33046000D03*
%TO.N,I2C_SCL*%
X92593800Y-83337100D03*
X108451200Y-84023200D03*
X112371600Y-35822500D03*
X148665700Y-34680000D03*
X91974000Y-120174700D03*
%TO.N,/Sensor MCU/SPI_MISO_*%
X85469800Y-72268000D03*
X84482200Y-132111300D03*
%TO.N,/Sensor MCU/SPI_MOSI_*%
X84214300Y-135101600D03*
X85469800Y-74601500D03*
%TO.N,/Sensor MCU/SPI_SCK_*%
X81749900Y-114222100D03*
X80873500Y-131811600D03*
X150835800Y-117639500D03*
%TO.N,Net-(Q1-E)*%
X67289500Y-152159500D03*
%TO.N,JLink_SWDIO*%
X122597600Y-129985200D03*
X120895000Y-144484800D03*
%TO.N,JLink_SWO*%
X160049900Y-129465600D03*
%TO.N,TX_OPTICAL*%
X53664700Y-115445500D03*
X57446800Y-137052200D03*
%TO.N,RX_OPTICAL*%
X77781300Y-134261500D03*
%TO.N,+3.3V*%
X41502900Y-97557200D03*
X110577400Y-83759200D03*
X112501900Y-90038600D03*
X111612100Y-89156300D03*
%TO.N,Net-(D23-A)*%
X45193800Y-126351300D03*
X41079800Y-128218300D03*
X36488300Y-129332700D03*
%TO.N,Net-(D2-A)*%
X160488300Y-103224800D03*
%TO.N,Net-(C25-Pad1)*%
X165573800Y-131231600D03*
%TO.N,JLink_RST*%
X160731300Y-134780100D03*
%TO.N,-5V*%
X83706300Y-59686500D03*
X63045300Y-89489100D03*
%TO.N,-15V*%
X91802400Y-94095000D03*
%TO.N,+15V*%
X49937500Y-122815800D03*
X76748400Y-100981000D03*
X63757900Y-90179700D03*
%TO.N,17V*%
X62416900Y-130520400D03*
X33386800Y-135379800D03*
%TO.N,+9V*%
X93083500Y-80567500D03*
X32074700Y-90075200D03*
%TO.N,+5V*%
X80743800Y-53720500D03*
X50083600Y-130039000D03*
X42179800Y-99083200D03*
X50239300Y-108176700D03*
%TO.N,+3V3*%
X36298000Y-100084600D03*
X71324500Y-130813800D03*
X129936700Y-60617000D03*
X96916600Y-123654700D03*
X71324500Y-126404400D03*
%TO.N,GND*%
X131517900Y-62669500D03*
X151934200Y-32708500D03*
X150231300Y-35129000D03*
X88293000Y-92754300D03*
X98190000Y-125641200D03*
X87518000Y-137244500D03*
X134068800Y-36069500D03*
X32504000Y-134744400D03*
X89123700Y-91231500D03*
X128143800Y-58800200D03*
X129730900Y-62669500D03*
%TD*%
D67*
%TO.N,Net-(U23-VBG)*%
X49840000Y-84380000D02*
X49840000Y-85881700D01*
X39477500Y-85881700D02*
X38658200Y-86701000D01*
X49840000Y-85881700D02*
X39477500Y-85881700D01*
%TO.N,Net-(U21-A2)*%
X138218900Y-58281100D02*
X138250000Y-58250000D01*
X134525000Y-58281100D02*
X138218900Y-58281100D01*
X134525000Y-59319400D02*
X134525000Y-58281100D01*
%TO.N,Net-(U21-A1)*%
X138767300Y-47750000D02*
X133875000Y-52642300D01*
X140000000Y-47750000D02*
X138767300Y-47750000D01*
X133875000Y-53680600D02*
X133875000Y-52642300D01*
%TO.N,Net-(U20A--)*%
X138050500Y-99122200D02*
X140978300Y-102050000D01*
X131404800Y-99122200D02*
X138050500Y-99122200D01*
X130326600Y-98044000D02*
X131404800Y-99122200D01*
X142080000Y-102050000D02*
X140978300Y-102050000D01*
%TO.N,Net-(R52-Pad2)*%
X136928300Y-85850000D02*
X131920000Y-85850000D01*
X140978300Y-81800000D02*
X136928300Y-85850000D01*
X141529200Y-81800000D02*
X140978300Y-81800000D01*
X141529200Y-81800000D02*
X142080000Y-81800000D01*
X146234200Y-80698300D02*
X152552500Y-74380000D01*
X144283400Y-80698300D02*
X146234200Y-80698300D01*
X143181700Y-81800000D02*
X144283400Y-80698300D01*
X142080000Y-81800000D02*
X143181700Y-81800000D01*
X153540000Y-74380000D02*
X152552500Y-74380000D01*
%TO.N,Net-(U19A--)*%
X151000000Y-74909400D02*
X151000000Y-74380000D01*
X149063900Y-76845500D02*
X151000000Y-74909400D01*
X148565600Y-76845500D02*
X149063900Y-76845500D01*
X148356100Y-76636000D02*
X148565600Y-76845500D01*
X137084000Y-76636000D02*
X148356100Y-76636000D01*
X131920000Y-81800000D02*
X137084000Y-76636000D01*
%TO.N,Net-(U19A-+)*%
X147387300Y-73307300D02*
X148460000Y-74380000D01*
X143574400Y-73307300D02*
X147387300Y-73307300D01*
X143181700Y-73700000D02*
X143574400Y-73307300D01*
X142080000Y-73700000D02*
X143181700Y-73700000D01*
%TO.N,Net-(U18-DA)*%
X94747900Y-100445000D02*
X93275900Y-100445000D01*
X97869000Y-97323900D02*
X94747900Y-100445000D01*
X99584500Y-97323900D02*
X97869000Y-97323900D01*
X102405600Y-94502800D02*
X99584500Y-97323900D01*
X106596500Y-94502800D02*
X102405600Y-94502800D01*
X107491200Y-95397500D02*
X106596500Y-94502800D01*
X111270300Y-73700000D02*
X110368800Y-74601500D01*
X131920000Y-73700000D02*
X111270300Y-73700000D01*
%TO.N,Net-(U15-Q4)*%
X137755800Y-115915100D02*
X136654100Y-115915100D01*
X112707800Y-106707800D02*
X111620000Y-105620000D01*
X120640300Y-106707800D02*
X112707800Y-106707800D01*
X123362500Y-109430000D02*
X120640300Y-106707800D01*
X125567900Y-109430000D02*
X123362500Y-109430000D01*
X130531100Y-114393200D02*
X125567900Y-109430000D01*
X135132300Y-114393200D02*
X130531100Y-114393200D01*
X135132300Y-114393300D02*
X135132300Y-114393200D01*
X136654100Y-115915100D02*
X135132300Y-114393300D01*
%TO.N,Net-(U15-Q5)*%
X113131700Y-104591700D02*
X111620000Y-103080000D01*
X125565900Y-104591700D02*
X113131700Y-104591700D01*
X125852600Y-104878400D02*
X125565900Y-104591700D01*
X132330200Y-104878400D02*
X125852600Y-104878400D01*
X142750900Y-115299100D02*
X132330200Y-104878400D01*
X142750900Y-115914300D02*
X142750900Y-115299100D01*
X143852600Y-115914300D02*
X142750900Y-115914300D01*
%TO.N,Net-(U15-Q6)*%
X149952200Y-115920000D02*
X148850500Y-115920000D01*
X148850500Y-115302100D02*
X148850500Y-115920000D01*
X137623400Y-104075000D02*
X148850500Y-115302100D01*
X131352000Y-104075000D02*
X137623400Y-104075000D01*
X129407600Y-102130600D02*
X131352000Y-104075000D01*
X113210600Y-102130600D02*
X129407600Y-102130600D01*
X111620000Y-100540000D02*
X113210600Y-102130600D01*
%TO.N,Net-(U15-Q7)*%
X112721400Y-98000000D02*
X113578400Y-98857000D01*
X111620000Y-98000000D02*
X112721400Y-98000000D01*
X152570200Y-119200300D02*
X155850500Y-115920000D01*
X112986400Y-119200300D02*
X152570200Y-119200300D01*
X156952200Y-115920000D02*
X155850500Y-115920000D01*
%TO.N,Net-(U15-Q3)*%
X129811600Y-114605600D02*
X131130000Y-115924000D01*
X126443000Y-114605600D02*
X129811600Y-114605600D01*
X118998800Y-107161400D02*
X126443000Y-114605600D01*
X111818800Y-107161400D02*
X118998800Y-107161400D01*
X109328000Y-104670600D02*
X111818800Y-107161400D01*
X103534400Y-104670600D02*
X109328000Y-104670600D01*
X103046200Y-105158800D02*
X103534400Y-104670600D01*
X103046200Y-107206200D02*
X103046200Y-105158800D01*
X104000000Y-108160000D02*
X103046200Y-107206200D01*
%TO.N,Net-(U15-Q2)*%
X107649100Y-109269100D02*
X104000000Y-105620000D01*
X118530000Y-109269100D02*
X107649100Y-109269100D01*
X124967100Y-115706200D02*
X118530000Y-109269100D01*
X124967100Y-115920000D02*
X124967100Y-115706200D01*
%TO.N,Net-(U15-Q1)*%
X102594500Y-104485500D02*
X104000000Y-103080000D01*
X102594500Y-110651900D02*
X102594500Y-104485500D01*
X103702700Y-111760100D02*
X102594500Y-110651900D01*
X114692100Y-111760100D02*
X103702700Y-111760100D01*
X118834600Y-115902600D02*
X114692100Y-111760100D01*
%TO.N,Net-(U15-Q0)*%
X109656100Y-112861200D02*
X107530800Y-112861200D01*
X112697500Y-115902600D02*
X109656100Y-112861200D01*
%TO.N,Net-(U14-Q4)*%
X129403600Y-105620000D02*
X124620000Y-105620000D01*
X139698300Y-115914700D02*
X129403600Y-105620000D01*
X140800000Y-115914700D02*
X139698300Y-115914700D01*
%TO.N,Net-(U14-Q5)*%
X146905200Y-115916100D02*
X145803500Y-115916100D01*
X124855400Y-103080000D02*
X124620000Y-103080000D01*
X126252100Y-104476700D02*
X124855400Y-103080000D01*
X134364100Y-104476700D02*
X126252100Y-104476700D01*
X145803500Y-115916100D02*
X134364100Y-104476700D01*
%TO.N,Net-(U14-Q6)*%
X153000000Y-115920000D02*
X151898300Y-115920000D01*
X124700100Y-117463900D02*
X123133000Y-115896800D01*
X149786500Y-117463900D02*
X124700100Y-117463900D01*
X150186600Y-117063800D02*
X149786500Y-117463900D01*
X150560700Y-117063800D02*
X150186600Y-117063800D01*
X151704500Y-115920000D02*
X150560700Y-117063800D01*
X151898300Y-115920000D02*
X151704500Y-115920000D01*
%TO.N,Net-(U14-Q7)*%
X104000000Y-95460000D02*
X104949400Y-95460000D01*
X160000000Y-115920000D02*
X158898300Y-115920000D01*
X157796600Y-114818300D02*
X158898300Y-115920000D01*
X149165100Y-114818300D02*
X157796600Y-114818300D01*
X134411700Y-100064900D02*
X149165100Y-114818300D01*
X131345900Y-100064900D02*
X134411700Y-100064900D01*
X129281000Y-98000000D02*
X131345900Y-100064900D01*
X124620000Y-98000000D02*
X129281000Y-98000000D01*
X104949400Y-96286800D02*
X104949400Y-95460000D01*
X104185600Y-97050600D02*
X104949400Y-96286800D01*
X103606800Y-97050600D02*
X104185600Y-97050600D01*
X103050600Y-97606800D02*
X103606800Y-97050600D01*
X103050600Y-98393200D02*
X103050600Y-97606800D01*
X103606800Y-98949400D02*
X103050600Y-98393200D01*
X109328100Y-98949400D02*
X103606800Y-98949400D01*
X109328100Y-98949300D02*
X109328100Y-98949400D01*
X111226800Y-97050600D02*
X109328100Y-98949300D01*
X112622900Y-97050600D02*
X111226800Y-97050600D01*
X114521800Y-98949500D02*
X112622900Y-97050600D01*
X123670500Y-98949500D02*
X114521800Y-98949500D01*
X124620000Y-98000000D02*
X123670500Y-98949500D01*
%TO.N,Net-(U14-Q3)*%
X118765200Y-108160000D02*
X117000000Y-108160000D01*
X126505900Y-115900700D02*
X118765200Y-108160000D01*
X126505900Y-115995700D02*
X126505900Y-115900700D01*
X127563700Y-117053500D02*
X126505900Y-115995700D01*
X133141200Y-117053500D02*
X127563700Y-117053500D01*
X134247700Y-115947000D02*
X133141200Y-117053500D01*
%TO.N,Net-(U12B-+)*%
X71515200Y-97000000D02*
X73006100Y-98490900D01*
X65080000Y-97000000D02*
X71515200Y-97000000D01*
X109247700Y-116000000D02*
X108146000Y-116000000D01*
X78070100Y-113450100D02*
X76620000Y-112000000D01*
X105596100Y-113450100D02*
X78070100Y-113450100D01*
X108146000Y-116000000D02*
X105596100Y-113450100D01*
%TO.N,Net-(U12A-+)*%
X63827800Y-99094800D02*
X65037200Y-100304200D01*
X61751400Y-99094800D02*
X63827800Y-99094800D01*
X70270000Y-108190000D02*
X77086700Y-108190000D01*
X69000000Y-109460000D02*
X70270000Y-108190000D01*
%TO.N,Net-(U7-FB)*%
X30920000Y-134150000D02*
X32021700Y-134150000D01*
X35113900Y-129987300D02*
X34323300Y-129987300D01*
X34323300Y-130799200D02*
X34460000Y-130935900D01*
X34323300Y-129987300D02*
X34323300Y-130799200D01*
X40244100Y-130935900D02*
X41080000Y-130100000D01*
X34460000Y-130935900D02*
X40244100Y-130935900D01*
X34460000Y-131711700D02*
X34460000Y-130935900D01*
X32021700Y-134150000D02*
X34460000Y-131711700D01*
%TO.N,Net-(U7-\u002ASHDN)*%
X37793600Y-130000000D02*
X37003000Y-130000000D01*
X30920000Y-126050000D02*
X32021700Y-126050000D01*
X34526500Y-126050000D02*
X32021700Y-126050000D01*
X37090000Y-128613500D02*
X34526500Y-126050000D01*
X37090000Y-129581900D02*
X37090000Y-128613500D01*
X37003000Y-129668900D02*
X37090000Y-129581900D01*
X37003000Y-130000000D02*
X37003000Y-129668900D01*
X41922100Y-127201000D02*
X42796300Y-126326800D01*
X39847400Y-127201000D02*
X41922100Y-127201000D01*
X38434900Y-128613500D02*
X39847400Y-127201000D01*
X37090000Y-128613500D02*
X38434900Y-128613500D01*
%TO.N,Net-(U17B-+)*%
X93276300Y-144996100D02*
X91490700Y-143210500D01*
X109942800Y-144996100D02*
X93276300Y-144996100D01*
X111886400Y-146939700D02*
X109942800Y-144996100D01*
X130505300Y-146939700D02*
X111886400Y-146939700D01*
X134221800Y-150656200D02*
X130505300Y-146939700D01*
%TO.N,Net-(U17A-+)*%
X121740900Y-148675300D02*
X123721800Y-150656200D01*
X112853800Y-148675300D02*
X121740900Y-148675300D01*
X109646200Y-145467700D02*
X112853800Y-148675300D01*
X92148300Y-145467700D02*
X109646200Y-145467700D01*
X91779700Y-145099100D02*
X92148300Y-145467700D01*
%TO.N,Net-(U16B-+)*%
X108563500Y-145997900D02*
X113221800Y-150656200D01*
X91649000Y-145997900D02*
X108563500Y-145997900D01*
X89737000Y-144085900D02*
X91649000Y-145997900D01*
%TO.N,Net-(U16A-+)*%
X102721800Y-150046900D02*
X102721800Y-150656200D01*
X99074500Y-146399600D02*
X102721800Y-150046900D01*
X84098600Y-146399600D02*
X99074500Y-146399600D01*
X84002400Y-146303400D02*
X84098600Y-146399600D01*
%TO.N,Net-(J5-Pin_1)*%
X42472700Y-137277200D02*
X42395000Y-137354900D01*
X51925200Y-137277200D02*
X42472700Y-137277200D01*
X57498000Y-142850000D02*
X51925200Y-137277200D01*
X66080000Y-142850000D02*
X57498000Y-142850000D01*
%TO.N,Net-(J4-Pin_3)*%
X35744100Y-115899800D02*
X32459300Y-112615000D01*
X36626200Y-115899800D02*
X35744100Y-115899800D01*
X42440200Y-121713800D02*
X36626200Y-115899800D01*
X53063600Y-121713800D02*
X42440200Y-121713800D01*
X53235200Y-121542200D02*
X53063600Y-121713800D01*
X63794700Y-121542200D02*
X53235200Y-121542200D01*
X31307600Y-112615000D02*
X32459300Y-112615000D01*
%TO.N,Net-(J12-Pin_2)*%
X149500000Y-102750000D02*
X148169600Y-102750000D01*
X144819600Y-106100000D02*
X148169600Y-102750000D01*
X142080000Y-106100000D02*
X144819600Y-106100000D01*
X34715700Y-76212600D02*
X33343800Y-77584500D01*
X148783500Y-76212600D02*
X34715700Y-76212600D01*
X148814700Y-76243800D02*
X148783500Y-76212600D01*
%TO.N,Net-(U10-C+)*%
X42738600Y-112710500D02*
X41660500Y-111632400D01*
X42738600Y-113635700D02*
X42738600Y-112710500D01*
X44716300Y-115613400D02*
X42738600Y-113635700D01*
%TO.N,Net-(U10-C-)*%
X42725900Y-114772800D02*
X41660500Y-113707400D01*
X42725900Y-118703000D02*
X42725900Y-114772800D01*
X44716300Y-120693400D02*
X42725900Y-118703000D01*
%TO.N,Net-(BT1-PadP)*%
X88525700Y-147304200D02*
X99100500Y-147304200D01*
X87223800Y-148606100D02*
X88525700Y-147304200D01*
X53567900Y-148606100D02*
X87223800Y-148606100D01*
X46554600Y-155619400D02*
X53567900Y-148606100D01*
X33060400Y-155619400D02*
X46554600Y-155619400D01*
%TO.N,-1V65*%
X69000000Y-104380000D02*
X69000000Y-103886200D01*
X69000000Y-103886200D02*
X69000000Y-103392500D01*
X81660600Y-91000000D02*
X84050000Y-91000000D01*
X74170900Y-98489700D02*
X81660600Y-91000000D01*
X74170900Y-98854800D02*
X74170900Y-98489700D01*
X69633200Y-103392500D02*
X74170900Y-98854800D01*
X69000000Y-103392500D02*
X69633200Y-103392500D01*
X129393900Y-99523900D02*
X131920000Y-102050000D01*
X110652100Y-99523900D02*
X129393900Y-99523900D01*
X108366000Y-101810000D02*
X110652100Y-99523900D01*
X103774600Y-101810000D02*
X108366000Y-101810000D01*
X99982100Y-105602500D02*
X103774600Y-101810000D01*
X70716300Y-105602500D02*
X99982100Y-105602500D01*
X69000000Y-103886200D02*
X70716300Y-105602500D01*
%TO.N,NAU7802_VIN1P*%
X31191300Y-102945300D02*
X31191300Y-101793600D01*
X57460000Y-84380000D02*
X57460000Y-85881700D01*
X31639200Y-101793600D02*
X31191300Y-101793600D01*
X34390500Y-99042300D02*
X31639200Y-101793600D01*
X35682500Y-99042300D02*
X34390500Y-99042300D01*
X37252900Y-97471900D02*
X35682500Y-99042300D01*
X40737500Y-97471900D02*
X37252900Y-97471900D01*
X40737500Y-97471800D02*
X40737500Y-97471900D01*
X41253800Y-96955500D02*
X40737500Y-97471800D01*
X41795800Y-96955500D02*
X41253800Y-96955500D01*
X46030000Y-92721300D02*
X41795800Y-96955500D01*
X46030000Y-91291700D02*
X46030000Y-92721300D01*
X46975800Y-90345900D02*
X46030000Y-91291700D01*
X52995800Y-90345900D02*
X46975800Y-90345900D01*
X57460000Y-85881700D02*
X52995800Y-90345900D01*
%TO.N,ADS1119_AINP*%
X110000000Y-88975000D02*
X111001700Y-88975000D01*
X31191300Y-95325300D02*
X32343000Y-95325300D01*
X111001700Y-88915900D02*
X111001700Y-88975000D01*
X111415500Y-88502100D02*
X111001700Y-88915900D01*
X111415500Y-83746300D02*
X111415500Y-88502100D01*
X109599700Y-81930500D02*
X111415500Y-83746300D01*
X57938100Y-81930500D02*
X109599700Y-81930500D01*
X56190000Y-83678600D02*
X57938100Y-81930500D01*
X56190000Y-85097800D02*
X56190000Y-83678600D01*
X51369600Y-89918200D02*
X56190000Y-85097800D01*
X37750100Y-89918200D02*
X51369600Y-89918200D01*
X32343000Y-95325300D02*
X37750100Y-89918200D01*
%TO.N,/range_switching/POT_1W*%
X133225000Y-49275000D02*
X133225000Y-53680600D01*
X135500000Y-47000000D02*
X133225000Y-49275000D01*
%TO.N,/range_switching/POT_2W*%
X143171700Y-84748300D02*
X145920000Y-82000000D01*
X142080000Y-84748300D02*
X143171700Y-84748300D01*
X133875000Y-63375000D02*
X134750000Y-64250000D01*
X133875000Y-59319400D02*
X133875000Y-63375000D01*
X140496700Y-85299100D02*
X139695400Y-86100400D01*
X142080000Y-85299100D02*
X140496700Y-85299100D01*
X142080000Y-85850000D02*
X142080000Y-85299100D01*
X142080000Y-85299100D02*
X142080000Y-84748300D01*
%TO.N,/range_switching/POT_1B*%
X132575000Y-49075000D02*
X132575000Y-53680600D01*
X130750000Y-47250000D02*
X132575000Y-49075000D01*
X142266900Y-87258800D02*
X130748500Y-87258800D01*
X144601600Y-84924100D02*
X142266900Y-87258800D01*
X144601600Y-84834100D02*
X144601600Y-84924100D01*
X145745700Y-83690000D02*
X144601600Y-84834100D01*
X149310000Y-83690000D02*
X145745700Y-83690000D01*
X151000000Y-82000000D02*
X149310000Y-83690000D01*
%TO.N,Net-(U1-PH3)*%
X87920000Y-117000000D02*
X86818300Y-117000000D01*
X83250000Y-120568300D02*
X86818300Y-117000000D01*
X83250000Y-122325000D02*
X83250000Y-120568300D01*
%TO.N,AMUX_A0*%
X92150800Y-91648200D02*
X92244000Y-91555000D01*
X90268100Y-91648200D02*
X92150800Y-91648200D01*
X93275900Y-91555000D02*
X92244000Y-91555000D01*
X89839600Y-115898300D02*
X90304800Y-116363500D01*
X87317100Y-115898300D02*
X89839600Y-115898300D01*
X82750000Y-120465400D02*
X87317100Y-115898300D01*
X82750000Y-122325000D02*
X82750000Y-120465400D01*
%TO.N,AMUX_A1*%
X92274600Y-123402000D02*
X92692900Y-122983700D01*
X82442600Y-123402000D02*
X92274600Y-123402000D01*
X82250000Y-123209400D02*
X82442600Y-123402000D01*
X82250000Y-122325000D02*
X82250000Y-123209400D01*
X96179500Y-91555000D02*
X96033700Y-91700800D01*
X98724200Y-91555000D02*
X96179500Y-91555000D01*
%TO.N,ADC1_IN2*%
X60000000Y-84380000D02*
X60000000Y-82878300D01*
X88575100Y-90475100D02*
X84050000Y-85950000D01*
X94341900Y-90475100D02*
X88575100Y-90475100D01*
X94672900Y-90806100D02*
X94341900Y-90475100D01*
X105129200Y-90806100D02*
X94672900Y-90806100D01*
X106310300Y-89625000D02*
X105129200Y-90806100D01*
X110000000Y-89625000D02*
X106310300Y-89625000D01*
X80133100Y-128250000D02*
X79325000Y-128250000D01*
X80236200Y-128146900D02*
X80133100Y-128250000D01*
X82744900Y-128146900D02*
X80236200Y-128146900D01*
X83822800Y-82533000D02*
X83824500Y-82534700D01*
X60345300Y-82533000D02*
X83822800Y-82533000D01*
X60000000Y-82878300D02*
X60345300Y-82533000D01*
X82744900Y-128146900D02*
X82687500Y-128146900D01*
X82687500Y-128146900D02*
X82653200Y-128112600D01*
X82653200Y-128112600D02*
X82687500Y-128146900D01*
%TO.N,ADC1_IN1*%
X63738000Y-127750000D02*
X79325000Y-127750000D01*
X61300500Y-125312500D02*
X63738000Y-127750000D01*
X36250900Y-101521000D02*
X32762600Y-101521000D01*
X36456100Y-101315800D02*
X36250900Y-101521000D01*
X58508300Y-101315800D02*
X36456100Y-101315800D01*
X59614000Y-102421500D02*
X58508300Y-101315800D01*
%TO.N,CS_POT*%
X126624900Y-62669500D02*
X129975000Y-59319400D01*
X98518800Y-62669500D02*
X126624900Y-62669500D01*
X85575100Y-131869300D02*
X85575100Y-130669000D01*
X84750000Y-132694400D02*
X85575100Y-131869300D01*
X84750000Y-133675000D02*
X84750000Y-132694400D01*
%TO.N,CH4_Buffered*%
X99263000Y-107183000D02*
X99263000Y-108000000D01*
X98810000Y-106730000D02*
X99263000Y-107183000D01*
X94534200Y-103179100D02*
X97537600Y-103179100D01*
X92244000Y-100888900D02*
X94534200Y-103179100D01*
X92244000Y-99175000D02*
X92244000Y-100888900D01*
X93275900Y-99175000D02*
X92244000Y-99175000D01*
%TO.N,CH3_Buffered*%
X91190000Y-98959000D02*
X91190000Y-104190000D01*
X92244000Y-97905000D02*
X91190000Y-98959000D01*
X93275900Y-97905000D02*
X92244000Y-97905000D01*
%TO.N,CH2_Buffered*%
X93275900Y-96635000D02*
X92244000Y-96635000D01*
X92244000Y-97104000D02*
X89618800Y-99729200D01*
X92244000Y-96635000D02*
X92244000Y-97104000D01*
%TO.N,CH1_Buffered*%
X93275900Y-95365000D02*
X92244000Y-95365000D01*
X81380900Y-104190000D02*
X81550400Y-104020500D01*
X80190000Y-104190000D02*
X81380900Y-104190000D01*
X83588500Y-104020500D02*
X81550400Y-104020500D01*
X92244000Y-95365000D02*
X83588500Y-104020500D01*
%TO.N,ALARM_CLK*%
X118192100Y-114145400D02*
X122553800Y-114145400D01*
X114746700Y-110700000D02*
X118192100Y-114145400D01*
X111620000Y-110700000D02*
X114746700Y-110700000D01*
X80651000Y-129250000D02*
X80697000Y-129204000D01*
X79325000Y-129250000D02*
X80651000Y-129250000D01*
X82643200Y-112833300D02*
X82628100Y-112848400D01*
X84360700Y-112833300D02*
X82643200Y-112833300D01*
X84526900Y-112667100D02*
X84360700Y-112833300D01*
X84526900Y-112667100D02*
X84360700Y-112833300D01*
X84693100Y-112833300D02*
X84526900Y-112667100D01*
X99807300Y-112833300D02*
X84693100Y-112833300D01*
X100404200Y-112236400D02*
X99807300Y-112833300D01*
X110422000Y-112236400D02*
X100404200Y-112236400D01*
X110547400Y-112361800D02*
X110422000Y-112236400D01*
%TO.N,ALARM_LED*%
X90528600Y-133692000D02*
X104235500Y-133692000D01*
X85585200Y-128748600D02*
X90528600Y-133692000D01*
X82438400Y-128748600D02*
X85585200Y-128748600D01*
X82258400Y-128568600D02*
X82438400Y-128748600D01*
X80447900Y-128568600D02*
X82258400Y-128568600D01*
X80266500Y-128750000D02*
X80447900Y-128568600D01*
X79325000Y-128750000D02*
X80266500Y-128750000D01*
%TO.N,STM_RX*%
X86591500Y-126750000D02*
X85418500Y-125577000D01*
X90675000Y-126750000D02*
X86591500Y-126750000D01*
X60480200Y-111629500D02*
X56321800Y-111629500D01*
X64848600Y-115997900D02*
X60480200Y-111629500D01*
X84728000Y-115997900D02*
X64848600Y-115997900D01*
X35428900Y-106283300D02*
X33973900Y-104828300D01*
X39765800Y-106283300D02*
X35428900Y-106283300D01*
X44866500Y-111384000D02*
X39765800Y-106283300D01*
X53230000Y-111384000D02*
X44866500Y-111384000D01*
X84728000Y-115997900D02*
X85110900Y-115997900D01*
%TO.N,STM_TX*%
X70636300Y-101538500D02*
X71296400Y-100878400D01*
X61174400Y-101538500D02*
X70636300Y-101538500D01*
X60322200Y-100686300D02*
X61174400Y-101538500D01*
X35303500Y-100686300D02*
X60322200Y-100686300D01*
X34929500Y-100312300D02*
X35303500Y-100686300D01*
X82967600Y-126950700D02*
X81413300Y-126950700D01*
X83266900Y-127250000D02*
X82967600Y-126950700D01*
X90675000Y-127250000D02*
X83266900Y-127250000D01*
%TO.N,VDD +10V*%
X157764700Y-105285300D02*
X159050000Y-104000000D01*
X157764700Y-110092000D02*
X157764700Y-105285300D01*
X158672700Y-111000000D02*
X157764700Y-110092000D01*
X159050000Y-111000000D02*
X158672700Y-111000000D01*
%TO.N,SAMPLING_LED*%
X86250000Y-134545100D02*
X86250000Y-133675000D01*
X86694300Y-134989400D02*
X86250000Y-134545100D01*
X87171800Y-134989400D02*
X86694300Y-134989400D01*
X89123700Y-120787300D02*
X88922300Y-120585900D01*
X96901000Y-120787300D02*
X89123700Y-120787300D01*
X101717000Y-115971300D02*
X96901000Y-120787300D01*
X102818700Y-115971300D02*
X101717000Y-115971300D01*
%TO.N,Net-(R8-Pad1)*%
X162988400Y-68276500D02*
X157280100Y-68276500D01*
X166338400Y-71626500D02*
X162988400Y-68276500D01*
X167440100Y-71626500D02*
X166338400Y-71626500D01*
X159819200Y-99420800D02*
X159819200Y-98431700D01*
X159050000Y-100190000D02*
X159819200Y-99420800D01*
%TO.N,Net-(R6-Pad2)*%
X160895600Y-107190000D02*
X160955000Y-107249400D01*
X159050000Y-107190000D02*
X160895600Y-107190000D01*
%TO.N,I2C_SDA*%
X57460000Y-92000000D02*
X57460000Y-90498300D01*
X141232900Y-27381100D02*
X141232900Y-29249500D01*
X141589000Y-27025000D02*
X141232900Y-27381100D01*
X142387500Y-27025000D02*
X141589000Y-27025000D01*
X107528300Y-86375000D02*
X110000000Y-86375000D01*
X107180400Y-86027100D02*
X107528300Y-86375000D01*
X115008400Y-29249500D02*
X112393500Y-31864400D01*
X141232900Y-29249500D02*
X115008400Y-29249500D01*
X147862500Y-31167500D02*
X151745000Y-35050000D01*
X143150900Y-31167500D02*
X147862500Y-31167500D01*
X141232900Y-29249500D02*
X143150900Y-31167500D01*
X93358600Y-83754100D02*
X93264700Y-83848000D01*
X104907400Y-83754100D02*
X93358600Y-83754100D01*
X107180400Y-86027100D02*
X104907400Y-83754100D01*
X143750000Y-35843900D02*
X143750000Y-35450000D01*
X144334800Y-36428700D02*
X143750000Y-35843900D01*
X150366300Y-36428700D02*
X144334800Y-36428700D01*
X151745000Y-35050000D02*
X150366300Y-36428700D01*
X60026900Y-90498300D02*
X57460000Y-90498300D01*
X66787100Y-83738100D02*
X60026900Y-90498300D01*
X80092600Y-83738100D02*
X66787100Y-83738100D01*
X80301400Y-83946900D02*
X80092600Y-83738100D01*
X84399200Y-83946900D02*
X80301400Y-83946900D01*
X84592000Y-83754100D02*
X84399200Y-83946900D01*
X92160000Y-83754100D02*
X84592000Y-83754100D01*
X92344700Y-83938800D02*
X92160000Y-83754100D01*
X93173900Y-83938800D02*
X92344700Y-83938800D01*
X93264700Y-83848000D02*
X93173900Y-83938800D01*
X83750000Y-121378900D02*
X83750000Y-122325000D01*
X85782400Y-119346500D02*
X83750000Y-121378900D01*
X92730400Y-119346500D02*
X85782400Y-119346500D01*
%TO.N,VDD +3.3V*%
X161905000Y-27500000D02*
X163006700Y-27500000D01*
X163661800Y-31949300D02*
X164962500Y-33250000D01*
X161905000Y-31949300D02*
X163661800Y-31949300D01*
X163006700Y-28284200D02*
X164962500Y-30240000D01*
X163006700Y-27500000D02*
X163006700Y-28284200D01*
X146612500Y-27025000D02*
X146612500Y-27675000D01*
X161905000Y-27500000D02*
X160803300Y-27500000D01*
X144750000Y-35450000D02*
X144750000Y-33000000D01*
X144424400Y-32347100D02*
X144750000Y-32672700D01*
X143491300Y-32347100D02*
X144424400Y-32347100D01*
X143025000Y-32813400D02*
X143491300Y-32347100D01*
X143025000Y-33225000D02*
X143025000Y-32813400D01*
X158724500Y-29578800D02*
X149085000Y-29578800D01*
X160803300Y-27500000D02*
X158724500Y-29578800D01*
X146083300Y-32672700D02*
X144750000Y-32672700D01*
X146456600Y-33046000D02*
X146083300Y-32672700D01*
X144750000Y-32672700D02*
X144750000Y-33000000D01*
X149085000Y-29348800D02*
X149085000Y-29578800D01*
X147411200Y-27675000D02*
X149085000Y-29348800D01*
X146612500Y-27675000D02*
X147411200Y-27675000D01*
%TO.N,I2C_SCL*%
X150744000Y-26499000D02*
X151745000Y-27500000D01*
X145196800Y-26499000D02*
X150744000Y-26499000D01*
X144020800Y-27675000D02*
X145196800Y-26499000D01*
X142387500Y-27675000D02*
X144020800Y-27675000D01*
X54920000Y-92000000D02*
X54920000Y-90498300D01*
X110000000Y-85725000D02*
X108998300Y-85725000D01*
X108451200Y-85177900D02*
X108451200Y-84023200D01*
X108998300Y-85725000D02*
X108451200Y-85177900D01*
X58948400Y-86469900D02*
X54920000Y-90498300D01*
X58948400Y-86469800D02*
X58948400Y-86469900D01*
X62919400Y-86469800D02*
X58948400Y-86469800D01*
X66052800Y-83336400D02*
X62919400Y-86469800D01*
X80258900Y-83336400D02*
X66052800Y-83336400D01*
X80460600Y-83538100D02*
X80258900Y-83336400D01*
X84240000Y-83538100D02*
X80460600Y-83538100D01*
X84425700Y-83352400D02*
X84240000Y-83538100D01*
X92578500Y-83352400D02*
X84425700Y-83352400D01*
X92593800Y-83337100D02*
X92578500Y-83352400D01*
X113469100Y-34725000D02*
X142427300Y-34725000D01*
X112371600Y-35822500D02*
X113469100Y-34725000D01*
X142427300Y-34725000D02*
X143025000Y-34725000D01*
X142427300Y-32814000D02*
X142427300Y-34725000D01*
X143295900Y-31945400D02*
X142427300Y-32814000D01*
X146206900Y-31945400D02*
X143295900Y-31945400D01*
X148665700Y-34404200D02*
X146206900Y-31945400D01*
X148665700Y-34680000D02*
X148665700Y-34404200D01*
X108404500Y-84023200D02*
X108451200Y-84023200D01*
X107626000Y-83244700D02*
X108404500Y-84023200D01*
X92686200Y-83244700D02*
X107626000Y-83244700D01*
X92593800Y-83337100D02*
X92686200Y-83244700D01*
X84250000Y-121507400D02*
X84250000Y-122325000D01*
X85802000Y-119955400D02*
X84250000Y-121507400D01*
X91754700Y-119955400D02*
X85802000Y-119955400D01*
X91974000Y-120174700D02*
X91754700Y-119955400D01*
%TO.N,/Sensor MCU/SPI_MISO_*%
X83750000Y-132843500D02*
X83750000Y-133675000D01*
X84482200Y-132111300D02*
X83750000Y-132843500D01*
X145482000Y-72268000D02*
X85469800Y-72268000D01*
X152250000Y-65500000D02*
X145482000Y-72268000D01*
%TO.N,/Sensor MCU/SPI_MOSI_*%
X84250000Y-135065900D02*
X84214300Y-135101600D01*
X84250000Y-133675000D02*
X84250000Y-135065900D01*
X84787000Y-73918700D02*
X85469800Y-74601500D01*
X84787000Y-72068100D02*
X84787000Y-73918700D01*
X86098100Y-70757000D02*
X84787000Y-72068100D01*
X143073000Y-70757000D02*
X86098100Y-70757000D01*
X152330000Y-61500000D02*
X143073000Y-70757000D01*
X85469800Y-74601500D02*
X85449800Y-74601500D01*
X85449800Y-74601500D02*
X85469800Y-74601500D01*
X84214300Y-135101600D02*
X84214300Y-135051100D01*
X84214300Y-135051100D02*
X84214300Y-135101600D01*
%TO.N,SPI_MOSI*%
X129975000Y-53680600D02*
X129975000Y-54718900D01*
X130460900Y-55204800D02*
X129975000Y-54718900D01*
X137832700Y-55204800D02*
X130460900Y-55204800D01*
X142170000Y-59542100D02*
X137832700Y-55204800D01*
X142170000Y-61500000D02*
X142170000Y-59542100D01*
%TO.N,/Sensor MCU/SPI_SCK_*%
X80311900Y-131250000D02*
X79325000Y-131250000D01*
X80873500Y-131811600D02*
X80311900Y-131250000D01*
X102739100Y-114222100D02*
X81749900Y-114222100D01*
X106401700Y-117884700D02*
X102739100Y-114222100D01*
X150590600Y-117884700D02*
X106401700Y-117884700D01*
X150835800Y-117639500D02*
X150590600Y-117884700D01*
%TO.N,SPI_CLK*%
X138287200Y-54718900D02*
X141068300Y-57500000D01*
X130625000Y-54718900D02*
X138287200Y-54718900D01*
X130625000Y-53680600D02*
X130625000Y-54718900D01*
X142170000Y-57500000D02*
X141068300Y-57500000D01*
%TO.N,Net-(Q3-B)*%
X70612800Y-159050000D02*
X70643900Y-159018900D01*
X66080000Y-159050000D02*
X70612800Y-159050000D01*
X70643900Y-157967200D02*
X70643900Y-159018900D01*
%TO.N,Net-(Q2-D)*%
X57324200Y-144254200D02*
X55920000Y-142850000D01*
X70000000Y-144254200D02*
X57324200Y-144254200D01*
X70000000Y-143000000D02*
X70000000Y-144254200D01*
%TO.N,Net-(Q2-G)*%
X57580000Y-140460000D02*
X70000000Y-140460000D01*
X55920000Y-138800000D02*
X57580000Y-140460000D01*
%TO.N,Net-(Q1-E)*%
X69373900Y-152177200D02*
X68547200Y-152177200D01*
X68529500Y-152159500D02*
X67289500Y-152159500D01*
X68547200Y-152177200D02*
X68529500Y-152159500D01*
%TO.N,JLink_SWDIO*%
X97516100Y-129985200D02*
X122597600Y-129985200D01*
X92780900Y-125250000D02*
X97516100Y-129985200D01*
X90675000Y-125250000D02*
X92780900Y-125250000D01*
X160205600Y-144685700D02*
X163334600Y-147814700D01*
X121095900Y-144685700D02*
X160205600Y-144685700D01*
X120895000Y-144484800D02*
X121095900Y-144685700D01*
%TO.N,JLink_CLK*%
X89028500Y-122046500D02*
X88750000Y-122325000D01*
X96159300Y-122046500D02*
X89028500Y-122046500D01*
X101693000Y-127580200D02*
X96159300Y-122046500D01*
X121043500Y-127580200D02*
X101693000Y-127580200D01*
X130821500Y-137358200D02*
X121043500Y-127580200D01*
X157977600Y-137358200D02*
X130821500Y-137358200D01*
X165513100Y-144893700D02*
X157977600Y-137358200D01*
X165513100Y-145636200D02*
X165513100Y-144893700D01*
X164604600Y-146544700D02*
X165513100Y-145636200D01*
%TO.N,JLink_SWO*%
X145606700Y-129465600D02*
X160049900Y-129465600D01*
X142223900Y-126082800D02*
X145606700Y-129465600D01*
X142223900Y-125872200D02*
X142223900Y-126082800D01*
X137550100Y-121198400D02*
X142223900Y-125872200D01*
X85992200Y-121198400D02*
X137550100Y-121198400D01*
X85750000Y-121440600D02*
X85992200Y-121198400D01*
X85750000Y-122325000D02*
X85750000Y-121440600D01*
%TO.N,TX_OPTICAL*%
X38785700Y-107553300D02*
X39937400Y-107553300D01*
X52562600Y-114343400D02*
X53664700Y-115445500D01*
X51542900Y-114343400D02*
X52562600Y-114343400D01*
X49045000Y-111845500D02*
X51542900Y-114343400D01*
X44229600Y-111845500D02*
X49045000Y-111845500D01*
X39937400Y-107553300D02*
X44229600Y-111845500D01*
X62796800Y-131702200D02*
X63794700Y-131702200D01*
X57446800Y-137052200D02*
X62796800Y-131702200D01*
X79134400Y-131940600D02*
X79325000Y-131750000D01*
X64033100Y-131940600D02*
X79134400Y-131940600D01*
X63794700Y-131702200D02*
X64033100Y-131940600D01*
%TO.N,RX_OPTICAL*%
X78367800Y-133675000D02*
X77781300Y-134261500D01*
X81250000Y-133675000D02*
X78367800Y-133675000D01*
X70734700Y-160198100D02*
X71913900Y-159018900D01*
X61118100Y-160198100D02*
X70734700Y-160198100D01*
X55920000Y-155000000D02*
X61118100Y-160198100D01*
X71913900Y-157967200D02*
X71913900Y-159018900D01*
%TO.N,/Optical Link/FD_AN*%
X50611300Y-146900000D02*
X55920000Y-146900000D01*
X48176300Y-149335000D02*
X50611300Y-146900000D01*
%TO.N,+3.3V*%
X108998300Y-88106800D02*
X108998300Y-88325000D01*
X109306800Y-87798300D02*
X108998300Y-88106800D01*
X109390800Y-87798300D02*
X109306800Y-87798300D01*
X109432000Y-87757100D02*
X109390800Y-87798300D01*
X109432000Y-87757000D02*
X109432000Y-87757100D01*
X109350000Y-87675000D02*
X109432000Y-87757000D01*
X108623100Y-87675000D02*
X109350000Y-87675000D01*
X107973100Y-87025000D02*
X108623100Y-87675000D01*
X104100000Y-87025000D02*
X107973100Y-87025000D01*
X108623100Y-87675000D02*
X110000000Y-87675000D01*
X110000000Y-88325000D02*
X108998300Y-88325000D01*
X110000000Y-87675000D02*
X111001700Y-87675000D01*
X60000000Y-92000000D02*
X60000000Y-93501700D01*
X49270000Y-93501700D02*
X60000000Y-93501700D01*
X45214500Y-97557200D02*
X49270000Y-93501700D01*
X41502900Y-97557200D02*
X45214500Y-97557200D01*
X110577400Y-83759200D02*
X109927000Y-84409600D01*
X111001700Y-85484400D02*
X109927000Y-84409600D01*
X111001700Y-87675000D02*
X111001700Y-85484400D01*
X115000000Y-89562500D02*
X116499500Y-89562500D01*
X116499500Y-89562500D02*
X119000000Y-89562500D01*
X113967200Y-88573300D02*
X112501900Y-90038600D01*
X114596500Y-88573300D02*
X113967200Y-88573300D01*
X115585700Y-89562500D02*
X114596500Y-88573300D01*
X116499500Y-89562500D02*
X115585700Y-89562500D01*
X108654400Y-83137100D02*
X109927000Y-84409600D01*
X108086400Y-83137100D02*
X108654400Y-83137100D01*
X107686200Y-82736900D02*
X108086400Y-83137100D01*
X93836200Y-82736900D02*
X107686200Y-82736900D01*
X93834700Y-82735400D02*
X93836200Y-82736900D01*
X92344700Y-82735400D02*
X93834700Y-82735400D01*
X92159900Y-82920200D02*
X92344700Y-82735400D01*
X84289900Y-82920200D02*
X92159900Y-82920200D01*
X84073700Y-83136400D02*
X84289900Y-82920200D01*
X80626900Y-83136400D02*
X84073700Y-83136400D01*
X80425200Y-82934700D02*
X80626900Y-83136400D01*
X64684800Y-82934700D02*
X80425200Y-82934700D01*
X64484000Y-83135500D02*
X64684800Y-82934700D01*
X63784500Y-83135500D02*
X64484000Y-83135500D01*
X62540000Y-84380000D02*
X63784500Y-83135500D01*
X111612100Y-89232800D02*
X111612100Y-89156300D01*
X110569900Y-90275000D02*
X111612100Y-89232800D01*
X110000000Y-90275000D02*
X110569900Y-90275000D01*
%TO.N,Net-(D23-A)*%
X43326800Y-128218300D02*
X41079800Y-128218300D01*
X45193800Y-126351300D02*
X43326800Y-128218300D01*
X36488300Y-128691400D02*
X35904600Y-128107700D01*
X36488300Y-129332700D02*
X36488300Y-128691400D01*
X35113900Y-128107700D02*
X35904600Y-128107700D01*
%TO.N,Net-(D3-A)*%
X163893100Y-102623100D02*
X159156900Y-102623100D01*
X164000000Y-102730000D02*
X163893100Y-102623100D01*
X159156900Y-101566900D02*
X159050000Y-101460000D01*
X159156900Y-102623100D02*
X159156900Y-101566900D01*
X159156900Y-102623100D02*
X159050000Y-102730000D01*
X164258400Y-91254800D02*
X157280100Y-84276500D01*
X164258400Y-92276500D02*
X164258400Y-91254800D01*
X165360100Y-92276500D02*
X164258400Y-92276500D01*
X164000000Y-101460000D02*
X164000000Y-102730000D01*
X165360100Y-100538200D02*
X165360100Y-92276500D01*
X164438300Y-101460000D02*
X165360100Y-100538200D01*
X164000000Y-101460000D02*
X164438300Y-101460000D01*
%TO.N,Net-(D2-A)*%
X159050000Y-108460000D02*
X159050000Y-109730000D01*
X159050000Y-109730000D02*
X164000000Y-109730000D01*
X164000000Y-109730000D02*
X164000000Y-108460000D01*
X160488300Y-105370200D02*
X160488300Y-103224800D01*
X163578100Y-108460000D02*
X160488300Y-105370200D01*
X164000000Y-108460000D02*
X163578100Y-108460000D01*
%TO.N,Net-(C25-Pad1)*%
X165573800Y-130189700D02*
X165384100Y-130000000D01*
X165573800Y-131231600D02*
X165573800Y-130189700D01*
%TO.N,JLink_RST*%
X161489400Y-131819700D02*
X161489400Y-132656200D01*
X163309100Y-130000000D02*
X161489400Y-131819700D01*
X161489400Y-134022000D02*
X160731300Y-134780100D01*
X161489400Y-132656200D02*
X161489400Y-134022000D01*
X80460200Y-127250000D02*
X79325000Y-127250000D01*
X80845400Y-127635200D02*
X80460200Y-127250000D01*
X82279800Y-127635200D02*
X80845400Y-127635200D01*
X82369800Y-127545200D02*
X82279800Y-127635200D01*
X82994100Y-127545200D02*
X82369800Y-127545200D01*
X83174200Y-127725300D02*
X82994100Y-127545200D01*
X85329900Y-127725300D02*
X83174200Y-127725300D01*
X89849500Y-132244900D02*
X85329900Y-127725300D01*
X123541500Y-132244900D02*
X89849500Y-132244900D01*
X129346800Y-138050200D02*
X123541500Y-132244900D01*
X156110100Y-138050200D02*
X129346800Y-138050200D01*
X163334600Y-145274700D02*
X156110100Y-138050200D01*
%TO.N,-5V*%
X56462600Y-112700900D02*
X56301700Y-112540000D01*
X59957600Y-112700900D02*
X56462600Y-112700900D01*
X55000000Y-112540000D02*
X56301700Y-112540000D01*
X131925000Y-59319400D02*
X131925000Y-58281100D01*
X75751700Y-89198300D02*
X79000000Y-85950000D01*
X63336100Y-89198300D02*
X75751700Y-89198300D01*
X63045300Y-89489100D02*
X63336100Y-89198300D01*
X128573600Y-57879400D02*
X128338200Y-58114800D01*
X131523300Y-57879400D02*
X128573600Y-57879400D01*
X131925000Y-58281100D02*
X131523300Y-57879400D01*
X128338200Y-58114800D02*
X128254500Y-58198500D01*
X128338200Y-58114800D02*
X128254500Y-58198500D01*
X85194300Y-58198500D02*
X83706300Y-59686500D01*
X128254500Y-58198500D02*
X85194300Y-58198500D01*
%TO.N,-15V*%
X67674700Y-112000000D02*
X66138900Y-110464200D01*
X69000000Y-112000000D02*
X67674700Y-112000000D01*
X65037200Y-110464200D02*
X66138900Y-110464200D01*
X54962500Y-118067200D02*
X52336300Y-120693400D01*
X54962500Y-118000000D02*
X54962500Y-118067200D01*
X65037200Y-110464200D02*
X63935500Y-110464200D01*
X57404900Y-120693400D02*
X60098300Y-118000000D01*
X52336300Y-120693400D02*
X57404900Y-120693400D01*
X61000000Y-118000000D02*
X60098300Y-118000000D01*
X93275900Y-94095000D02*
X94307900Y-94095000D01*
X70028400Y-110971600D02*
X69000000Y-112000000D01*
X80190000Y-110971600D02*
X70028400Y-110971600D01*
X80190000Y-110971600D02*
X80190000Y-111810000D01*
X55000000Y-110000000D02*
X56135400Y-110000000D01*
X56681100Y-109454300D02*
X56135400Y-110000000D01*
X62925600Y-109454300D02*
X56681100Y-109454300D01*
X63935500Y-110464200D02*
X62925600Y-109454300D01*
X91802400Y-94095000D02*
X93275900Y-94095000D01*
X142121700Y-88798300D02*
X145730000Y-85190000D01*
X124755500Y-88798300D02*
X142121700Y-88798300D01*
X120140600Y-93413200D02*
X124755500Y-88798300D01*
X94598500Y-93413200D02*
X120140600Y-93413200D01*
X94598500Y-93804400D02*
X94598500Y-93413200D01*
X94307900Y-94095000D02*
X94598500Y-93804400D01*
X90159600Y-110779600D02*
X91190000Y-111810000D01*
X80382000Y-110779600D02*
X90159600Y-110779600D01*
X80190000Y-110971600D02*
X80382000Y-110779600D01*
X87240000Y-94095000D02*
X91802400Y-94095000D01*
X83324100Y-98010900D02*
X87240000Y-94095000D01*
X83324100Y-98807900D02*
X83324100Y-98010900D01*
X83887700Y-99371500D02*
X83324100Y-98807900D01*
X85864100Y-99371500D02*
X83887700Y-99371500D01*
X86826200Y-98409400D02*
X85864100Y-99371500D01*
X94598500Y-92708300D02*
X94598500Y-93413200D01*
X94134100Y-92243900D02*
X94598500Y-92708300D01*
X90523300Y-92243900D02*
X94134100Y-92243900D01*
X90517300Y-92249900D02*
X90523300Y-92243900D01*
X89291300Y-92249900D02*
X90517300Y-92249900D01*
X88596400Y-91555000D02*
X89291300Y-92249900D01*
X87975300Y-91555000D02*
X88596400Y-91555000D01*
X84552800Y-88132500D02*
X87975300Y-91555000D01*
X83616500Y-88132500D02*
X84552800Y-88132500D01*
X82049000Y-86565000D02*
X83616500Y-88132500D01*
X82049000Y-86450900D02*
X82049000Y-86565000D01*
X79737900Y-84139800D02*
X82049000Y-86450900D01*
X75760200Y-84139800D02*
X79737900Y-84139800D01*
X73950000Y-85950000D02*
X75760200Y-84139800D01*
%TO.N,+15V*%
X49287500Y-133965100D02*
X48385800Y-133965100D01*
X53015200Y-122920000D02*
X51527700Y-124407500D01*
X57000000Y-122920000D02*
X53015200Y-122920000D01*
X51527700Y-124834700D02*
X51522600Y-124839800D01*
X51527700Y-124407500D02*
X51527700Y-124834700D01*
X87810000Y-100479800D02*
X87810000Y-104190000D01*
X92289900Y-95999900D02*
X87810000Y-100479800D01*
X95787400Y-95999900D02*
X92289900Y-95999900D01*
X97692300Y-94095000D02*
X95787400Y-95999900D01*
X76452600Y-102161400D02*
X76452500Y-102161400D01*
X76452600Y-101276800D02*
X76452600Y-102161400D01*
X76748400Y-100981000D02*
X76452600Y-101276800D01*
X49937600Y-122817400D02*
X51527700Y-124407500D01*
X49937500Y-122817400D02*
X49937600Y-122817400D01*
X49937500Y-122815800D02*
X49937500Y-122817400D01*
X45802600Y-136548300D02*
X48385800Y-133965100D01*
X45802600Y-136548400D02*
X45802600Y-136548300D01*
X36451600Y-136548400D02*
X45802600Y-136548400D01*
X33000000Y-140000000D02*
X36451600Y-136548400D01*
X77438100Y-105198100D02*
X76620000Y-104380000D01*
X86801900Y-105198100D02*
X77438100Y-105198100D01*
X87810000Y-104190000D02*
X86801900Y-105198100D01*
X88800400Y-105180400D02*
X87810000Y-104190000D01*
X97819600Y-105180400D02*
X88800400Y-105180400D01*
X98810000Y-104190000D02*
X97819600Y-105180400D01*
X64578200Y-91000000D02*
X68900000Y-91000000D01*
X63757900Y-90179700D02*
X64578200Y-91000000D01*
X98208300Y-94095000D02*
X97692300Y-94095000D01*
X98208300Y-94095000D02*
X98724200Y-94095000D01*
X152362500Y-91822500D02*
X153350000Y-92810000D01*
X128921000Y-91822500D02*
X152362500Y-91822500D01*
X126648500Y-94095000D02*
X128921000Y-91822500D01*
X98724200Y-94095000D02*
X126648500Y-94095000D01*
%TO.N,17V*%
X34661200Y-145499700D02*
X34241500Y-145080000D01*
X36658800Y-145499700D02*
X34661200Y-145499700D01*
X33000000Y-145080000D02*
X34241500Y-145080000D01*
X45000000Y-134080000D02*
X46401700Y-134080000D01*
X46893500Y-134080000D02*
X46401700Y-134080000D01*
X50451600Y-130521900D02*
X46893500Y-134080000D01*
X62415400Y-130521900D02*
X50451600Y-130521900D01*
X62416900Y-130520400D02*
X62415400Y-130521900D01*
X29803100Y-127881400D02*
X30920000Y-128998300D01*
X29803100Y-121509900D02*
X29803100Y-127881400D01*
X30435800Y-120877200D02*
X29803100Y-121509900D01*
X33877200Y-120877200D02*
X30435800Y-120877200D01*
X35000000Y-122000000D02*
X33877200Y-120877200D01*
X30920000Y-130100000D02*
X30920000Y-128998300D01*
X45000000Y-134080000D02*
X43598300Y-134080000D01*
X42298500Y-135379800D02*
X33386800Y-135379800D01*
X43598300Y-134080000D02*
X42298500Y-135379800D01*
%TO.N,+9V*%
X30920000Y-122000000D02*
X32021700Y-122000000D01*
X32021700Y-122388200D02*
X32021700Y-122000000D01*
X35188100Y-125554600D02*
X32021700Y-122388200D01*
X36185400Y-125554600D02*
X35188100Y-125554600D01*
X36407500Y-125332500D02*
X36185400Y-125554600D01*
X36407500Y-125000000D02*
X36407500Y-125332500D01*
X37793600Y-127162800D02*
X36185400Y-125554600D01*
X37793600Y-128095000D02*
X37793600Y-127162800D01*
X56759500Y-80567500D02*
X93083500Y-80567500D01*
X53650000Y-83677000D02*
X56759500Y-80567500D01*
X53650000Y-85092700D02*
X53650000Y-83677000D01*
X49226200Y-89516500D02*
X53650000Y-85092700D01*
X32633400Y-89516500D02*
X49226200Y-89516500D01*
X32074700Y-90075200D02*
X32633400Y-89516500D01*
%TO.N,+5V*%
X38785700Y-102473300D02*
X39937400Y-102473300D01*
X51261600Y-103000000D02*
X50934500Y-103327100D01*
X51962500Y-103000000D02*
X51261600Y-103000000D01*
X41772400Y-104308300D02*
X39937400Y-102473300D01*
X45149400Y-104308300D02*
X41772400Y-104308300D01*
X46130600Y-103327100D02*
X45149400Y-104308300D01*
X50934500Y-103327100D02*
X46130600Y-103327100D01*
X131925000Y-53680600D02*
X131925000Y-52642300D01*
X56215200Y-130039000D02*
X57000000Y-129254200D01*
X50083600Y-130039000D02*
X56215200Y-130039000D01*
X57000000Y-128000000D02*
X57000000Y-129254200D01*
X82300000Y-55276700D02*
X80743800Y-53720500D01*
X126335000Y-55276700D02*
X82300000Y-55276700D01*
X129371100Y-52240600D02*
X126335000Y-55276700D01*
X131523300Y-52240600D02*
X129371100Y-52240600D01*
X131925000Y-52642300D02*
X131523300Y-52240600D01*
X45252000Y-99083200D02*
X42179800Y-99083200D01*
X49576000Y-94759200D02*
X45252000Y-99083200D01*
X70190800Y-94759200D02*
X49576000Y-94759200D01*
X73950000Y-91000000D02*
X70190800Y-94759200D01*
X50239300Y-107845500D02*
X50239300Y-108176700D01*
X43289200Y-107845500D02*
X50239300Y-107845500D01*
X50934500Y-107258900D02*
X50934500Y-103327100D01*
X50347900Y-107845500D02*
X50934500Y-107258900D01*
X50239300Y-107845500D02*
X50347900Y-107845500D01*
%TO.N,+3V3*%
X130625000Y-60357700D02*
X132575000Y-60357700D01*
X132575000Y-59319400D02*
X132575000Y-60357700D01*
X42757000Y-105013300D02*
X43289200Y-105545500D01*
X38785700Y-105013300D02*
X42757000Y-105013300D01*
X35473000Y-102852300D02*
X37634000Y-105013300D01*
X34929500Y-102852300D02*
X35473000Y-102852300D01*
X38785700Y-105013300D02*
X37634000Y-105013300D01*
X48000000Y-98000000D02*
X48901700Y-98000000D01*
X88750000Y-134712500D02*
X88750000Y-133675000D01*
X91037500Y-137000000D02*
X88750000Y-134712500D01*
X123670600Y-96409400D02*
X117000000Y-96409400D01*
X124620000Y-95460000D02*
X123670600Y-96409400D01*
X117000000Y-96409400D02*
X117000000Y-98000000D01*
X54920000Y-97000000D02*
X56021700Y-97000000D01*
X82250000Y-137287500D02*
X82250000Y-133675000D01*
X82962500Y-138000000D02*
X82250000Y-137287500D01*
X80178300Y-130250000D02*
X79325000Y-130250000D01*
X82250000Y-132321700D02*
X80178300Y-130250000D01*
X82250000Y-133675000D02*
X82250000Y-132321700D01*
X78095900Y-121941600D02*
X76287500Y-123750000D01*
X80866600Y-121941600D02*
X78095900Y-121941600D01*
X81250000Y-122325000D02*
X80866600Y-121941600D01*
X80866600Y-121941600D02*
X80866600Y-119264600D01*
X49589200Y-105545500D02*
X43289200Y-105545500D01*
X48000000Y-98000000D02*
X47098300Y-98000000D01*
X93712500Y-124250000D02*
X91859200Y-124250000D01*
X95000000Y-122962500D02*
X93712500Y-124250000D01*
X91859200Y-124250000D02*
X90675000Y-124250000D01*
X91859200Y-124250000D02*
X79325000Y-124250000D01*
X70142800Y-155000000D02*
X71913900Y-153228900D01*
X66080000Y-155000000D02*
X70142800Y-155000000D01*
X71913900Y-152177200D02*
X71913900Y-153228900D01*
X73797400Y-130240100D02*
X75470800Y-130240100D01*
X73000000Y-131037500D02*
X73797400Y-130240100D01*
X75470800Y-130240000D02*
X75470800Y-130240100D01*
X76000000Y-130240000D02*
X75470800Y-130240000D01*
X79292100Y-130282900D02*
X79325000Y-130250000D01*
X75513600Y-130282900D02*
X79292100Y-130282900D01*
X75470800Y-130240100D02*
X75513600Y-130282900D01*
X49676300Y-97000000D02*
X54920000Y-97000000D01*
X48901700Y-97774600D02*
X49676300Y-97000000D01*
X48901700Y-98000000D02*
X48901700Y-97774600D01*
X82497500Y-145540000D02*
X91037500Y-137000000D01*
X70000000Y-145540000D02*
X82497500Y-145540000D01*
X57512600Y-98490900D02*
X70466100Y-98490900D01*
X56021700Y-97000000D02*
X57512600Y-98490900D01*
X50095600Y-145540000D02*
X70000000Y-145540000D01*
X46300600Y-149335000D02*
X50095600Y-145540000D01*
X43076300Y-149335000D02*
X46300600Y-149335000D01*
X45013700Y-100084600D02*
X36298000Y-100084600D01*
X47098300Y-98000000D02*
X45013700Y-100084600D01*
X132575000Y-57910800D02*
X132575000Y-59319400D01*
X129495500Y-54831300D02*
X132575000Y-57910800D01*
X129495500Y-52819000D02*
X129495500Y-54831300D01*
X129672200Y-52642300D02*
X129495500Y-52819000D01*
X131275000Y-52642300D02*
X129672200Y-52642300D01*
X131275000Y-53680600D02*
X131275000Y-52642300D01*
X76787500Y-124250000D02*
X79325000Y-124250000D01*
X76287500Y-123750000D02*
X76787500Y-124250000D01*
X72776300Y-130813800D02*
X73000000Y-131037500D01*
X71324500Y-130813800D02*
X72776300Y-130813800D01*
X115278000Y-95460000D02*
X113449000Y-95460000D01*
X115278000Y-95460100D02*
X115278000Y-95460000D01*
X116227300Y-96409400D02*
X115278000Y-95460100D01*
X117000000Y-96409400D02*
X116227300Y-96409400D01*
X113449000Y-95460000D02*
X111620000Y-95460000D01*
X109311000Y-98000000D02*
X104000000Y-98000000D01*
X111851000Y-95460000D02*
X109311000Y-98000000D01*
X113449000Y-95460000D02*
X111851000Y-95460000D01*
X130625000Y-60356000D02*
X130625000Y-60356200D01*
X130364200Y-60617000D02*
X129936700Y-60617000D01*
X130625000Y-60356200D02*
X130364200Y-60617000D01*
X130625000Y-60356200D02*
X130625000Y-60357700D01*
X130625000Y-59319400D02*
X130625000Y-60356000D01*
X74702700Y-95297300D02*
X79000000Y-91000000D01*
X57724400Y-95297300D02*
X74702700Y-95297300D01*
X56021700Y-97000000D02*
X57724400Y-95297300D01*
X80801800Y-89198200D02*
X79000000Y-91000000D01*
X85050500Y-89198200D02*
X80801800Y-89198200D01*
X88004900Y-92152600D02*
X85050500Y-89198200D01*
X88542200Y-92152600D02*
X88004900Y-92152600D01*
X89214600Y-92825000D02*
X88542200Y-92152600D01*
X93275900Y-92825000D02*
X89214600Y-92825000D01*
X95692200Y-123654700D02*
X95000000Y-122962500D01*
X96916600Y-123654700D02*
X95692200Y-123654700D01*
X73633100Y-126404400D02*
X71324500Y-126404400D01*
X76287500Y-123750000D02*
X73633100Y-126404400D01*
X163700100Y-151259200D02*
X164604600Y-150354700D01*
X161652300Y-151259200D02*
X163700100Y-151259200D01*
X156086600Y-145693500D02*
X161652300Y-151259200D01*
X113841200Y-145693500D02*
X156086600Y-145693500D01*
X111592400Y-143444700D02*
X113841200Y-145693500D01*
X111592400Y-141997800D02*
X111592400Y-143444700D01*
X111309000Y-141714400D02*
X111592400Y-141997800D01*
X95751900Y-141714400D02*
X111309000Y-141714400D01*
X91037500Y-137000000D02*
X95751900Y-141714400D01*
%TO.N,GND*%
X104952500Y-109747500D02*
X104000000Y-110700000D01*
X116047500Y-109747500D02*
X104952500Y-109747500D01*
X117000000Y-110700000D02*
X116047500Y-109747500D01*
X39355900Y-82878300D02*
X44760000Y-82878300D01*
X38658200Y-83576000D02*
X39355900Y-82878300D01*
X103098300Y-88325000D02*
X103098300Y-88975000D01*
X104100000Y-88325000D02*
X103098300Y-88325000D01*
X104100000Y-85725000D02*
X103098300Y-85725000D01*
X167037500Y-33250000D02*
X167037500Y-31274700D01*
X167037500Y-31274700D02*
X167037500Y-30240000D01*
X87739100Y-156915500D02*
X87926800Y-157103200D01*
X69373900Y-156915500D02*
X87739100Y-156915500D01*
X69373900Y-157967200D02*
X69373900Y-156915500D01*
X89128500Y-157103200D02*
X87926800Y-157103200D01*
X61885500Y-156915500D02*
X69373900Y-156915500D01*
X55920000Y-150950000D02*
X61885500Y-156915500D01*
X81750000Y-119333000D02*
X81750000Y-122325000D01*
X81681600Y-119264600D02*
X81750000Y-119333000D01*
X139508200Y-142906500D02*
X140709900Y-142906500D01*
X146008200Y-142906500D02*
X144806500Y-142906500D01*
X56307200Y-116965700D02*
X57037500Y-117696000D01*
X45904000Y-116965700D02*
X56307200Y-116965700D01*
X44716300Y-118153400D02*
X45904000Y-116965700D01*
X57037500Y-117696000D02*
X57037500Y-118000000D01*
X57000000Y-125460000D02*
X55698300Y-125460000D01*
X142387500Y-28975000D02*
X146612500Y-28975000D01*
X88962500Y-137000000D02*
X88250000Y-137000000D01*
X107986000Y-137534000D02*
X109187700Y-136332300D01*
X105917300Y-137534000D02*
X107986000Y-137534000D01*
X105091100Y-136707800D02*
X105917300Y-137534000D01*
X105091100Y-136332300D02*
X105091100Y-136707800D01*
X103889400Y-136332300D02*
X105091100Y-136332300D01*
X110389400Y-136332300D02*
X109187700Y-136332300D01*
X78052600Y-129425000D02*
X76000000Y-129425000D01*
X78377600Y-129750000D02*
X78052600Y-129425000D01*
X79325000Y-129750000D02*
X78377600Y-129750000D01*
X45510800Y-82878300D02*
X47300000Y-82878300D01*
X44760000Y-83629100D02*
X45510800Y-82878300D01*
X44760000Y-84380000D02*
X44760000Y-83629100D01*
X44760000Y-83629100D02*
X44760000Y-82878300D01*
X47300000Y-84380000D02*
X47300000Y-82878300D01*
X90383500Y-149281500D02*
X90383500Y-148906000D01*
X91758200Y-150656200D02*
X90383500Y-149281500D01*
X97721800Y-150656200D02*
X91758200Y-150656200D01*
X89181800Y-148906000D02*
X90383500Y-148906000D01*
X139828700Y-144163200D02*
X140709900Y-143282000D01*
X135051100Y-144163200D02*
X139828700Y-144163200D01*
X134169900Y-143282000D02*
X135051100Y-144163200D01*
X134169900Y-142906500D02*
X134169900Y-143282000D01*
X140709900Y-142906500D02*
X140709900Y-143282000D01*
X111591100Y-136707900D02*
X111591100Y-136332300D01*
X112417200Y-137534000D02*
X111591100Y-136707900D01*
X114451000Y-137534000D02*
X112417200Y-137534000D01*
X115652700Y-136332300D02*
X114451000Y-137534000D01*
X116854400Y-136332300D02*
X115652700Y-136332300D01*
X110389400Y-136332300D02*
X111591100Y-136332300D01*
X84009000Y-139028500D02*
X85037500Y-138000000D01*
X82384600Y-139028500D02*
X84009000Y-139028500D01*
X81750000Y-138393900D02*
X82384600Y-139028500D01*
X81750000Y-133675000D02*
X81750000Y-138393900D01*
X75637500Y-102161400D02*
X75637500Y-98490900D01*
X75546100Y-98490900D02*
X75637500Y-98490900D01*
X41709800Y-95050200D02*
X44760000Y-92000000D01*
X36263300Y-95050200D02*
X41709800Y-95050200D01*
X36081200Y-95232300D02*
X36263300Y-95050200D01*
X34929500Y-95232300D02*
X36081200Y-95232300D01*
X88250000Y-137000000D02*
X88250000Y-133675000D01*
X37688500Y-122613500D02*
X37075000Y-122000000D01*
X37688500Y-122810100D02*
X37688500Y-122613500D01*
X35592500Y-124906100D02*
X37688500Y-122810100D01*
X35592500Y-125000000D02*
X35592500Y-124906100D01*
X37840100Y-122810100D02*
X41080000Y-126050000D01*
X37688500Y-122810100D02*
X37840100Y-122810100D01*
X55000000Y-103962500D02*
X54037500Y-103000000D01*
X55000000Y-107460000D02*
X55000000Y-103962500D01*
X146612500Y-28325000D02*
X146612500Y-28975000D01*
X103098300Y-89625000D02*
X103098300Y-90275000D01*
X104100000Y-90275000D02*
X103098300Y-90275000D01*
X143715800Y-144108200D02*
X144806500Y-143017500D01*
X141536100Y-144108200D02*
X143715800Y-144108200D01*
X140709900Y-143282000D02*
X141536100Y-144108200D01*
X144806500Y-143017500D02*
X144806500Y-142906500D01*
X146659200Y-143017500D02*
X144806500Y-143017500D01*
X147749900Y-144108200D02*
X146659200Y-143017500D01*
X152528100Y-144108200D02*
X147749900Y-144108200D01*
X153980100Y-142656200D02*
X152528100Y-144108200D01*
X155181800Y-142656200D02*
X153980100Y-142656200D01*
X55261400Y-125896900D02*
X51337700Y-125896900D01*
X55698300Y-125460000D02*
X55261400Y-125896900D01*
X51337700Y-125896900D02*
X51337700Y-128496800D01*
X115000000Y-86437500D02*
X119000000Y-86437500D01*
X133225000Y-59319400D02*
X133225000Y-60357700D01*
X131517900Y-62064800D02*
X131517900Y-62669500D01*
X133225000Y-60357700D02*
X131517900Y-62064800D01*
X58812400Y-115921100D02*
X57037500Y-117696000D01*
X59957600Y-115921100D02*
X58812400Y-115921100D01*
X103098300Y-87675000D02*
X103098300Y-88325000D01*
X104100000Y-87675000D02*
X103098300Y-87675000D01*
X80702600Y-98490900D02*
X80784100Y-98409400D01*
X75637500Y-98490900D02*
X80702600Y-98490900D01*
X59957600Y-115921100D02*
X59957600Y-114775900D01*
X60921100Y-115921100D02*
X59957600Y-115921100D01*
X63000000Y-118000000D02*
X60921100Y-115921100D01*
X116904400Y-143082300D02*
X118106100Y-143082300D01*
X123414400Y-143082300D02*
X122212700Y-143082300D01*
X133945000Y-95975000D02*
X131920000Y-93950000D01*
X145217600Y-95975000D02*
X133945000Y-95975000D01*
X150830400Y-101587800D02*
X145217600Y-95975000D01*
X150830400Y-106119600D02*
X150830400Y-101587800D01*
X149500000Y-107450000D02*
X150830400Y-106119600D01*
X33884700Y-143424700D02*
X33000000Y-142540000D01*
X36658800Y-143424700D02*
X33884700Y-143424700D01*
X103098300Y-86375000D02*
X103098300Y-85725000D01*
X148912200Y-31274700D02*
X152856100Y-31274700D01*
X146612500Y-28975000D02*
X148912200Y-31274700D01*
X152856100Y-31274700D02*
X167037500Y-31274700D01*
X133443000Y-142906500D02*
X134169900Y-142906500D01*
X133443000Y-142906500D02*
X132968200Y-142906500D01*
X124616100Y-142706700D02*
X124616100Y-143082300D01*
X125442200Y-141880600D02*
X124616100Y-142706700D01*
X130740600Y-141880600D02*
X125442200Y-141880600D01*
X131766500Y-142906500D02*
X130740600Y-141880600D01*
X132968200Y-142906500D02*
X131766500Y-142906500D01*
X123414400Y-143082300D02*
X124616100Y-143082300D01*
X152856100Y-32708500D02*
X151934200Y-32708500D01*
X152856100Y-31274700D02*
X152856100Y-32708500D01*
X150078600Y-35281700D02*
X150231300Y-35129000D01*
X146052000Y-35281700D02*
X150078600Y-35281700D01*
X146052000Y-35473900D02*
X146052000Y-35281700D01*
X145823900Y-35702000D02*
X146052000Y-35473900D01*
X145323800Y-35702000D02*
X145823900Y-35702000D01*
X145323800Y-35702100D02*
X145323800Y-35702000D01*
X144998900Y-36027000D02*
X145323800Y-35702100D01*
X144501100Y-36027000D02*
X144998900Y-36027000D01*
X144273000Y-35798900D02*
X144501100Y-36027000D01*
X144273000Y-35473000D02*
X144273000Y-35798900D01*
X144250000Y-35450000D02*
X144273000Y-35473000D01*
X146052000Y-34951200D02*
X145825800Y-34725000D01*
X146052000Y-35281700D02*
X146052000Y-34951200D01*
X146052000Y-34498800D02*
X145825800Y-34725000D01*
X146052000Y-33942300D02*
X146052000Y-34498800D01*
X145834700Y-33725000D02*
X146052000Y-33942300D01*
X145475000Y-33725000D02*
X145834700Y-33725000D01*
X145825800Y-34725000D02*
X145475000Y-34725000D01*
X99049300Y-151983700D02*
X97721800Y-150656200D01*
X106894300Y-151983700D02*
X99049300Y-151983700D01*
X108221800Y-150656200D02*
X106894300Y-151983700D01*
X45269000Y-129961000D02*
X43903300Y-131326700D01*
X49310900Y-129961000D02*
X45269000Y-129961000D01*
X49310900Y-129960900D02*
X49310900Y-129961000D01*
X49834500Y-129437300D02*
X49310900Y-129960900D01*
X50397200Y-129437300D02*
X49834500Y-129437300D01*
X51337700Y-128496800D02*
X50397200Y-129437300D01*
X35113900Y-129047500D02*
X35904600Y-129047500D01*
X43903300Y-131326700D02*
X41080000Y-134150000D01*
X55000000Y-107460000D02*
X55000000Y-108714200D01*
X75537500Y-128962500D02*
X73000000Y-128962500D01*
X76000000Y-129425000D02*
X75537500Y-128962500D01*
X52634100Y-132618500D02*
X51287500Y-133965100D01*
X61196600Y-132618500D02*
X52634100Y-132618500D01*
X64852600Y-128962500D02*
X61196600Y-132618500D01*
X73000000Y-128962500D02*
X64852600Y-128962500D01*
X103099800Y-86375000D02*
X103098300Y-86375000D01*
X103199200Y-86375000D02*
X103099800Y-86375000D01*
X104100000Y-86375000D02*
X103199200Y-86375000D01*
X103098300Y-86376500D02*
X103098300Y-87675000D01*
X103099800Y-86375000D02*
X103098300Y-86376500D01*
X53009800Y-101972300D02*
X54037500Y-103000000D01*
X44562400Y-101972300D02*
X53009800Y-101972300D01*
X43289200Y-103245500D02*
X44562400Y-101972300D01*
X101529100Y-84155800D02*
X103098300Y-85725000D01*
X93807800Y-84155800D02*
X101529100Y-84155800D01*
X91913600Y-86050000D02*
X93807800Y-84155800D01*
X89850000Y-86050000D02*
X91913600Y-86050000D01*
X81746200Y-98409400D02*
X81265200Y-98409400D01*
X81265200Y-98409400D02*
X80784100Y-98409400D01*
X86920300Y-92754300D02*
X88293000Y-92754300D01*
X81265200Y-98409400D02*
X86920300Y-92754300D01*
X103099800Y-89625000D02*
X103098300Y-89625000D01*
X103199200Y-89625000D02*
X103099800Y-89625000D01*
X103099800Y-89625000D02*
X103099800Y-88975000D01*
X104100000Y-89625000D02*
X103199200Y-89625000D01*
X104100000Y-88975000D02*
X103099800Y-88975000D01*
X103099800Y-88975000D02*
X103098300Y-88975000D01*
X94712500Y-124750000D02*
X95000000Y-125037500D01*
X90675000Y-124750000D02*
X94712500Y-124750000D01*
X49619400Y-125896900D02*
X49447600Y-125725100D01*
X51337700Y-125896900D02*
X49619400Y-125896900D01*
X87762500Y-137000000D02*
X87518000Y-137244500D01*
X88250000Y-137000000D02*
X87762500Y-137000000D01*
X85793000Y-137244500D02*
X85037500Y-138000000D01*
X87518000Y-137244500D02*
X85793000Y-137244500D01*
X73756700Y-124205800D02*
X57000000Y-124205800D01*
X74212500Y-123750000D02*
X73756700Y-124205800D01*
X57000000Y-125460000D02*
X57000000Y-124205800D01*
X143788900Y-36833400D02*
X143025000Y-36069500D01*
X151593700Y-36833400D02*
X143788900Y-36833400D01*
X152856100Y-35571000D02*
X151593700Y-36833400D01*
X152856100Y-32708500D02*
X152856100Y-35571000D01*
X143025000Y-36069500D02*
X134068800Y-36069500D01*
X143025000Y-36069500D02*
X143025000Y-35225000D01*
X81310500Y-118759700D02*
X74212500Y-118759700D01*
X81681600Y-119130800D02*
X81310500Y-118759700D01*
X81681600Y-119264600D02*
X81681600Y-119130800D01*
X73452800Y-118000000D02*
X74212500Y-118759700D01*
X63000000Y-118000000D02*
X73452800Y-118000000D01*
X74212500Y-118759700D02*
X74212500Y-123750000D01*
X33098400Y-134150000D02*
X32504000Y-134744400D01*
X41080000Y-134150000D02*
X33098400Y-134150000D01*
X95982300Y-92825000D02*
X98724200Y-92825000D01*
X94064900Y-90907600D02*
X95982300Y-92825000D01*
X89447600Y-90907600D02*
X94064900Y-90907600D01*
X89123700Y-91231500D02*
X89447600Y-90907600D01*
X54451300Y-108714200D02*
X55000000Y-108714200D01*
X53658800Y-109506700D02*
X54451300Y-108714200D01*
X53658800Y-110536500D02*
X53658800Y-109506700D01*
X54392300Y-111270000D02*
X53658800Y-110536500D01*
X55830500Y-111270000D02*
X54392300Y-111270000D01*
X56541800Y-110558700D02*
X55830500Y-111270000D01*
X61683900Y-110558700D02*
X56541800Y-110558700D01*
X128421000Y-58800200D02*
X128143800Y-58800200D01*
X128940100Y-58281100D02*
X128421000Y-58800200D01*
X131275000Y-58281100D02*
X128940100Y-58281100D01*
X129730900Y-62669500D02*
X131517900Y-62669500D01*
X131275000Y-59319400D02*
X131275000Y-58281100D01*
X41404900Y-125725100D02*
X41080000Y-126050000D01*
X49447600Y-125725100D02*
X41404900Y-125725100D01*
X49447600Y-125725100D02*
X49447600Y-124839800D01*
X41564000Y-128987400D02*
X43903300Y-131326700D01*
X39925100Y-128987400D02*
X41564000Y-128987400D01*
X38378300Y-130534200D02*
X39925100Y-128987400D01*
X36839000Y-130534200D02*
X38378300Y-130534200D01*
X35886600Y-129581800D02*
X36839000Y-130534200D01*
X35886600Y-129083600D02*
X35886600Y-129581800D01*
X35904600Y-129065600D02*
X35886600Y-129083600D01*
X35904600Y-129047500D02*
X35904600Y-129065600D01*
X95603700Y-125641200D02*
X95000000Y-125037500D01*
X98190000Y-125641200D02*
X95603700Y-125641200D01*
X118106100Y-143528200D02*
X118106100Y-143082300D01*
X118861900Y-144284000D02*
X118106100Y-143528200D01*
X120245100Y-144284000D02*
X118861900Y-144284000D01*
X120245100Y-144283900D02*
X120245100Y-144284000D01*
X121446700Y-143082300D02*
X120245100Y-144283900D01*
X122212700Y-143082300D02*
X121446700Y-143082300D01*
X80392200Y-129750000D02*
X79325000Y-129750000D01*
X80493900Y-129851700D02*
X80392200Y-129750000D01*
X85608700Y-129851700D02*
X80493900Y-129851700D01*
X88250000Y-132493000D02*
X85608700Y-129851700D01*
X88250000Y-133675000D02*
X88250000Y-132493000D01*
X127687500Y-77750000D02*
X131920000Y-77750000D01*
X119000000Y-86437500D02*
X127687500Y-77750000D01*
X115000000Y-86619300D02*
X115000000Y-86437500D01*
X108794300Y-92825000D02*
X115000000Y-86619300D01*
X98724200Y-92825000D02*
X108794300Y-92825000D01*
%TO.N,Net-(BT1-PadN)*%
X106150000Y-26580000D02*
X69300000Y-26580000D01*
%TD*%
M02*
